<svg width="317" height="317" viewBox="0 0 317 317" fill="none" xmlns="http://www.w3.org/2000/svg">
<circle cx="158.5" cy="158.5" r="158.5" fill="#070707"/>
<circle cx="158.5" cy="158.5" r="130.5" fill="#0B0B0B"/>
<path d="M148.465 82.0754C111.126 87.7897 81.0473 84.4564 70.6753 82.0754L69.8344 172.272C76.8985 212.161 125.572 243.795 149.026 254.626C211.145 223.701 226.675 185.811 226.675 170.732V82.0754C195.167 87.4536 161.407 84.3163 148.465 82.0754Z" fill="white"/>
<path d="M148.255 89.0287C113.951 94.2825 86.3168 91.2178 76.7879 89.0287L76.0153 171.956C82.5052 208.63 127.222 237.714 148.77 247.672C205.84 219.24 220.108 184.404 220.108 170.54V89.0287C191.161 93.9735 160.144 91.0891 148.255 89.0287Z" fill="#003069"/>
<path d="M76.4017 129.463H220.237V170.154H76.0154L76.4017 129.463Z" fill="#01C76B"/>
<rect x="124.947" y="144.142" width="95.2892" height="11.0742" fill="white"/>
<path d="M106.576 151.465L104.088 158.918L90.6951 170.123L101.459 170.282L114.036 170.123L120.243 155.429L126.398 170.154L139.026 170.123L150.22 170.154L136.389 158.919C136.389 158.919 127.556 131.265 122.999 131.265C117.514 131.265 113.887 131.265 110.572 131.265C105.573 131.265 106.95 137.217 99.4952 137.217C92.0433 137.217 90.6951 146.174 90.6951 146.174C90.6951 146.174 93.493 146.174 100.633 146.174C107.782 146.174 106.576 151.465 106.576 151.465ZM110.207 135.718C111.098 135.718 111.815 136.435 111.815 137.321C111.815 138.206 111.098 138.927 110.207 138.927C109.323 138.927 108.603 138.206 108.603 137.321C108.603 136.435 109.327 135.718 110.207 135.718Z" fill="#0E9255"/>
<path d="M103.58 151.465L101.092 158.918L87.6993 170.123L98.4635 170.282L111.04 170.123L117.247 155.429L123.402 170.154L136.03 170.123L147.224 170.154L133.393 158.919C133.393 158.919 124.56 131.265 120.003 131.265C114.518 131.265 110.891 131.265 107.577 131.265C102.577 131.265 103.954 137.217 96.4995 137.217C89.0476 137.217 87.6993 146.174 87.6993 146.174C87.6993 146.174 90.4973 146.174 97.6371 146.174C104.786 146.174 103.58 151.465 103.58 151.465ZM107.211 135.718C108.102 135.718 108.819 136.435 108.819 137.321C108.819 138.206 108.102 138.927 107.211 138.927C106.327 138.927 105.608 138.206 105.608 137.321C105.608 136.435 106.331 135.718 107.211 135.718Z" fill="white"/>
<path d="M90.6951 143.798C91.5965 142.381 94.3006 139.651 97.9061 140.063" stroke="#01C76B" stroke-width="1.03015"/>
<path d="M111.041 170.154L117.221 155.216L123.402 170.154H111.041Z" fill="#003069"/>
<path fill-rule="evenodd" clip-rule="evenodd" d="M220.237 111.861L211.88 116.07L207.473 107.501L198.36 105.742L199.584 96.0846L193.195 89.029L199.584 81.9733L198.36 72.3163L207.473 70.5572L211.88 61.9874L220.237 66.1965L228.593 61.9874L233 70.5572L242.114 72.3163L240.889 81.9733L247.278 89.029L240.889 96.0846L242.114 105.742L233 107.501L228.593 116.07L220.237 111.861Z" fill="#0D64CB"/>
<path fill-rule="evenodd" clip-rule="evenodd" d="M215.57 92.0393L211.258 87.7273L207.455 91.53L211.768 95.8423L211.761 95.8488L215.564 99.6515L215.57 99.645L215.577 99.6515L219.38 95.8488L219.373 95.8423L232.947 82.2685L229.144 78.4658L215.57 92.0393Z" fill="white"/>
</svg>
