<svg width="189" height="27" viewBox="0 0 189 27" fill="none" xmlns="http://www.w3.org/2000/svg">
<path d="M10.3774 2.04443C10.0639 2.04443 9.84451 2.2952 9.84451 2.60864C9.9072 4.45797 10.158 7.4984 10.5968 11.7299C8.84148 10.7269 6.05181 9.50444 2.25912 8.15663C1.97702 8.06259 1.66357 8.21932 1.56954 8.50142L0.127688 12.921C0.0336543 13.2345 0.190377 13.5479 0.503823 13.6106C3.29349 14.3629 6.27122 15.0211 9.34299 15.648C8.12055 16.8077 6.1145 19.0959 3.32483 22.5438C3.13677 22.7946 3.16811 23.1393 3.41887 23.3274L7.05484 25.9917C7.3056 26.1798 7.61904 26.1171 7.80711 25.8663C9.15493 23.9543 10.7222 21.3214 12.4774 17.9361C14.3581 21.2273 16.0194 23.8603 17.4299 25.8663C17.5866 26.1171 17.9314 26.1484 18.1822 25.9917L21.8808 23.3274C22.1316 23.1393 22.1943 22.7632 21.9749 22.5438C19.3106 19.2526 17.2418 16.9645 15.7373 15.648C18.6837 15.3032 21.6928 14.645 24.7645 13.6419C25.0466 13.5479 25.2033 13.2345 25.1093 12.9524L23.7302 8.47007C23.6361 8.18797 23.3227 8.03126 23.0406 8.12529C19.8434 9.22235 16.9911 10.4134 14.5148 11.6986C14.985 8.12529 15.2671 5.08486 15.3925 2.60864C15.3925 2.2952 15.1731 2.04443 14.8596 2.04443H10.3774Z" fill="white"/>
<path d="M41.5024 24.6752C40.0919 24.6752 38.7128 24.4872 37.4276 24.0797C36.1425 23.6722 35.1081 23.1707 34.3872 22.5438L35.4529 20.6945C36.1738 21.2587 37.1142 21.7288 38.2112 22.105C39.3083 22.4811 40.4681 22.6378 41.6905 22.6378C43.2891 22.6378 44.4802 22.3871 45.2324 21.8856C45.9847 21.384 46.3922 20.6945 46.3922 19.8168C46.3922 19.1899 46.1728 18.6884 45.7653 18.3123C45.3578 17.9361 44.825 17.6854 44.1667 17.4973C43.5085 17.3092 42.6622 17.1212 41.5965 16.9645C40.186 16.7137 39.0262 16.4316 38.1486 16.1495C37.2709 15.8674 36.55 15.3972 35.9231 14.739C35.2962 14.0808 35.0141 13.1718 35.0141 12.012C35.0141 10.5702 35.641 9.37906 36.8634 8.47007C38.0859 7.56108 39.7785 7.09091 41.9726 7.09091C43.101 7.09091 44.2294 7.24763 45.3892 7.52973C46.5489 7.81183 47.4579 8.21932 48.1788 8.68949L47.1444 10.5702C45.7026 9.59848 43.9786 9.09696 41.9726 9.09696C40.4681 9.09696 39.3083 9.34772 38.556 9.88058C37.8038 10.4134 37.3963 11.103 37.3963 11.9493C37.3963 12.6076 37.6157 13.1404 38.0545 13.5166C38.4933 13.8927 39.0262 14.2061 39.6844 14.3942C40.3427 14.5823 41.2203 14.7703 42.3487 14.9584C43.7592 15.2092 44.8876 15.4913 45.7026 15.742C46.5489 15.9928 47.2698 16.4629 47.8654 17.0898C48.4609 17.7167 48.7744 18.5944 48.7744 19.7228C48.7744 21.2273 48.1475 22.4184 46.8623 23.3274C45.5459 24.2051 43.7906 24.6752 41.5024 24.6752ZM108.298 0.132416V24.4872H106.041V21.0706C105.32 22.2303 104.38 23.108 103.22 23.7349C102.06 24.3618 100.744 24.6439 99.2705 24.6439C97.6406 24.6439 96.136 24.2677 94.7882 23.5155C93.4404 22.7632 92.406 21.7288 91.6538 20.4124C90.9015 19.0645 90.5253 17.56 90.5253 15.836C90.5253 14.1434 90.9015 12.6076 91.6538 11.2597C92.406 9.91193 93.4404 8.87755 94.7882 8.15662C96.136 7.4357 97.6092 7.05956 99.2705 7.05956C100.681 7.05956 101.966 7.34167 103.126 7.93722C104.286 8.50142 105.195 9.37907 105.947 10.4761V0.101074H108.298V0.132416ZM99.4585 22.6065C100.681 22.6065 101.778 22.3244 102.781 21.7602C103.784 21.196 104.536 20.4124 105.101 19.378C105.665 18.3436 105.947 17.1839 105.947 15.8674C105.947 14.5509 105.665 13.3912 105.101 12.3568C104.536 11.3224 103.753 10.5388 102.781 9.97462C101.809 9.41041 100.681 9.12831 99.4585 9.12831C98.2048 9.12831 97.1077 9.41041 96.1047 9.97462C95.1017 10.5388 94.3494 11.3224 93.7852 12.3568C93.221 13.3912 92.9389 14.5509 92.9389 15.8674C92.9389 17.1839 93.221 18.3436 93.7852 19.378C94.3494 20.4124 95.133 21.196 96.1047 21.7602C97.1077 22.3244 98.2048 22.6065 99.4585 22.6065ZM119.143 24.6752C117.732 24.6752 116.353 24.4872 115.068 24.0797C113.783 23.6722 112.749 23.1707 112.028 22.5438L113.093 20.6945C113.814 21.2587 114.755 21.7288 115.852 22.105C116.949 22.4811 118.109 22.6378 119.331 22.6378C120.93 22.6378 122.121 22.3871 122.873 21.8856C123.625 21.384 124.033 20.6945 124.033 19.8168C124.033 19.1899 123.813 18.6884 123.406 18.3123C122.998 17.9361 122.465 17.6854 121.807 17.4973C121.149 17.3092 120.303 17.1212 119.237 16.9645C117.826 16.7137 116.667 16.4316 115.789 16.1495C114.911 15.8674 114.191 15.3972 113.564 14.739C112.937 14.0808 112.655 13.1718 112.655 12.012C112.655 10.5702 113.282 9.37906 114.504 8.47007C115.726 7.56108 117.419 7.09091 119.613 7.09091C120.742 7.09091 121.87 7.24763 123.03 7.52973C124.158 7.81183 125.098 8.21932 125.819 8.68949L124.785 10.5702C123.343 9.59848 121.619 9.09696 119.613 9.09696C118.109 9.09696 116.949 9.34772 116.197 9.88058C115.444 10.4134 115.037 11.103 115.037 11.9493C115.037 12.6076 115.256 13.1404 115.695 13.5166C116.134 13.8927 116.667 14.2061 117.325 14.3942C117.983 14.5823 118.861 14.7703 119.989 14.9584C121.4 15.2092 122.528 15.4913 123.343 15.742C124.189 15.9928 124.91 16.4629 125.506 17.0898C126.101 17.7167 126.415 18.5944 126.415 19.7228C126.415 21.2273 125.788 22.4184 124.503 23.3274C123.186 24.2051 121.431 24.6752 119.143 24.6752ZM138.294 23.4528C137.856 23.8603 137.291 24.1424 136.665 24.3618C136.038 24.5812 135.348 24.6752 134.627 24.6752C132.997 24.6752 131.712 24.2364 130.834 23.3587C129.957 22.4811 129.487 21.2587 129.487 19.6601V3.48628H131.869V7.24763H137.166V9.22235H131.869V19.5034C131.869 20.5377 132.12 21.3214 132.621 21.8542C133.123 22.3871 133.875 22.6692 134.847 22.6692C135.912 22.6692 136.79 22.3871 137.448 21.7915L138.294 23.4528ZM158.606 7.21629V24.4872H156.318V21.0706C155.597 22.2303 154.656 23.108 153.497 23.7349C152.337 24.3618 151.02 24.6439 149.547 24.6439C147.917 24.6439 146.413 24.2677 145.065 23.5155C143.717 22.7632 142.683 21.7288 141.93 20.4124C141.178 19.0645 140.802 17.56 140.802 15.836C140.802 14.1434 141.178 12.6076 141.93 11.2597C142.683 9.91193 143.717 8.87755 145.065 8.15662C146.413 7.4357 147.886 7.05956 149.547 7.05956C150.958 7.05956 152.243 7.34167 153.403 7.93722C154.562 8.50142 155.471 9.37907 156.224 10.4761V7.18495H158.606V7.21629ZM149.767 22.6065C150.989 22.6065 152.086 22.3244 153.089 21.7602C154.092 21.196 154.844 20.4124 155.409 19.378C155.973 18.3436 156.255 17.1839 156.255 15.8674C156.255 14.5509 155.973 13.3912 155.409 12.3568C154.844 11.3224 154.061 10.5388 153.089 9.97462C152.086 9.41041 150.989 9.12831 149.767 9.12831C148.513 9.12831 147.416 9.41041 146.413 9.97462C145.41 10.5388 144.657 11.3224 144.093 12.3568C143.529 13.3912 143.247 14.5509 143.247 15.8674C143.247 17.1839 143.529 18.3436 144.093 19.378C144.657 20.4124 145.441 21.196 146.413 21.7602C147.384 22.3244 148.513 22.6065 149.767 22.6065ZM165.125 10.6015C165.69 9.44176 166.505 8.56411 167.602 7.96856C168.699 7.37302 170.078 7.09091 171.676 7.09091V9.34772L171.112 9.31638C169.263 9.31638 167.821 9.88058 166.787 10.9776C165.752 12.0747 165.219 13.6733 165.219 15.6793V24.4872H162.837V7.21629H165.094V10.6015H165.125ZM180.923 24.6752C179.513 24.6752 178.133 24.4872 176.848 24.0797C175.563 23.6722 174.529 23.1707 173.808 22.5438L174.874 20.6945C175.595 21.2587 176.535 21.7288 177.632 22.105C178.729 22.4811 179.889 22.6378 181.111 22.6378C182.71 22.6378 183.901 22.3871 184.653 21.8856C185.405 21.384 185.813 20.6945 185.813 19.8168C185.813 19.1899 185.593 18.6884 185.186 18.3123C184.778 17.9361 184.246 17.6854 183.587 17.4973C182.929 17.3092 182.083 17.1212 181.017 16.9645C179.607 16.7137 178.447 16.4316 177.569 16.1495C176.692 15.8674 175.971 15.3972 175.344 14.739C174.717 14.0808 174.435 13.1718 174.435 12.012C174.435 10.5702 175.062 9.37906 176.284 8.47007C177.507 7.56108 179.199 7.09091 181.393 7.09091C182.522 7.09091 183.65 7.24763 184.81 7.52973C185.97 7.81183 186.879 8.21932 187.6 8.68949L186.565 10.5702C185.123 9.59848 183.399 9.09696 181.393 9.09696C179.889 9.09696 178.729 9.34772 177.977 9.88058C177.224 10.4134 176.817 11.103 176.817 11.9493C176.817 12.6076 177.036 13.1404 177.475 13.5166C177.914 13.8927 178.447 14.2061 179.105 14.3942C179.763 14.5823 180.641 14.7703 181.769 14.9584C183.18 15.2092 184.308 15.4913 185.123 15.742C185.97 15.9928 186.691 16.4629 187.286 17.0898C187.882 17.7167 188.195 18.5944 188.195 19.7228C188.195 21.2273 187.568 22.4184 186.283 23.3274C184.967 24.2051 183.211 24.6752 180.923 24.6752ZM67.7692 16.4629H53.4134C53.5387 18.2809 54.2283 19.7541 55.4821 20.8825C56.7359 22.0109 58.3031 22.5751 60.1838 22.5751C61.2495 22.5751 62.2212 22.3871 63.1302 21.9796C64.0392 21.5721 64.7914 21.0079 65.4497 20.2556L66.7662 21.7915C66.0139 22.7319 65.0422 23.4214 63.9138 23.923C62.7854 24.4245 61.5003 24.6439 60.1524 24.6439C58.3972 24.6439 56.8299 24.2677 55.4821 23.4841C54.1343 22.7005 53.0686 21.6661 52.285 20.287C51.5013 18.9078 51.1566 17.4033 51.1566 15.6793C51.1566 13.9554 51.5327 12.4508 52.2536 11.0717C52.9745 9.72386 53.9776 8.65814 55.2627 7.90587C56.5478 7.1536 57.9583 6.77747 59.5569 6.77747C61.1555 6.77747 62.566 7.1536 63.8198 7.90587C65.0735 8.65814 66.0766 9.72386 66.7975 11.0403C67.5184 12.3881 67.8632 13.924 67.8632 15.648L67.7692 16.4629ZM59.4942 8.84621C57.833 8.84621 56.4538 9.37907 55.3254 10.4761C54.197 11.5418 53.5701 12.9524 53.4134 14.7076H65.6064C65.4497 12.9837 64.8228 11.5732 63.6944 10.4761C62.566 9.41042 61.1555 8.84621 59.4942 8.84621ZM87.8297 16.4629H73.4739C73.5993 18.2809 74.2889 19.7541 75.5426 20.8825C76.7964 22.0109 78.3636 22.5751 80.2443 22.5751C81.31 22.5751 82.2817 22.3871 83.1907 21.9796C84.0997 21.5721 84.852 21.0079 85.5102 20.2556L86.8267 21.7915C86.0744 22.7319 85.1027 23.4214 83.9743 23.923C82.8459 24.4245 81.5608 24.6439 80.213 24.6439C78.4577 24.6439 76.8905 24.2677 75.5426 23.4841C74.1948 22.7005 73.1291 21.6661 72.3455 20.287C71.5619 18.9078 71.2171 17.4033 71.2171 15.6793C71.2171 13.9554 71.5932 12.4508 72.3141 11.0717C73.0351 9.72386 74.0381 8.65814 75.3232 7.90587C76.6084 7.1536 78.0189 6.77747 79.6174 6.77747C81.216 6.77747 82.6265 7.1536 83.8803 7.90587C85.1341 8.65814 86.1371 9.72386 86.858 11.0403C87.579 12.3881 87.9237 13.924 87.9237 15.648L87.8297 16.4629ZM79.5547 8.84621C77.8935 8.84621 76.5143 9.37907 75.3859 10.4761C74.2575 11.5418 73.6306 12.9524 73.4739 14.7076H85.6669C85.5102 12.9837 84.8833 11.5732 83.7549 10.4761C82.6265 9.41042 81.216 8.84621 79.5547 8.84621Z" fill="#0865AC"/>
<path d="M10.3774 2.04443C10.0639 2.04443 9.84451 2.2952 9.84451 2.60864C9.9072 4.45797 10.158 7.4984 10.5968 11.7299C8.84148 10.7269 6.05181 9.50444 2.25912 8.15663C1.97702 8.06259 1.66357 8.21932 1.56954 8.50142L0.127688 12.921C0.0336542 13.2345 0.190377 13.5479 0.503823 13.6106C3.29349 14.3629 6.27122 15.0211 9.34299 15.648C8.12055 16.8077 6.1145 19.0959 3.32483 22.5438C3.13677 22.7946 3.16811 23.1393 3.41887 23.3274L7.05484 25.9917C7.3056 26.1798 7.61904 26.1171 7.80711 25.8663C9.15493 23.9543 10.7222 21.3214 12.4774 17.9361C14.3581 21.2273 16.0194 23.8603 17.4299 25.8663C17.5866 26.1171 17.9314 26.1484 18.1822 25.9917L21.8808 23.3274C22.1316 23.1393 22.1943 22.7632 21.9749 22.5438C19.3106 19.2526 17.2418 16.9645 15.7373 15.648C18.6837 15.3032 21.6928 14.645 24.7645 13.6419C25.0466 13.5479 25.2033 13.2345 25.1093 12.9524L23.7302 8.47007C23.6361 8.18797 23.3227 8.03126 23.0406 8.12529C19.8434 9.22235 16.9911 10.4134 14.5148 11.6986C14.985 8.12529 15.2671 5.08486 15.3925 2.60864C15.3925 2.2952 15.1731 2.04443 14.8596 2.04443H10.3774Z" fill="#054B81"/>
</svg>
