<svg width="117" height="36" viewBox="0 0 117 36" fill="none" xmlns="http://www.w3.org/2000/svg">
<path fill-rule="evenodd" clip-rule="evenodd" d="M72.4507 28.049C65.6892 33.0484 55.8543 35.712 47.3717 35.712C35.4878 35.712 24.8333 31.3273 16.7195 24.033C16.1048 23.4593 16.6375 22.6807 17.4161 23.1315C26.1446 28.2129 36.922 31.2453 48.0683 31.2453C55.5674 31.2453 63.8452 29.6881 71.4672 26.4508C72.6146 26 73.5572 27.2294 72.4507 28.049Z" fill="white"/>
<path fill-rule="evenodd" clip-rule="evenodd" d="M75.2785 24.8116C74.4179 23.7052 69.5414 24.2789 67.3695 24.5657C66.7139 24.6477 66.591 24.074 67.2056 23.6642C71.0986 20.9186 77.4504 21.7382 78.188 22.6397C78.9256 23.5413 77.9831 29.934 74.336 32.9664C73.7623 33.4172 73.2295 33.1713 73.4754 32.5566C74.295 30.5077 76.139 25.959 75.2785 24.8116Z" fill="white"/>
<path fill-rule="evenodd" clip-rule="evenodd" d="M67.4922 4.40426V1.74063C67.4922 1.33084 67.7791 1.08497 68.1479 1.08497L80.0317 1.08497C80.4006 1.08497 80.7284 1.37182 80.7284 1.74063V3.99447C80.7284 4.36328 80.4006 4.85503 79.8268 5.67461L73.68 14.4441C75.9748 14.4031 78.3926 14.7309 80.4415 15.8783C80.8923 16.1242 81.0152 16.534 81.0562 16.9028V19.7304C81.0562 20.1401 80.6464 20.5909 80.1957 20.345C76.5485 18.419 71.6721 18.2141 67.6561 20.386C67.2463 20.5909 66.7956 20.1811 66.7956 19.7713V17.0667C66.7956 16.6569 66.7956 15.9193 67.2463 15.2637L74.3767 5.05992L68.1889 5.05992C67.82 5.05992 67.4922 4.77307 67.4922 4.40426ZM24.1775 20.9187H20.5714C20.2436 20.8778 19.9567 20.6319 19.9157 20.3041L19.9157 1.78161C19.9157 1.4128 20.2436 1.12595 20.6124 1.12595L23.9726 1.12595C24.3415 1.12595 24.5873 1.4128 24.6283 1.74063V4.15838H24.7103C25.5708 1.82259 27.2509 0.716159 29.4638 0.716159C31.7176 0.716159 33.1519 1.82259 34.1354 4.15838C34.996 1.82259 37.0039 0.716159 39.1348 0.716159C40.651 0.716159 42.2902 1.33084 43.3147 2.7651C44.4621 4.3223 44.2162 6.57614 44.2162 8.58411V20.3041C44.2162 20.6729 43.8884 20.9597 43.5196 20.9597L39.9544 20.9597C39.5856 20.9187 39.2987 20.6319 39.2987 20.3041V10.4691C39.2987 9.69053 39.3807 7.72354 39.2168 6.98592C38.9299 5.75656 38.1513 5.38775 37.0859 5.38775C36.2253 5.38775 35.2828 5.96146 34.914 6.90397C34.5452 7.84649 34.5862 9.40368 34.5862 10.4691V20.3041C34.5862 20.6729 34.2583 20.9597 33.8895 20.9597H30.2834C29.9146 20.9187 29.6277 20.6319 29.6277 20.3041L29.6277 10.4691C29.6277 8.42018 29.9556 5.34677 27.4149 5.34677C24.8332 5.34677 24.9152 8.29725 24.9152 10.4691L24.9152 20.3041C24.8742 20.6319 24.5873 20.9187 24.1775 20.9187ZM90.9731 0.716159C96.3413 0.716159 99.2508 5.30579 99.2508 11.1658C99.2508 16.8209 96.0545 21.3285 90.9731 21.3285C85.7278 21.3285 82.8593 16.7389 82.8593 11.0019C82.8183 5.22384 85.7278 0.716159 90.9731 0.716159ZM90.9731 4.52719C88.3095 4.52719 88.1456 8.17432 88.1456 10.4282C88.1456 12.682 88.1046 17.5175 90.9321 17.5175C93.7187 17.5175 93.8826 13.6245 93.8826 11.2477C93.8826 9.69054 93.8006 7.80551 93.3499 6.33027C92.9401 5.01895 92.1205 4.52719 90.9731 4.52719ZM106.176 20.9187H102.57C102.201 20.8778 101.914 20.5909 101.914 20.2631V1.69965C101.955 1.37182 102.242 1.08497 102.611 1.08497L105.971 1.08497C106.299 1.08497 106.545 1.33085 106.627 1.6177V4.44524H106.709C107.733 1.90455 109.127 0.716159 111.626 0.716159C113.225 0.716159 114.823 1.28986 115.847 2.88803C116.79 4.36327 116.79 6.86299 116.79 8.66606V20.345C116.749 20.6729 116.462 20.9187 116.093 20.9187H112.487C112.159 20.8778 111.872 20.6319 111.831 20.345V10.2642C111.831 8.21529 112.077 5.26482 109.578 5.26482C108.717 5.26482 107.897 5.83852 107.488 6.74006C106.996 7.88747 106.914 8.99389 106.914 10.2642V20.2631C106.873 20.6319 106.545 20.9187 106.176 20.9187ZM58.0261 12.0673C58.0261 13.4606 58.0671 14.649 57.3704 15.9193C56.7967 16.9438 55.8952 17.5585 54.8707 17.5585C53.4774 17.5585 52.6579 16.493 52.6579 14.9358C52.6579 11.8624 55.4034 11.2887 58.0261 11.2887V12.0673ZM61.6732 20.8778C61.4273 21.0827 61.0995 21.1236 60.8126 20.9597C59.6243 19.9762 59.3784 19.4845 58.7227 18.542C56.7557 20.5499 55.3215 21.1646 52.7808 21.1646C49.7483 21.1646 47.3716 19.2796 47.3716 15.5505C47.3716 12.6 48.9698 10.633 51.2236 9.64955C53.1906 8.78899 55.9362 8.62509 58.0261 8.37921V7.92844C58.0261 7.06789 58.108 6.04342 57.5753 5.3058C57.1246 4.65014 56.305 4.36328 55.5674 4.36328C54.1741 4.36328 52.9447 5.05992 52.6579 6.53516C52.5759 6.863 52.371 7.19082 52.0432 7.19082L48.56 6.82201C48.2731 6.74005 47.9453 6.53516 48.0272 6.08439C48.8468 1.82259 52.6579 0.552246 56.1001 0.552246C57.8622 0.552246 60.157 1.00301 61.5503 2.35531C63.3124 3.99447 63.1484 6.20733 63.1484 8.58411V14.1982C63.1484 15.8783 63.8451 16.616 64.5007 17.5585C64.7466 17.8863 64.7876 18.2961 64.5007 18.501C63.7221 19.1157 62.4108 20.2631 61.6732 20.8778ZM10.6955 12.0673C10.6955 13.4606 10.7365 14.649 10.0398 15.9193C9.46612 16.9438 8.56458 17.5585 7.54011 17.5585C6.14683 17.5585 5.32725 16.493 5.32725 14.9358C5.32725 11.8624 8.07284 11.2887 10.6955 11.2887V12.0673ZM14.3016 20.8778C14.0558 21.0827 13.7279 21.1236 13.4411 20.9597C12.2527 19.9762 12.0068 19.4845 11.3511 18.542C9.38416 20.5499 7.9499 21.1646 5.40921 21.1646C2.37677 21.1646 0 19.2796 0 15.5505C0 12.6 1.59817 10.633 3.85201 9.64955C5.819 8.78899 8.56458 8.62509 10.6545 8.37921V7.92844C10.6545 7.06789 10.7365 6.04342 10.2037 5.3058C9.75297 4.65014 8.93339 4.36328 8.19578 4.36328C6.80249 4.36328 5.57312 5.05992 5.28627 6.53516C5.20431 6.863 4.99942 7.19082 4.67159 7.19082L1.18838 6.82201C0.901533 6.74005 0.573707 6.53516 0.655665 6.08439C1.47524 1.82259 5.28628 0.552246 8.7285 0.552246C10.4906 0.552246 12.7854 1.00301 14.1787 2.35531C15.9408 3.99447 15.7769 6.20733 15.7769 8.58411V14.1982C15.7769 15.8783 16.4735 16.616 17.1292 17.5585C17.375 17.8863 17.416 18.2961 17.1292 18.501C16.3506 19.1157 15.0392 20.2631 14.3016 20.8778Z" fill="white"/>
</svg>
