 <svg width="120" height="50" viewBox="0 0 166 50" fill="none" xmlns="http://www.w3.org/2000/svg">
<g clip-path="url(#clip0)">
<path d="M164.903 44.1897C164.903 46.7832 162.802 48.8839 160.204 48.8839H6.42341C3.82627 48.8839 1.71826 46.7832 1.71826 44.1897V6.75479C1.71826 4.16255 3.82637 2.05444 6.42341 2.05444H160.203C162.802 2.05444 164.902 4.16255 164.902 6.75479L164.903 44.1897Z" fill="white"/>
<path d="M160.204 49.9753H6.42327C3.22802 49.9753 0.627197 47.3807 0.627197 44.1891V6.75541C0.627197 3.56138 3.22802 0.963013 6.42327 0.963013H160.203C163.394 0.963013 165.999 3.56138 165.999 6.75541V44.1891C166.001 47.3807 163.397 49.9753 160.204 49.9753V49.9753Z" fill="#A6A6A6"/>
<path d="M164.903 44.1897C164.903 46.7832 162.802 48.8839 160.204 48.8839H6.42341C3.82627 48.8839 1.71826 46.7832 1.71826 44.1897V6.75479C1.71826 4.16255 3.82637 2.05444 6.42341 2.05444H160.203C162.802 2.05444 164.902 4.16255 164.902 6.75479L164.903 44.1897Z" fill="black"/>
<path d="M37.5534 25.2118C37.5179 21.2616 40.7879 19.3398 40.9374 19.2503C39.0855 16.5502 36.2151 16.1813 35.2064 16.1519C32.7956 15.8981 30.457 17.5944 29.2289 17.5944C27.9763 17.5944 26.0852 16.1764 24.0469 16.218C21.424 16.2585 18.9704 17.7771 17.6245 20.1352C14.8473 24.9434 16.9186 32.0093 19.5795 35.8958C20.9105 37.8004 22.4659 39.9245 24.5016 39.8497C26.4933 39.7688 27.2373 38.5812 29.6408 38.5812C32.0221 38.5812 32.7208 39.8497 34.7969 39.8019C36.9346 39.7688 38.2802 37.8899 39.5648 35.9693C41.103 33.7889 41.7206 31.6391 41.7452 31.5288C41.6961 31.5116 37.5951 29.9453 37.5534 25.2118V25.2118ZM33.6314 13.5952C34.7025 12.2555 35.4355 10.433 35.232 8.5835C33.6815 8.65213 31.7426 9.65594 30.626 10.9662C29.6381 12.1207 28.7556 14.0131 28.9836 15.7927C30.7253 15.9227 32.5136 14.914 33.6314 13.5952V13.5952Z" fill="white"/>
<path d="M66.4015 39.5762H63.618L62.0933 34.7851H56.7935L55.3411 39.5762H52.6313L57.8832 23.2653H61.1263L66.4015 39.5762ZM61.6338 32.7751L60.255 28.516C60.1091 28.0809 59.8346 27.0562 59.4325 25.4433H59.3835C59.2217 26.137 58.9631 27.1616 58.6089 28.516L57.2534 32.7751H61.6338ZM79.8812 33.5509C79.8812 35.5512 79.3383 37.1322 78.251 38.293C77.2779 39.3262 76.0682 39.8423 74.6256 39.8423C73.0678 39.8423 71.9475 39.2869 71.2673 38.1741V44.3453H68.6542V31.6806C68.6542 30.4242 68.6212 29.1361 68.5575 27.8149H70.8556L71.0014 29.6791H71.0503C71.9218 28.2745 73.2442 27.5721 75.019 27.5721C76.4064 27.5721 77.5647 28.12 78.4912 29.2169C79.4166 30.3164 79.8812 31.7602 79.8812 33.5509V33.5509ZM77.219 33.6465C77.219 32.5018 76.9616 31.558 76.4444 30.814C75.8794 30.0407 75.1207 29.6535 74.1696 29.6535C73.5249 29.6535 72.9391 29.8691 72.4157 30.2944C71.8911 30.7233 71.548 31.2835 71.3875 31.9772C71.3066 32.3008 71.2662 32.5643 71.2662 32.7727V34.7349C71.2662 35.5892 71.5284 36.3112 72.053 36.9019C72.5776 37.4902 73.2591 37.7855 74.0974 37.7855C75.0817 37.7855 75.8477 37.4044 76.3955 36.6481C76.9445 35.8894 77.219 34.8893 77.219 33.6465V33.6465ZM93.4086 33.5509C93.4086 35.5512 92.8656 37.1322 91.7785 38.293C90.8041 39.3262 89.5956 39.8423 88.1518 39.8423C86.594 39.8423 85.4737 39.2869 84.7935 38.1741V44.3453H82.1804V31.6806C82.1804 30.4242 82.1473 29.1361 82.0836 27.8149H84.3817L84.5275 29.6791H84.5766C85.4468 28.2745 86.7692 27.5721 88.5451 27.5721C89.9313 27.5721 91.0895 28.12 92.0187 29.2169C92.9429 30.3164 93.4086 31.7602 93.4086 33.5509ZM90.7452 33.6465C90.7452 32.5018 90.4867 31.558 89.9694 30.814C89.4044 30.0407 88.6482 29.6535 87.6971 29.6535C87.0524 29.6535 86.4665 29.8691 85.9407 30.2944C85.4161 30.7233 85.0743 31.2835 84.9136 31.9772C84.834 32.3008 84.7911 32.5643 84.7911 32.7727V34.7349C84.7911 35.5892 85.0546 36.3112 85.5767 36.9019C86.1013 37.489 86.7827 37.7855 87.6235 37.7855C88.6088 37.7855 89.3749 37.4044 89.9216 36.6481C90.4707 35.8894 90.7452 34.8893 90.7452 33.6465V33.6465ZM108.533 35.0009C108.533 36.3895 108.048 37.5183 107.083 38.3898C106.022 39.3409 104.54 39.8176 102.64 39.8176C100.885 39.8176 99.478 39.4794 98.4166 38.8016L99.0208 36.6236C100.167 37.3026 101.426 37.6409 102.796 37.6409C103.781 37.6409 104.547 37.4178 105.094 36.9754C105.642 36.5317 105.919 35.9385 105.919 35.1982C105.919 34.5352 105.69 33.9799 105.24 33.5277C104.787 33.0767 104.04 32.6563 102.99 32.2702C100.134 31.2051 98.7046 29.6473 98.7046 27.5981C98.7046 26.2597 99.2095 25.1639 100.217 24.3072C101.225 23.4517 102.561 23.024 104.223 23.024C105.707 23.024 106.943 23.2827 107.925 23.7987L107.269 25.9287C106.345 25.4287 105.302 25.1786 104.135 25.1786C103.214 25.1786 102.491 25.4054 101.973 25.8564C101.538 26.2596 101.318 26.7512 101.318 27.3345C101.318 27.9781 101.569 28.5125 102.069 28.9317C102.503 29.3176 103.295 29.7381 104.439 30.1892C105.844 30.7554 106.876 31.4148 107.537 32.1723C108.202 32.9295 108.533 33.8745 108.533 35.0009V35.0009ZM117.195 29.7759H114.314V35.4862C114.314 36.9386 114.822 37.663 115.839 37.663C116.306 37.663 116.693 37.6236 117 37.5416L117.072 39.5259C116.557 39.7185 115.88 39.8152 115.04 39.8152C114.008 39.8152 113.202 39.5002 112.619 38.8702C112.04 38.2402 111.748 37.185 111.748 35.6995V29.771H110.032V27.81H111.748V25.6565L114.314 24.8819V27.81H117.195V29.7759V29.7759ZM130.164 33.5987C130.164 35.4064 129.647 36.8907 128.615 38.0515C127.535 39.2465 126.099 39.8422 124.308 39.8422C122.58 39.8422 121.206 39.2698 120.182 38.1262C119.157 36.9802 118.645 35.5365 118.645 33.7948C118.645 31.9722 119.174 30.4794 120.229 29.3188C121.287 28.1568 122.711 27.576 124.502 27.576C126.228 27.576 127.614 28.1495 128.663 29.2942C129.666 30.4047 130.164 31.8387 130.164 33.5987V33.5987ZM127.456 33.6588C127.456 32.5813 127.223 31.6572 126.756 30.8838C126.208 29.9499 125.424 29.483 124.408 29.483C123.361 29.483 122.558 29.9499 122.011 30.8838C121.543 31.6572 121.31 32.5973 121.31 33.7077C121.31 34.7864 121.543 35.7128 122.011 36.4839C122.576 37.4178 123.365 37.8848 124.386 37.8848C125.384 37.8848 126.168 37.408 126.734 36.4606C127.214 35.6688 127.456 34.7386 127.456 33.6588V33.6588ZM138.662 30.113C138.403 30.0651 138.126 30.0406 137.838 30.0406C136.919 30.0406 136.208 30.3863 135.708 31.0824C135.274 31.6952 135.056 32.4698 135.056 33.405V39.5761H132.443V31.5188C132.443 30.1645 132.417 28.929 132.367 27.8161H134.643L134.739 30.0663H134.811C135.088 29.293 135.522 28.6691 136.118 28.2021C136.7 27.7818 137.328 27.5721 138.006 27.5721C138.248 27.5721 138.466 27.5893 138.66 27.62L138.662 30.113V30.113ZM150.348 33.1391C150.348 33.6073 150.318 34.0018 150.253 34.3243H142.414C142.443 35.4862 142.823 36.376 143.551 36.9888C144.212 37.5356 145.066 37.81 146.115 37.81C147.276 37.81 148.335 37.6262 149.287 37.2548L149.696 39.0675C148.583 39.5529 147.27 39.7943 145.753 39.7943C143.93 39.7943 142.498 39.2574 141.456 38.1863C140.417 37.1139 139.896 35.6725 139.896 33.8671C139.896 32.0947 140.38 30.6179 141.35 29.4401C142.365 28.1826 143.736 27.5537 145.462 27.5537C147.157 27.5537 148.44 28.1825 149.311 29.4401C150.002 30.4365 150.348 31.672 150.348 33.1391V33.1391ZM147.857 32.4613C147.875 31.6855 147.703 31.0175 147.349 30.4525C146.897 29.7244 146.201 29.3617 145.268 29.3617C144.414 29.3617 143.718 29.7159 143.188 30.4267C142.753 30.9918 142.494 31.6708 142.415 32.4589L147.857 32.4613Z" fill="white"/>
<path d="M60.3738 17.4277H59.0047L58.2558 15.0732H55.6513L54.9368 17.4277H53.6045L56.1857 9.41073H57.779L60.3738 17.4277ZM58.0303 14.0853L57.3525 11.9919C57.2814 11.7775 57.1503 11.2786 56.9481 10.4819H56.9235C56.8402 10.8264 56.7213 11.3264 56.5424 11.9919L55.8768 14.0853H58.0303ZM66.828 11.6475L64.639 17.4277H63.3899L61.2721 11.6475H62.6522L63.6401 14.7043C63.8068 15.2154 63.9489 15.7032 64.0556 16.1665H64.0911C64.1868 15.751 64.3289 15.2632 64.5066 14.7043L65.4822 11.6475H66.828V11.6475ZM71.4879 17.4277L71.3923 16.7621H71.3566C70.9644 17.2977 70.3933 17.5587 69.6678 17.5587C68.6333 17.5587 67.8954 16.8331 67.8954 15.8575C67.8954 14.4309 69.1321 13.693 71.2733 13.693V13.5864C71.2733 12.8253 70.8688 12.4441 70.0722 12.4441C69.5009 12.4441 69.001 12.5875 68.5622 12.8731L68.301 12.0286C68.8366 11.6952 69.5022 11.5285 70.2878 11.5285C71.7978 11.5285 72.5601 12.3252 72.5601 13.9198V16.0487C72.5601 16.6321 72.5846 17.0844 72.6435 17.4288L71.4879 17.4277V17.4277ZM71.3089 14.5486C69.8812 14.5486 69.1677 14.8943 69.1677 15.7142C69.1677 16.3209 69.5367 16.6175 70.0478 16.6175C70.7021 16.6175 71.3089 16.1187 71.3089 15.4409V14.5486ZM75.421 10.6952C74.9932 10.6952 74.6599 10.3618 74.6599 9.92183C74.6599 9.48182 75.0044 9.1607 75.4455 9.1607C75.8855 9.1607 76.2422 9.48182 76.23 9.92183C76.23 10.3863 75.8979 10.6952 75.421 10.6952ZM76.0877 17.4277H74.8033V11.6475H76.0877V17.4277ZM79.6544 17.4277H78.3699V8.99524H79.6544V17.4277ZM85.1134 17.4277L85.0177 16.7621H84.9822C84.59 17.2977 84.0189 17.5587 83.2933 17.5587C82.2589 17.5587 81.521 16.8331 81.521 15.8575C81.521 14.4309 82.7576 13.693 84.8988 13.693V13.5864C84.8988 12.8253 84.4943 12.4441 83.6977 12.4441C83.1265 12.4441 82.6264 12.5875 82.1877 12.8731L81.9255 12.0274C82.4611 11.694 83.1266 11.5273 83.9123 11.5273C85.4222 11.5273 86.1845 12.324 86.1845 13.9186V16.0475C86.1845 16.6309 86.2103 17.0832 86.2667 17.4276H85.1134V17.4277ZM84.9344 14.5486C83.5066 14.5486 82.7932 14.8943 82.7932 15.7142C82.7932 16.3209 83.1621 16.6175 83.6732 16.6175C84.3276 16.6175 84.9344 16.1187 84.9344 15.4409V14.5486V14.5486ZM91.3888 17.5588C90.5688 17.5588 89.9633 17.2132 89.5711 16.5354H89.5453L89.4718 17.4277H88.3773C88.4128 16.9644 88.4251 16.4398 88.4251 15.8699V8.99524H89.7108V12.4932H89.7353C90.1164 11.851 90.7331 11.5299 91.5787 11.5299C92.971 11.5299 93.9466 12.72 93.9466 14.4555C93.9466 16.2498 92.8631 17.5588 91.3888 17.5588V17.5588ZM91.1276 12.5386C90.3886 12.5386 89.7121 13.1808 89.7121 14.0731V15.0842C89.7121 15.8809 90.3199 16.5354 91.1057 16.5354C92.0678 16.5354 92.6402 15.751 92.6402 14.5021C92.6389 13.3365 92.0432 12.5386 91.1276 12.5386V12.5386ZM97.1296 17.4277H95.8465V8.99524H97.1296V17.4277ZM104.122 14.8465H100.266C100.292 15.941 101.015 16.5587 102.086 16.5587C102.657 16.5587 103.181 16.4631 103.644 16.2854L103.844 17.1776C103.297 17.4154 102.655 17.5343 101.906 17.5343C100.097 17.5343 99.0269 16.392 99.0269 14.621C99.0269 12.8487 100.123 11.5164 101.761 11.5164C103.236 11.5164 104.165 12.6109 104.165 14.2643C104.17 14.4898 104.159 14.692 104.122 14.8465V14.8465ZM102.944 13.9309C102.944 13.0386 102.492 12.4087 101.671 12.4087C100.933 12.4087 100.352 13.0509 100.266 13.9309H102.944V13.9309ZM111.907 17.5588C110.218 17.5588 109.124 16.2976 109.124 14.5854C109.124 12.8009 110.242 11.5286 112.004 11.5286C113.667 11.5286 114.787 12.7298 114.787 14.491C114.788 16.2976 113.633 17.5588 111.907 17.5588ZM111.956 12.4675C111.028 12.4675 110.434 13.3352 110.434 14.5486C110.434 15.7387 111.041 16.6065 111.944 16.6065C112.847 16.6065 113.453 15.6787 113.453 14.5241C113.454 13.3475 112.86 12.4675 111.956 12.4675V12.4675ZM121.693 17.4277H120.41V14.1086C120.41 13.0864 120.017 12.5741 119.244 12.5741C118.483 12.5741 117.958 13.2286 117.958 13.9897V17.4277H116.675V13.2997C116.675 12.7886 116.662 12.2407 116.627 11.6463H117.757L117.817 12.5386H117.853C118.196 11.9209 118.9 11.5274 119.684 11.5274C120.896 11.5274 121.693 12.4552 121.693 13.9652V17.4277H121.693V17.4277ZM130.097 12.6109H128.684V15.4176C128.684 16.1322 128.933 16.4888 129.432 16.4888C129.658 16.4888 129.849 16.4643 130.003 16.4288L130.038 17.4044C129.788 17.5001 129.454 17.5478 129.041 17.5478C128.028 17.5478 127.424 16.9889 127.424 15.5255V12.6109H126.581V11.6475H127.424V10.5886L128.684 10.2074V11.6463H130.097V12.6109ZM136.899 17.4277H135.614V14.1331C135.614 13.0987 135.221 12.5753 134.448 12.5753C133.783 12.5753 133.165 13.0276 133.165 13.9432V17.4277H131.879V8.99524H133.165V12.4675H133.189C133.594 11.8375 134.177 11.5274 134.926 11.5274C136.151 11.5274 136.899 12.4785 136.899 13.9897V17.4277V17.4277ZM143.463 14.8465H139.608C139.633 15.941 140.356 16.5587 141.427 16.5587C141.999 16.5587 142.521 16.4631 142.985 16.2854L143.186 17.1776C142.639 17.4154 141.996 17.5343 141.247 17.5343C139.438 17.5343 138.368 16.392 138.368 14.621C138.368 12.8487 139.464 11.5164 141.102 11.5164C142.577 11.5164 143.506 12.6109 143.506 14.2643C143.51 14.4898 143.498 14.692 143.463 14.8465V14.8465ZM142.285 13.9309C142.285 13.0386 141.834 12.4087 141.013 12.4087C140.274 12.4087 139.693 13.0509 139.608 13.9309H142.285V13.9309Z" fill="white"/>
</g>
<defs>
<clipPath id="clip0">
<rect width="165.373" height="49.0165" fill="white" transform="translate(0.627197 0.961548)"/>
</clipPath>
</defs>
</svg>