<svg width="56" height="65" viewBox="0 0 56 65" fill="none" xmlns="http://www.w3.org/2000/svg">
<g clip-path="url(#clip0)">
<path d="M54.2313 50.5021C53.2513 52.7662 52.0912 54.8502 50.7472 56.7663C48.9152 59.3783 47.4151 61.1864 46.2591 62.1904C44.467 63.8384 42.547 64.6825 40.491 64.7305C39.0149 64.7305 37.2349 64.3105 35.1628 63.4584C33.084 62.6104 31.1735 62.1904 29.4267 62.1904C27.5947 62.1904 25.6298 62.6104 23.5282 63.4584C21.4233 64.3105 19.7277 64.7545 18.4312 64.7985C16.4596 64.8825 14.4944 64.0145 12.5327 62.1904C11.2807 61.0984 9.71465 59.2263 7.8386 56.5743C5.82576 53.7422 4.17092 50.4581 2.87449 46.714C1.48606 42.6699 0.790039 38.7539 0.790039 34.9626C0.790039 30.6197 1.72846 26.874 3.6081 23.7351C5.08534 21.2139 7.05058 19.225 9.51024 17.765C11.9699 16.3049 14.6276 15.5609 17.4896 15.5133C19.0557 15.5133 21.1093 15.9977 23.6614 16.9498C26.2062 17.905 27.8403 18.3894 28.5567 18.3894C29.0923 18.3894 30.9075 17.823 33.9848 16.6937C36.8949 15.6465 39.3509 15.2129 41.363 15.3837C46.8151 15.8237 50.9112 17.973 53.6353 21.8451C48.7592 24.7995 46.3471 28.9376 46.3951 34.2462C46.4391 38.381 47.9391 41.8219 50.8872 44.554C52.2232 45.822 53.7153 46.802 55.3753 47.4981C55.0153 48.5421 54.6353 49.5421 54.2313 50.5021ZM41.727 1.29699C41.727 4.5379 40.543 7.56393 38.1829 10.3648C35.3348 13.6945 31.89 15.6185 28.1543 15.3149C28.1067 14.9261 28.0791 14.5169 28.0791 14.0869C28.0791 10.9756 29.4335 7.64593 31.8388 4.92347C33.0396 3.54504 34.5668 2.39889 36.4189 1.48459C38.2669 0.583929 40.0149 0.0858442 41.659 0.000549316C41.707 0.433809 41.727 0.867096 41.727 1.29695V1.29699Z" fill="white"/>
</g>
<defs>
<clipPath id="clip0">
<rect width="54.5853" height="64.8035" fill="white" transform="translate(0.790039)"/>
</clipPath>
</defs>
</svg>
