<svg width="130" height="25" viewBox="0 0 130 25" fill="none" xmlns="http://www.w3.org/2000/svg">
<g clip-path="url(#clip0)">
<path d="M114.385 0.544312C114.16 0.54425 113.944 0.633589 113.784 0.792694C113.625 0.951798 113.535 1.16765 113.535 1.39281V7.33874H129.244L122.09 0.546153L114.385 0.544312ZM129.82 9.13748C129.82 9.02606 129.798 8.91571 129.755 8.81277C129.713 8.70983 129.65 8.61633 129.571 8.53762C129.493 8.45892 129.399 8.39656 129.296 8.35413C129.193 8.3117 129.082 8.29003 128.971 8.29036H123.026V23.9993L129.817 16.8435L129.82 9.13748ZM121.224 24.5695C121.449 24.5689 121.664 24.4792 121.823 24.32C121.982 24.1609 122.071 23.9453 122.071 23.7205V17.7753H106.362L113.515 24.5679L121.224 24.5695ZM105.788 15.9773C105.788 16.0887 105.81 16.1991 105.853 16.3021C105.895 16.4051 105.958 16.4986 106.037 16.5775C106.115 16.6563 106.209 16.7188 106.312 16.7615C106.415 16.8042 106.525 16.8262 106.637 16.8262H112.583V1.11612L105.789 8.27011L105.788 15.9773Z" fill="white"/>
<path d="M33.7831 3.41089V10.6652H23.6753V3.41089L19.9952 3.40951V21.701H23.6753V13.8429H33.7831V21.701H37.4699V3.41089H33.7831ZM82.7557 3.41089V21.6978L98.9071 21.6969L96.8604 18.4787H86.4487V13.8429H96.5306V10.7417H86.4487V6.55489H96.8434L98.8486 3.41089H82.7557ZM6.31262 3.40859C2.48241 3.40859 0.547852 5.73494 0.547852 9.12271V15.9514C0.547852 19.8707 3.03948 21.7015 6.29282 21.7015L17.8403 21.6992L15.7011 18.3565H7.00551C5.15911 18.3565 4.35481 17.6892 4.35481 15.6216V9.42703C4.35481 7.42802 5.03136 6.64812 7.05477 6.64812H15.7918L17.847 3.40882L6.31262 3.40859ZM66.6015 3.40329C64.3887 3.40329 62.124 4.73175 62.124 8.15106V9.02948C62.124 12.5917 64.3054 13.9531 66.486 13.963H74.1457C74.941 13.963 75.5877 14.0947 75.5877 15.4399L75.5867 16.9947C75.5669 18.2 74.9627 18.4787 74.1183 18.4787H64.0425L61.9783 21.6966H74.354C77.3401 21.6966 79.3661 20.2126 79.3661 16.7813V15.5207C79.3661 12.2041 77.484 10.639 74.5645 10.639H67.2512C66.4397 10.639 65.8755 10.4164 65.8755 9.21548L65.8746 7.95125C65.8746 6.9285 66.2632 6.55489 67.2076 6.55489L76.8029 6.55121L78.809 3.39984L66.6015 3.40329ZM48.1666 3.41365L39.4931 21.6992H43.5931L45.2823 17.9228H54.7067L56.3906 21.6992H60.5069L51.8136 3.41342L48.1666 3.41365ZM49.9843 7.2091L53.3172 14.8104H46.6722L49.9843 7.2091Z" fill="white"/>
</g>
<defs>
<clipPath id="clip0">
<rect width="129.272" height="24.0446" fill="white" transform="translate(0.547852 0.534546)"/>
</clipPath>
</defs>
</svg>
