<svg width="97" height="61" viewBox="0 0 97 61" fill="none" xmlns="http://www.w3.org/2000/svg">
<path d="M49.7895 54.3593C48.1249 54.1213 46.6855 53.2662 45.6676 51.9105C45.2834 51.3988 44.8459 50.5604 44.6452 49.9512C44.3348 49.0089 44.197 47.8646 44.2671 46.811C44.4848 43.5404 46.4642 41.0931 49.4286 40.4293C49.8242 40.3408 49.9777 40.3304 50.8732 40.3313C51.9574 40.3321 52.4098 40.3894 53.237 40.6291C53.9272 40.8291 54.76 41.2189 55.0413 41.4735L55.1372 41.5604V43.1707C55.1372 44.2265 55.1221 44.7904 55.0934 44.8082C55.0693 44.8231 54.9412 44.736 54.8086 44.6149C53.4508 43.374 51.1071 42.8505 49.6036 43.4524C48.7579 43.791 48.0085 44.5507 47.6347 45.4485C47.3529 46.1255 47.3165 46.3382 47.3174 47.3019C47.3181 48.1106 47.3266 48.2079 47.4313 48.6024C47.7349 49.7472 48.4505 50.6743 49.3595 51.1005C49.9358 51.3707 50.164 51.4159 50.9372 51.413C51.5236 51.4107 51.6733 51.3957 52.0032 51.3058L52.3869 51.2011L52.3996 50.6266C52.4217 49.6171 52.2838 48.9708 51.8586 48.0907C51.7227 47.8093 51.4831 47.3878 51.3262 47.1541C51.1694 46.9204 51.0469 46.6998 51.0539 46.6638C51.0653 46.6058 51.2976 46.6 53.0913 46.613C54.2048 46.6211 55.1302 46.6367 55.1478 46.6475C55.1655 46.6584 55.1799 48.1039 55.1799 49.8598V53.0524L55.0513 53.1439C54.8675 53.2749 53.9503 53.7034 53.4743 53.8808C52.9423 54.0791 52.3917 54.2339 51.9179 54.3185C51.3823 54.4141 50.316 54.4345 49.7895 54.3592L49.7895 54.3593ZM63.0896 54.3532C61.6005 54.1272 60.3708 53.4633 59.3919 52.3569C57.8319 50.5936 57.2165 48.1529 57.7 45.6474C58.1802 43.1587 59.9458 41.0973 62.1591 40.4409C62.9053 40.2196 63.9123 40.1599 64.6917 40.2908C66.5526 40.6031 68.218 41.8697 69.1413 43.6747C70.2837 45.9081 70.2429 48.9442 69.0414 51.1061C68.1361 52.7349 66.6165 53.8926 64.8804 54.2761C64.5888 54.3405 63.3557 54.3936 63.0896 54.3532ZM64.6562 51.1723C65.6922 50.7843 66.4252 49.8845 66.7658 48.5829C66.9093 48.0343 66.9475 47.0467 66.8492 46.4262C66.5105 44.2881 64.9101 42.9319 63.1833 43.3196C62.2796 43.5226 61.5661 44.1301 61.0857 45.1056C60.7054 45.8777 60.5673 46.5864 60.6079 47.5573C60.656 48.7083 61.0271 49.6706 61.6965 50.3802C62.1244 50.8338 62.4834 51.0599 63.0469 51.2308C63.4367 51.3491 64.2647 51.319 64.6562 51.1723V51.1723ZM15.9381 54.2367C15.9211 54.1925 21.806 41.2279 22.0426 40.7883C22.0916 40.6974 22.1199 40.6923 22.5822 40.6923C23.0411 40.6923 23.0738 40.6984 23.1328 40.7883C23.1673 40.8411 23.5978 41.7956 24.0895 42.9096C28.0366 51.8516 29.0416 54.1461 29.0416 54.2152C29.0416 54.2751 29.0099 54.2945 28.9119 54.2945C28.4849 54.2945 27.0761 53.8568 26.4614 53.5332C26.2424 53.4179 25.7116 53.0939 25.2818 52.8132C24.8521 52.5324 24.3565 52.2245 24.1806 52.1289C23.2989 51.6498 21.8717 51.2597 20.7694 51.1965L20.3217 51.1708L20.0872 51.6531C19.9582 51.9184 19.7647 52.271 19.6572 52.4367C19.052 53.3697 17.9563 54.0069 16.5707 54.2317C16.0925 54.3092 15.9663 54.3102 15.9381 54.237V54.2367ZM23.3849 47.5402C22.9666 46.589 22.6066 45.8163 22.5851 45.823C22.5297 45.8403 21.4096 48.4261 21.4444 48.4564C21.4601 48.4701 21.6361 48.5153 21.8354 48.5567C22.3842 48.6706 23.1247 48.8951 23.6476 49.106C23.9056 49.21 24.1232 49.2894 24.1311 49.2824C24.139 49.2756 23.8032 48.4914 23.3849 47.5402ZM5.48349 54.1593C5.47204 54.1281 5.45766 51.7712 5.45153 48.9218C5.44294 44.9246 5.42837 43.7141 5.38776 43.6228C5.35881 43.5577 5.18958 43.338 5.01168 43.1346C4.42916 42.4682 3.96995 41.6787 3.81311 41.0737C3.69149 40.6046 3.39415 40.6497 6.60714 40.6497C8.25046 40.6497 9.60162 40.6682 9.85977 40.6942C12.5753 40.9681 14.6026 42.3022 15.5068 44.4106C15.704 44.8703 15.8453 45.3356 15.9592 45.9003C16.0448 46.3247 16.057 46.5116 16.0573 47.4081C16.0578 48.5828 16.0079 48.9497 15.7327 49.7927C15.2729 51.2016 14.4438 52.283 13.1683 53.1379C12.4698 53.6061 11.695 53.9098 10.7491 54.0865C10.2945 54.1714 10.0853 54.1794 7.8815 54.197C5.92919 54.2126 5.50058 54.2059 5.48349 54.1593V54.1593ZM10.1307 51.1178C11.6623 50.7732 12.5984 49.922 12.9724 48.5341C13.0549 48.2279 13.069 48.07 13.0691 47.4508C13.0691 46.6123 12.9964 46.2432 12.716 45.6599C12.3743 44.9487 11.8822 44.458 11.1541 44.1023C10.472 43.7691 9.88645 43.6486 8.85159 43.6284L8.25463 43.6167L8.24362 47.3673C8.23756 49.43 8.24279 51.1445 8.25526 51.1771C8.28628 51.2584 9.70538 51.2135 10.1307 51.1179L10.1307 51.1178ZM30.6131 54.106C30.5789 54.0311 30.5763 52.1817 30.6033 47.3582L30.6406 40.7136L30.9002 40.7011L31.1598 40.6886L35.0032 44.2083C37.1171 46.1441 38.8567 47.7279 38.869 47.7279C38.8813 47.7279 38.8914 46.168 38.8914 44.2613C38.8914 41.6219 38.9036 40.7825 38.9426 40.7435C39.0017 40.6844 41.7312 40.6693 41.823 40.7275C41.8656 40.7546 41.8743 42.1323 41.8657 47.4747L41.8549 54.1879L41.5974 54.2003L41.3398 54.2128L37.508 50.6826C35.4005 48.741 33.6504 47.137 33.6188 47.1182C33.5709 47.0898 33.5614 47.6618 33.5614 50.5793C33.5614 52.5016 33.5498 54.1047 33.5355 54.1418C33.5127 54.2014 33.3448 54.2092 32.0849 54.2092H30.6601L30.6131 54.106ZM75.0343 54.1136C75.0202 54.0608 75.0083 51.6719 75.008 48.8049L75.0074 43.5922H73.1397C71.744 43.5922 71.2592 43.5792 71.2209 43.541C71.1833 43.5033 71.1698 43.137 71.1698 42.1582C71.1698 41.0045 71.1787 40.8177 71.2368 40.7596C71.297 40.6994 71.8337 40.6927 76.5135 40.6933C79.3788 40.6936 81.7474 40.7093 81.777 40.7281C81.8191 40.7548 81.8285 41.0715 81.8197 42.1665L81.8085 43.5708L79.9217 43.5819L78.0349 43.593V48.8338C78.0349 51.7163 78.0232 54.105 78.0089 54.1421C77.9861 54.2018 77.8149 54.2095 76.5215 54.2095H75.06L75.0343 54.1136ZM84.0983 54.1583C84.0302 54.0903 84.0233 40.902 84.0914 40.7751C84.1346 40.6944 84.2278 40.6926 88.4514 40.6933C90.8396 40.6936 92.7934 40.7106 92.826 40.7312C92.9076 40.7829 92.86 41.0684 92.6762 41.6303C92.3128 42.7412 91.6668 43.4103 90.8262 43.5467C90.6649 43.5729 89.8092 43.5917 88.7697 43.5918L86.9895 43.5923V44.7432V45.8941L89.2174 45.9052L91.4453 45.9162V47.3233V48.7305L89.2174 48.7415L86.9895 48.7526V50.0101V51.2676H89.5448C91.811 51.2676 92.1077 51.2752 92.1672 51.3346C92.2252 51.3926 92.2342 51.5786 92.2342 52.7232C92.2342 53.5527 92.2178 54.0755 92.19 54.1273C92.1469 54.2079 92.057 54.2098 88.1478 54.2098C85.095 54.2098 84.1376 54.1977 84.0985 54.1586L84.0983 54.1583ZM24.6312 37.2248C24.5591 37.1722 24.5716 37.1475 24.8091 36.8731C25.2004 36.4209 26.6115 35.0529 27.2081 34.5474C29.1441 32.9068 31.5105 31.402 33.7746 30.3717C36.4277 29.1644 39.1762 28.347 42.0107 27.9223C42.4175 27.8614 42.7904 27.8032 42.8393 27.7931C42.8997 27.7806 42.9777 27.6748 43.0817 27.4646C43.2687 27.0867 43.4845 26.8277 43.7346 26.6811L43.9229 26.5708V26.2385C43.9229 26.0042 43.8899 25.7947 43.811 25.5283C43.5938 24.7948 43.537 24.55 43.5063 24.2141L43.4752 23.8747L43.3053 24.1656C43.1028 24.5122 42.7281 24.9313 42.3837 25.1963C41.9655 25.5181 41.9123 25.5316 41.0661 25.5303C39.6325 25.528 38.4611 25.2828 37.4203 24.7672C36.9208 24.5197 36.7037 24.3552 36.7254 24.2404C36.7347 24.1909 36.9298 24.1048 37.378 23.9525C38.232 23.6622 38.6661 23.4788 39.3984 23.099C41.6379 21.9371 43.1376 20.2781 43.8122 18.2163C44.0714 17.4241 44.2169 16.4429 44.087 16.3626C44.0117 16.3161 43.9459 16.4366 43.775 16.9336C43.4283 17.942 42.7932 18.787 41.8512 19.493C41.4179 19.8178 40.6307 20.2682 40.4963 20.2682C40.4087 20.2682 40.4064 20.1487 40.4873 19.7911C40.6057 19.2681 40.6237 18.6456 40.5205 18.6488C40.5039 18.6493 40.4137 18.7586 40.3199 18.8918C40.0685 19.2485 38.9459 20.3862 38.3608 20.877C37.1807 21.867 35.8568 22.7642 34.7732 23.3084C34.3158 23.538 33.6546 23.805 33.4701 23.8345C33.2479 23.87 33.2535 23.8251 33.5381 23.2873C34.0556 22.3092 34.8094 20.3866 35.0479 19.4367C35.1185 19.1553 35.2164 18.7139 35.2653 18.456C35.3572 17.9716 35.5221 16.8028 35.5018 16.7803C35.4954 16.7734 35.3633 16.8636 35.2081 16.9811C34.9067 17.2092 34.6133 17.3289 34.5386 17.2543C34.47 17.1857 34.4859 15.5817 34.5613 14.9702C34.727 13.6261 35.05 12.5498 35.6329 11.3991C36.4014 9.88218 37.5174 8.66072 38.612 8.13859C39.093 7.90912 39.2986 7.85995 39.7767 7.85995C40.2207 7.85995 40.4914 7.93039 40.9381 8.16203C41.4808 8.44344 41.8863 8.82695 42.1137 9.27385L42.2148 9.47252L41.9984 9.74288C41.4668 10.4068 41.3035 11.0654 41.4898 11.7939C41.5951 12.2054 41.7087 12.4263 41.9448 12.6788C42.2165 12.9693 42.563 13.1156 43.0347 13.139C43.3884 13.1566 43.9391 13.0743 44.0863 12.9818C44.1316 12.9533 44.1127 12.8574 43.992 12.5031C43.7941 11.9223 43.7357 11.527 43.7662 10.9727C43.8051 10.2641 44.026 9.536 44.3776 8.9571L44.5359 8.69663L44.4106 8.60875C44.0184 8.33354 43.4151 7.47607 43.6138 7.4762C43.6314 7.47622 43.7513 7.51817 43.8803 7.56941C44.0608 7.64114 44.2081 7.66321 44.5199 7.66532C44.9735 7.66835 45.0146 7.6532 45.6179 7.25798C46.0357 6.98431 46.7067 6.66001 47.1209 6.53158C47.3692 6.4546 47.5409 6.4323 47.8884 6.43196C48.2922 6.43154 48.3599 6.44317 48.5775 6.55004C48.8551 6.68634 49.0751 6.91153 49.2307 7.21848C49.3122 7.37937 49.3787 7.44931 49.4971 7.49879C49.8039 7.62701 49.9626 7.86983 50.0043 8.27516C50.0301 8.52656 49.9657 8.99771 49.896 9.06746C49.8726 9.09086 49.792 9.05557 49.6936 8.97877C49.2323 8.61888 48.5785 8.69168 48.158 9.14976C48.0089 9.31213 47.7736 9.68522 47.813 9.69688C47.8193 9.69839 47.978 9.7074 48.1656 9.71604C49.2946 9.76807 50.1358 10.5214 50.6562 11.9461C50.7219 12.126 50.8088 12.4171 50.8493 12.593C50.9554 13.0537 50.936 13.0228 51.0863 12.9704C51.2925 12.8985 51.6535 12.5405 51.7798 12.2825C52.0235 11.7848 52.0641 11.1153 51.8822 10.5922C51.7755 10.2854 51.4978 9.8129 51.3406 9.67062C51.1804 9.5257 51.2328 9.42976 51.7383 8.94235C52.5115 8.19686 53.0405 7.95067 53.9502 7.91297C54.5238 7.88919 54.8695 7.95008 55.4152 8.17096C57.0264 8.82313 58.6359 11.155 59.2696 13.7553C59.4697 14.5767 59.5335 15.0964 59.5594 16.1169C59.5856 17.1526 59.5724 17.2834 59.4418 17.2834C59.3217 17.2834 58.8791 17.0532 58.7045 16.8999C58.6242 16.8294 58.5441 16.7717 58.5265 16.7717C58.509 16.7717 58.5047 17.1315 58.517 17.5712C58.5418 18.4544 58.6117 18.9292 58.8919 20.1189C59.2795 21.7646 59.5671 22.6786 59.9393 23.4468C60.1345 23.85 60.1528 23.9137 60.085 23.9556C60.0194 23.9962 59.4378 23.7838 58.9653 23.5467C58.0397 23.0822 57.1047 22.4182 55.9096 21.3768C55.1432 20.7089 54.2421 19.4535 53.5728 18.1208C53.3784 17.7337 53.328 17.6616 53.3007 17.7311C53.2462 17.8693 53.2565 18.3797 53.3247 18.9266C53.3597 19.2072 53.3885 19.4991 53.3887 19.5753C53.3891 19.6998 53.3765 19.7139 53.2656 19.7139C53.0719 19.7139 52.5897 19.5512 52.2164 19.3601C51.971 19.2343 51.7811 19.092 51.5397 18.8526C51.3551 18.6697 51.2013 18.5199 51.1981 18.5199C51.1948 18.5199 51.1993 18.9326 51.208 19.4369C51.2449 21.5664 50.9329 23.0956 50.108 24.8275C49.8025 25.4688 49.722 25.7549 49.722 26.1988V26.4427L50.0311 26.5355C50.8095 26.7692 51.4078 27.2018 51.5114 27.606C51.538 27.7095 51.5661 27.814 51.574 27.8382C51.5819 27.8624 51.7584 27.9068 51.9663 27.9369C52.4426 28.0057 53.4801 28.2051 54.0926 28.3455C58.8547 29.4369 63.1149 31.5513 66.7201 34.613C67.4616 35.2427 69.2511 37.0365 69.2511 37.1502C69.2511 37.2788 69.0749 37.3045 68.7206 37.2276C68.2825 37.1326 67.7514 36.9249 66.1597 36.2264C63.5227 35.0691 62.2631 34.5681 60.5525 33.9962C52.7201 31.3775 44.6894 31.0928 36.5033 33.1436C33.8519 33.8078 31.5715 34.6093 28.0396 36.1182C26.2703 36.8741 25.7517 37.0786 25.3132 37.1931C24.9206 37.2957 24.7395 37.3041 24.6312 37.2249L24.6312 37.2248ZM47.6276 27.3691C47.7575 27.0755 47.9633 26.8002 48.1587 26.6587C48.3921 26.4895 48.4062 26.4578 48.4051 26.1041C48.4039 25.7205 48.3186 25.4669 48.0547 25.0627C47.6605 24.4588 47.3109 23.668 47.1652 23.0504C47.1362 22.9273 47.0975 22.8266 47.0794 22.8266C47.0612 22.8266 46.9844 23.004 46.9087 23.221C46.7515 23.6717 46.484 24.228 46.3194 24.4469C46.2576 24.529 46.0139 24.8264 45.7778 25.1078C45.5418 25.3892 45.3207 25.6866 45.2865 25.7687C45.2524 25.8508 45.2242 26.0321 45.2239 26.1715L45.2235 26.4251L45.5509 26.4762C45.9953 26.5455 46.3756 26.6779 46.6381 26.8547C46.8752 27.0143 46.9886 27.1504 47.0926 27.3997C47.1556 27.5509 47.1696 27.5596 47.3513 27.5596C47.5377 27.5596 47.5458 27.5543 47.6276 27.3691L47.6276 27.3691Z" fill="white"/>
<path d="M49.8715 54.3345C48.0866 54.0935 46.4986 53.1078 45.5072 51.6255C44.1626 49.6152 43.9014 46.7439 44.8483 44.3826C45.7203 42.208 47.5596 40.7417 49.8502 40.3951C50.3024 40.3267 51.4026 40.3362 51.9884 40.4137C53.1214 40.5635 54.1791 40.9298 54.9137 41.4268L55.0949 41.5494V43.1463C55.0949 44.8698 55.0953 44.867 54.8785 44.6306C54.5212 44.241 53.6441 43.7311 52.9142 43.4887C52.2577 43.2707 51.8999 43.2055 51.2122 43.1787C50.2391 43.1409 49.6676 43.2903 48.9494 43.7707C48.1776 44.287 47.6434 45.079 47.365 46.1198C47.2826 46.4279 47.2717 46.5731 47.2744 47.323C47.2772 48.1027 47.287 48.2116 47.3891 48.5927C47.7076 49.7825 48.3811 50.6648 49.3172 51.1187C49.9074 51.4048 50.1497 51.457 50.8949 51.458C51.5373 51.4587 51.945 51.3978 52.3077 51.2463L52.4512 51.1863V50.618C52.4512 49.9221 52.3968 49.4649 52.2557 48.9756C52.0854 48.385 51.6535 47.5257 51.2492 46.9731C50.9575 46.5743 50.8105 46.6016 53.0781 46.6338C54.1733 46.6494 55.0848 46.6776 55.1037 46.6965C55.1226 46.7153 55.1332 48.1592 55.1272 49.9051L55.1162 53.0794L54.5157 53.3778C53.6007 53.8326 52.7521 54.1271 51.9396 54.2719C51.4625 54.357 50.2987 54.3922 49.8715 54.3344L49.8715 54.3345ZM62.8169 54.2712C60.34 53.838 58.2664 51.6591 57.7385 48.9348C57.399 47.1828 57.6123 45.3613 58.3309 43.876C59.2568 41.9623 60.9043 40.6596 62.8096 40.3346C63.3179 40.2479 64.1626 40.2468 64.6889 40.3324C66.0027 40.5453 67.3213 41.3062 68.2216 42.3709C69.4177 43.7854 69.9988 45.5812 69.9206 47.6218C69.8406 49.7109 69.1243 51.3853 67.7477 52.7011C66.9326 53.4802 65.9844 53.9875 64.8808 54.2349C64.4526 54.3309 63.2758 54.3517 62.8169 54.2714V54.2712ZM64.6566 51.215C65.7116 50.8205 66.4671 49.8962 66.8079 48.583C66.9554 48.0144 66.9913 47.0302 66.8871 46.407C66.6996 45.2862 66.24 44.4406 65.4896 43.8361C64.9588 43.4085 64.2214 43.1725 63.5725 43.2225C61.7511 43.363 60.4562 45.2312 60.568 47.5575C60.6465 49.1908 61.3872 50.5049 62.5531 51.0792C63.0018 51.3003 63.2663 51.3524 63.8574 51.3364C64.2771 51.3249 64.4208 51.3031 64.6566 51.215ZM16.0047 54.1347C16.0252 54.0158 21.9599 41.0075 22.0741 40.8311C22.1323 40.7412 22.1658 40.7351 22.6032 40.7351H23.0701L23.135 40.8605C23.2756 41.1325 28.9706 54.0662 28.9893 54.1561C29.0068 54.2405 28.992 54.252 28.8657 54.2519C28.4739 54.2519 27.0907 53.8169 26.4835 53.5029C26.2842 53.3998 25.7373 53.0643 25.2683 52.7573C24.0326 51.9485 23.428 51.6754 22.2195 51.3801C21.7207 51.2582 20.8883 51.1393 20.5334 51.1393H20.3013L20.019 51.7043C19.8638 52.015 19.6548 52.3843 19.5547 52.5251C19.0784 53.1944 18.3145 53.7139 17.3698 54.0108C17.0277 54.1184 16.3295 54.252 16.1097 54.252C15.9966 54.252 15.9864 54.2406 16.0047 54.1347ZM24.1682 49.2615C24.1103 49.0402 22.6198 45.7257 22.5835 45.7378C22.534 45.7542 21.3524 48.4528 21.3819 48.4823C21.3932 48.4937 21.6104 48.548 21.8643 48.6031C22.482 48.7371 23.2173 48.9639 23.7119 49.1731C24.185 49.3732 24.1981 49.3757 24.1682 49.2615ZM5.52539 54.1134C5.51481 54.0841 5.50102 51.7384 5.49475 48.9007C5.48453 44.2729 5.47632 43.7259 5.415 43.592C5.3774 43.5099 5.20913 43.2917 5.04106 43.107C4.69768 42.7296 4.35041 42.2246 4.12844 41.7798C3.96546 41.4532 3.79909 40.9555 3.79909 40.7946V40.6925H6.63632C8.3192 40.6925 9.64202 40.7107 9.88762 40.7371C12.4033 41.0082 14.2098 42.0978 15.2568 43.9758C15.5937 44.5801 15.8986 45.5862 15.995 46.4115C16.0711 47.0632 16.0272 48.4287 15.9122 48.986C15.5512 50.7362 14.6486 52.0955 13.2035 53.0654C12.2926 53.6766 11.4362 53.9753 10.1738 54.1219C9.59317 54.1893 5.55015 54.182 5.52539 54.1134L5.52539 54.1134ZM10.096 51.1648C10.5501 51.0717 11.1079 50.8654 11.4492 50.6641C11.8465 50.4298 12.4366 49.8389 12.6409 49.4708C13.12 48.6073 13.2641 47.3947 13.0103 46.3636C12.9014 45.9212 12.6119 45.3178 12.3511 44.9897C11.6108 44.0583 10.3524 43.5679 8.78796 43.6011L8.21232 43.6133L8.20143 47.3823C8.1929 50.3338 8.20207 51.1651 8.24346 51.2151C8.2883 51.2691 8.41055 51.2749 9.04319 51.2532C9.45394 51.2391 9.9277 51.1993 10.096 51.1648L10.096 51.1648ZM30.6457 54.0998C30.6118 54.0116 30.6126 40.9574 30.6465 40.8311C30.6693 40.746 30.6994 40.7351 30.9124 40.7351H31.1527L34.9902 44.2513C37.1009 46.1852 38.8517 47.7682 38.8809 47.7691C38.9227 47.7706 38.9363 47.0274 38.9449 44.2636L38.9558 40.7565H40.3842H41.8126L41.834 47.4083C41.8457 51.0668 41.8481 54.0849 41.8393 54.1153C41.8281 54.1543 41.7501 54.1668 41.5734 54.1579L41.3233 54.1454L37.4802 50.6063C35.3665 48.6598 33.6106 47.061 33.5784 47.0534C33.529 47.0418 33.5179 47.6019 33.5088 50.5925L33.4979 54.1454L32.0849 54.1566C30.8241 54.1666 30.669 54.1604 30.6458 54.0998L30.6457 54.0998ZM75.0828 54.1566C75.0772 54.1506 75.0628 51.7661 75.0508 48.8581L75.0291 43.5707L73.1316 43.5494L71.2341 43.5281L71.2229 42.18C71.2137 41.0798 71.2224 40.823 71.2701 40.7834C71.3132 40.7476 72.695 40.7377 76.5474 40.7457L81.7662 40.7565V42.1423V43.5281L79.89 43.5494L78.0139 43.5707L77.9926 48.858L77.9712 54.1454L76.5321 54.1566C75.7406 54.1626 75.0884 54.1626 75.0828 54.1566V54.1566ZM84.1185 54.1383C84.1029 54.1227 84.0901 51.1221 84.0901 47.4704C84.0901 41.9286 84.0996 40.823 84.148 40.7828C84.1904 40.7477 85.3645 40.7377 88.5079 40.7456L92.81 40.7565L92.7991 40.9636C92.7845 41.2437 92.5169 42.0341 92.3258 42.3618C91.9636 42.9827 91.4263 43.3986 90.8513 43.5033C90.6957 43.5316 89.8955 43.5494 88.772 43.5494H86.9456L86.957 44.7326L86.9683 45.9159L89.1968 45.9269L91.4254 45.938L91.4142 47.3127L91.4029 48.6875L89.1856 48.7088L86.9683 48.7301L86.957 50.0199L86.9458 51.3098H89.5176C91.461 51.3098 92.1019 51.3223 92.1405 51.361C92.1781 51.3985 92.1917 51.7601 92.1917 52.722C92.1917 53.4424 92.1801 54.0621 92.1658 54.0992C92.1425 54.1601 91.7484 54.1666 88.1435 54.1666C85.9454 54.1666 84.1342 54.1539 84.1186 54.1383L84.1185 54.1383ZM24.65 37.1591C24.65 37.1077 25.552 36.1621 26.1424 35.5946C30.3617 31.5385 36.2454 28.7609 42.4016 27.9188L42.9479 27.844L43.072 27.5704C43.2485 27.1813 43.4631 26.9078 43.7325 26.729L43.9659 26.5741V26.24C43.9659 26.0031 43.9332 25.7961 43.8535 25.5281C43.7917 25.3203 43.7043 25.0255 43.6593 24.8731C43.6143 24.7206 43.5637 24.3944 43.5467 24.1482L43.5159 23.7005L43.3831 23.9566C43.0988 24.5048 42.568 25.0724 42.0609 25.3705L41.8552 25.4914L41.0451 25.4876C39.5996 25.4815 38.3841 25.2232 37.3658 24.706C37.0434 24.5423 36.7597 24.3324 36.7597 24.2577C36.7597 24.2186 36.9492 24.1346 37.3034 24.0169C39.8748 23.1626 41.7472 21.8682 42.906 20.1438C43.4368 19.3538 43.7871 18.5646 44.01 17.6559C44.2052 16.8606 44.231 16.3021 44.0727 16.3021C43.9787 16.3021 43.9024 16.4466 43.7153 16.9789C43.272 18.2401 42.2611 19.3415 40.894 20.0528C40.4883 20.2638 40.4538 20.2666 40.4811 20.0864C40.4926 20.0102 40.535 19.7392 40.5753 19.4842C40.6456 19.039 40.6369 18.562 40.5585 18.562C40.5406 18.562 40.4038 18.7203 40.2545 18.9138C38.9328 20.6275 35.966 22.8443 33.9138 23.6517C33.5325 23.8017 33.3485 23.8416 33.3485 23.7744C33.3485 23.7566 33.4793 23.4832 33.639 23.1668C34.2003 22.0553 34.8567 20.368 35.0916 19.433C35.3071 18.575 35.5976 16.8144 35.5392 16.72C35.5275 16.701 35.4177 16.7671 35.2951 16.8669C35.0163 17.0939 34.7035 17.262 34.6197 17.2299C34.4702 17.1725 34.4983 15.5379 34.6665 14.5049C34.8429 13.4212 35.1273 12.5238 35.6036 11.5478C36.4922 9.72689 37.9153 8.28928 39.1513 7.96393C39.5022 7.87156 40.046 7.8722 40.3684 7.96545C41.0299 8.15665 41.7698 8.71021 42.039 9.21524L42.1735 9.46766L41.9543 9.74023C41.473 10.3385 41.2887 10.9951 41.4179 11.6507C41.5567 12.3552 41.8559 12.7847 42.3818 13.0338C42.6526 13.1621 42.6884 13.168 43.177 13.1651C43.5669 13.1628 43.7446 13.1425 43.9232 13.0798C44.2002 12.9827 44.2002 12.9827 44.0178 12.4646C43.8406 11.9613 43.7789 11.5294 43.806 10.982C43.8408 10.28 44.0615 9.54774 44.4126 8.96977C44.5655 8.71815 44.5947 8.62701 44.5226 8.62701C44.368 8.62701 43.5764 7.67382 43.6423 7.56706C43.657 7.54335 43.7603 7.56328 43.8913 7.61569C44.0605 7.68302 44.214 7.70546 44.5202 7.70754C44.9739 7.71057 45.0149 7.69542 45.6182 7.30019C46.0351 7.02715 46.7061 6.70264 47.1212 6.57333C47.5876 6.42806 48.2484 6.43036 48.549 6.57863C48.8169 6.71043 49.0755 6.97455 49.2027 7.24606C49.2847 7.42104 49.3382 7.474 49.5224 7.56211C49.6911 7.64285 49.7689 7.7135 49.8502 7.85985C49.9443 8.02932 49.9567 8.10206 49.9563 8.48281C49.9557 9.03356 49.9121 9.10578 49.6862 8.92981C49.2426 8.58429 48.5797 8.65315 48.157 9.08868C47.9712 9.28014 47.7426 9.67203 47.7808 9.73372C47.7946 9.75607 47.8965 9.76403 48.0072 9.75145C48.2792 9.72047 48.786 9.83282 49.1253 9.99928C49.8462 10.3529 50.5149 11.372 50.7927 12.5402C50.8998 12.9907 50.926 13.0447 51.0285 13.0265C51.1867 12.9983 51.515 12.751 51.6646 12.5473C51.8879 12.2431 51.9923 11.9154 52.0157 11.4459C52.0478 10.7979 51.8818 10.281 51.4848 9.79366C51.3425 9.61896 51.2989 9.53298 51.3166 9.46245C51.3544 9.31174 52.1411 8.57803 52.482 8.37559C52.9595 8.09201 53.358 7.9792 53.965 7.95588C54.5534 7.93323 54.9909 8.01473 55.4935 8.24053C57.0731 8.95024 58.6529 11.2952 59.2443 13.8081C59.4373 14.6281 59.4938 15.1197 59.5175 16.1846C59.5381 17.11 59.5338 17.199 59.4676 17.2244C59.3668 17.2631 58.9995 17.0849 58.7296 16.8663C58.5445 16.7164 58.4996 16.6962 58.478 16.7527C58.4634 16.7905 58.4622 17.17 58.4753 17.596C58.5041 18.5343 58.5832 19.0163 58.9579 20.5346C59.3587 22.1586 59.5402 22.7169 59.9225 23.5008C60.0356 23.7328 60.0809 23.8697 60.0535 23.8972C59.9941 23.9566 59.4207 23.7393 58.8355 23.4357C57.4211 22.7016 55.6525 21.229 54.804 20.0788C54.3965 19.5265 53.9192 18.7346 53.5752 18.0401C53.4387 17.7646 53.3139 17.5391 53.2978 17.5391C53.1962 17.5391 53.2208 18.6159 53.3392 19.3532C53.382 19.6195 53.366 19.6711 53.241 19.6711C53.0708 19.6711 52.571 19.4989 52.2321 19.3235C51.8777 19.14 51.4454 18.7765 51.2979 18.538C51.2468 18.4552 51.1929 18.3995 51.1782 18.4142C51.1634 18.4289 51.1573 18.9144 51.1645 19.4931C51.1909 21.615 50.8891 23.0981 50.09 24.7731C49.7507 25.4843 49.6596 25.8221 49.6877 26.2648C49.7008 26.4704 49.7026 26.4727 49.8928 26.5294C50.5716 26.7319 51.0705 27.0067 51.3135 27.312C51.3826 27.3987 51.4619 27.5712 51.4899 27.6955L51.5408 27.9214L52.2198 28.0366C57.938 29.0075 63.006 31.3877 67.098 35.0244C67.7505 35.6043 69.2186 37.103 69.1859 37.1559C69.1722 37.178 69.0834 37.1961 68.9885 37.1961C68.5957 37.1961 68.0231 36.9846 65.9894 36.0879C62.3095 34.4653 60.0783 33.6708 57.2011 32.9583C54.8181 32.3681 52.6772 32.0337 49.8928 31.8166C48.9524 31.7432 45.457 31.742 44.5202 31.8151C41.4519 32.0531 39.2092 32.4058 36.576 33.0644C33.782 33.7632 31.6097 34.527 27.902 36.1145C26.4421 36.7395 25.8107 36.9898 25.375 37.1161C25.09 37.1988 24.65 37.2251 24.65 37.1595L24.65 37.1591ZM47.7083 27.3037C47.8395 27.0244 47.9951 26.835 48.3087 26.5729C48.4373 26.4654 48.4431 26.447 48.4431 26.1436C48.4431 25.7185 48.3643 25.4787 48.0745 25.0223C47.7227 24.4681 47.447 23.8637 47.2625 23.2421C47.1737 22.9431 47.0881 22.6984 47.0722 22.6984C47.0564 22.6984 47.002 22.828 46.9514 22.9863C46.6855 23.8181 46.3783 24.3516 45.73 25.1076C45.2578 25.6583 45.1883 25.7936 45.1843 26.1709L45.1811 26.4667L45.524 26.5162C46.1881 26.6122 46.6864 26.8464 46.9306 27.1773C46.9885 27.2559 47.036 27.3343 47.036 27.3517C47.036 27.369 47.0547 27.4325 47.0775 27.4927C47.115 27.5912 47.1415 27.6019 47.344 27.6012L47.569 27.6004L47.7083 27.3038L47.7083 27.3037Z" fill="white"/>
<path d="M49.6157 54.2709C48.8184 54.1228 48.1503 53.8757 47.4861 53.4834C45.5023 52.3117 44.3071 50.0115 44.3071 47.3656C44.3071 44.0187 46.2313 41.3128 49.142 40.5664C50.4801 40.2233 52.1568 40.3128 53.5957 40.8042C53.9818 40.9361 54.7918 41.3404 54.9698 41.4901L55.095 41.5955V43.1409C55.095 43.9909 55.0818 44.6996 55.0657 44.7157C55.0495 44.7318 54.968 44.6794 54.8844 44.5993C54.2413 43.9825 53.2115 43.48 52.1102 43.2456C51.4747 43.1104 50.5293 43.1096 50.0421 43.2441C48.1113 43.7766 46.9722 45.6944 47.2515 47.9424C47.4779 49.7653 48.5413 51.0713 50.0848 51.4223C50.7146 51.5655 51.7546 51.4952 52.3388 51.2701L52.4609 51.2231L52.4402 50.3391C52.4228 49.5999 52.4042 49.4027 52.3267 49.1353C52.1223 48.4302 51.8449 47.8379 51.4025 47.1617C51.2523 46.9322 51.1295 46.7258 51.1295 46.7029C51.1295 46.6763 51.8408 46.6653 53.1015 46.6724L55.0736 46.6834V49.8796V53.0758L54.5833 53.3234C53.7224 53.758 52.8628 54.0668 52.0462 54.2348C51.5605 54.3347 50.0776 54.3568 49.6157 54.2709V54.2709ZM63.1113 54.2926C60.9047 54.0194 58.9898 52.4239 58.0991 50.1165C57.7917 49.3202 57.6528 48.5795 57.6228 47.5764C57.5805 46.163 57.8087 45.0091 58.3559 43.869C58.9796 42.5695 60.1835 41.345 61.3681 40.8051C61.7819 40.6165 62.4056 40.4187 62.8128 40.3468C63.276 40.2651 64.3274 40.2747 64.782 40.3649C67.1374 40.832 69.0235 42.7018 69.6505 45.1914C69.9473 46.3699 69.9818 47.8544 69.7399 49.0286C69.2558 51.3773 67.6914 53.2577 65.5944 54.0114C64.8999 54.2609 63.8323 54.3818 63.1113 54.2926ZM64.3253 51.3307C65.587 51.0634 66.5555 49.929 66.8912 48.325C66.9847 47.8782 66.9955 46.8313 66.9113 46.3636C66.6239 44.7656 65.6638 43.5859 64.3916 43.2675C63.9802 43.1645 63.2291 43.2026 62.8451 43.3459C62.0161 43.6553 61.3163 44.3559 60.9304 45.2627C60.3919 46.5282 60.4101 48.2081 60.9754 49.4144C61.6517 50.8575 62.9778 51.6161 64.3253 51.3307ZM28.5355 54.1846C27.8455 54.0318 26.9375 53.7173 26.4588 53.4653C26.2693 53.3656 25.7546 53.0487 25.315 52.761C24.2725 52.0789 23.855 51.8635 23.0802 51.6081C22.2198 51.3245 21.5201 51.1827 20.8306 51.1523L20.2731 51.1278L20.0314 51.6266C19.8985 51.9009 19.7064 52.2537 19.6046 52.4105C19.0414 53.2778 17.992 53.9093 16.725 54.1435C16.3619 54.2106 15.9942 54.2305 15.9942 54.1831C15.9942 54.1137 22.1016 40.7978 22.1466 40.7693C22.2401 40.7098 23.0143 40.729 23.0667 40.7922C23.1283 40.8664 28.9635 54.0827 28.9717 54.1667C28.9802 54.2523 28.8627 54.2572 28.5355 54.1846ZM24.2237 49.3432C24.2237 49.2369 22.626 45.6809 22.5843 45.6945C22.531 45.712 21.3668 48.3556 21.3668 48.4593C21.3668 48.5103 21.4185 48.539 21.548 48.5596C22.1351 48.6533 23.222 48.9817 23.8612 49.2586C24.1971 49.4041 24.2237 49.4103 24.2237 49.3432ZM5.56055 54.1134C5.54157 54.0841 5.51646 51.7191 5.50473 48.858C5.48691 44.509 5.47363 43.6387 5.42378 43.551C5.39098 43.4932 5.22175 43.2831 5.0477 43.084C4.65131 42.6306 4.31711 42.1308 4.10109 41.6684C3.90661 41.2521 3.77433 40.7855 3.83391 40.7259C3.89368 40.6661 9.65778 40.7105 10.0885 40.7739C12.2466 41.0923 13.7807 41.9133 14.7966 43.2935C15.0998 43.7054 15.5125 44.5166 15.6737 45.0176C16.0365 46.1453 16.1275 47.5966 15.9132 48.8376C15.6614 50.2955 14.9276 51.6221 13.8694 52.5325C12.7114 53.5288 11.5525 53.9857 9.83268 54.1241C9.03592 54.1882 5.60341 54.1796 5.56055 54.1134V54.1134ZM9.98192 51.1951C10.4978 51.1117 11.0135 50.9363 11.4266 50.7038C11.8882 50.444 12.461 49.8613 12.6974 49.4111C13.2861 48.2896 13.3025 46.6859 12.7367 45.5624C12.4115 44.9165 11.9169 44.4219 11.2611 44.0865C10.549 43.7224 9.93923 43.591 8.90565 43.5788L8.21237 43.5706V47.4082V51.2458L8.48953 51.2713C8.86706 51.3061 9.4938 51.2744 9.98193 51.1951H9.98192ZM30.6913 54.1388C30.6753 54.1228 30.6623 51.1121 30.6623 47.4483C30.6623 41.4133 30.6686 40.7844 30.7297 40.761C30.8562 40.7124 31.0695 40.7349 31.1751 40.8079C31.2729 40.8755 32.5152 42.0082 37.0688 46.1818C38.0479 47.0791 38.8654 47.8133 38.8855 47.8133C38.9607 47.8133 38.9765 47.155 38.9768 44.0071L38.9772 40.7766L40.395 40.7878L41.8127 40.799V47.4722V54.1453L41.628 54.1585C41.5101 54.167 41.4053 54.1469 41.338 54.1028C41.28 54.0649 39.5155 52.4519 37.4167 50.5184C35.3179 48.585 33.5824 47.0031 33.56 47.0031C33.535 47.0031 33.5169 47.5042 33.5132 48.293C33.51 49.0024 33.4956 50.6094 33.4813 51.8641L33.4552 54.1453L32.0877 54.1565C31.3356 54.1626 30.7072 54.155 30.6913 54.1387L30.6913 54.1388ZM75.1221 54.1388C75.1061 54.1228 75.0931 51.7444 75.0931 48.8534C75.0931 45.9055 75.0767 43.5869 75.0559 43.574C75.0354 43.5613 74.1958 43.5498 73.1901 43.5485C72.1844 43.547 71.3374 43.531 71.3079 43.5128C71.2662 43.4871 71.2568 43.1803 71.2655 42.1394L71.2768 40.7991H76.5215H81.7662L81.7775 42.153C81.7836 42.8975 81.7836 43.5111 81.7775 43.5163C81.7715 43.5216 80.9124 43.5359 79.8688 43.5483L77.9713 43.5707L77.95 48.858L77.9287 54.1454L76.54 54.1566C75.7761 54.1627 75.1381 54.1551 75.1222 54.1389L75.1221 54.1388ZM84.1614 54.1383C84.1456 54.1227 84.1328 51.1101 84.1328 47.4437V40.7777H88.4607H92.7887V40.8976C92.7887 41.0693 92.6382 41.62 92.5049 41.9359C92.3416 42.3228 91.9706 42.871 91.749 43.0525C91.516 43.2435 91.206 43.4025 90.9533 43.4607C90.839 43.4871 90.0136 43.505 88.8817 43.5056C87.3398 43.5063 86.9913 43.5172 86.9515 43.5651C86.9172 43.6065 86.9063 43.9598 86.9143 44.7697L86.9257 45.9158L89.1643 45.938C90.3955 45.9503 91.408 45.9647 91.4141 45.97C91.4202 45.9753 91.4202 46.5793 91.4141 47.3122L91.4029 48.6447L89.2108 48.6557C87.6785 48.6635 87.0015 48.6811 86.9615 48.7143C86.8776 48.784 86.8777 51.2345 86.9615 51.3042C87.0019 51.3377 87.7729 51.3549 89.5732 51.3627L92.1277 51.3737V52.7595V54.1453L88.1588 54.1562C85.976 54.1623 84.1771 54.1539 84.1613 54.1384L84.1614 54.1383ZM24.6927 37.1344C24.6927 37.0107 26.2759 35.4248 27.1232 34.6998C31.2682 31.153 36.3539 28.8561 41.9832 27.9884C42.4522 27.9162 42.8744 27.8484 42.9213 27.8379C42.9778 27.8253 43.0317 27.748 43.0813 27.6083C43.1897 27.3032 43.5077 26.8934 43.7559 26.7391C43.8854 26.6586 43.978 26.5668 43.994 26.5031C44.045 26.2999 43.9682 25.8252 43.7924 25.2568C43.6363 24.7521 43.6118 24.6168 43.5931 24.1588C43.5815 23.8715 43.5564 23.6365 43.5375 23.6365C43.5186 23.6365 43.4537 23.7444 43.3933 23.8764C43.097 24.5237 42.2995 25.3253 41.8474 25.4302C41.6223 25.4825 40.5524 25.4794 40.0521 25.4249C38.8761 25.2972 37.7495 24.9494 37.0482 24.4978C36.9135 24.4109 36.803 24.3089 36.8028 24.271C36.8026 24.2209 36.9217 24.1644 37.2395 24.0642C39.7915 23.2588 41.8465 21.8274 42.996 20.0546C43.6275 19.0805 44.0842 17.8271 44.2035 16.7401C44.2265 16.5303 44.218 16.4521 44.1632 16.3684C44.0327 16.1693 43.9166 16.3066 43.7287 16.8821C43.6014 17.272 43.379 17.7209 43.1186 18.1134C42.8729 18.4836 42.2146 19.1556 41.7913 19.4683C41.2759 19.8491 40.5557 20.2403 40.4904 20.175C40.4806 20.1652 40.51 19.9758 40.5557 19.7541C40.6445 19.3238 40.6666 18.6678 40.5959 18.5622C40.5471 18.4893 40.574 18.4624 40.1402 19.0171C39.7695 19.4911 38.6366 20.5899 37.9682 21.1237C36.5382 22.2658 35.0137 23.2084 33.9241 23.6242C33.441 23.8086 33.3912 23.8213 33.3912 23.7605C33.3912 23.7318 33.5045 23.4859 33.643 23.214C34.2274 22.0666 34.8841 20.3604 35.1381 19.3299C35.3689 18.3937 35.6359 16.6434 35.5479 16.6434C35.5313 16.6434 35.4233 16.725 35.3078 16.8246C35.1923 16.9243 34.9968 17.0581 34.8735 17.1219C34.5317 17.2987 34.529 17.2905 34.5569 16.153C34.5999 14.3936 34.903 13.0605 35.5846 11.6332C36.4723 9.77433 37.9133 8.30864 39.1689 7.98752C39.7755 7.83237 40.2187 7.88374 40.8319 8.18026C41.4085 8.45908 41.9143 8.92821 42.0864 9.34387C42.1386 9.46985 42.1326 9.48543 41.9412 9.7204C41.5565 10.1926 41.3649 10.698 41.3649 11.2404C41.3649 12.0475 41.749 12.7663 42.3263 13.0394C42.5937 13.1659 43.0806 13.2436 43.3856 13.2084C43.6536 13.1775 44.1659 13.0323 44.1996 12.9777C44.2133 12.9556 44.1777 12.8263 44.1204 12.6903C43.6307 11.5268 43.7642 10.026 44.4532 8.94882C44.537 8.81787 44.6055 8.69514 44.6055 8.67609C44.6055 8.65708 44.5106 8.57992 44.3945 8.50471C44.1468 8.34423 43.6034 7.65357 43.6714 7.58563C43.6814 7.57564 43.8045 7.60639 43.945 7.65403C44.2467 7.75629 44.7212 7.77343 44.968 7.69099C45.0618 7.65963 45.3304 7.51058 45.5649 7.35971C46.3118 6.87932 47.0055 6.58675 47.619 6.49345C48.3091 6.38851 48.8587 6.64617 49.1632 7.21738C49.2702 7.41816 49.3369 7.4918 49.4571 7.54204C49.8054 7.68757 49.9332 7.92877 49.9346 8.44313C49.9351 8.63508 49.9167 8.84172 49.8936 8.90232L49.8517 9.0125L49.6797 8.88785C49.2075 8.54581 48.5473 8.63939 48.1136 9.10983C47.9281 9.31114 47.7033 9.70656 47.7486 9.7519C47.7632 9.76644 47.9206 9.77864 48.0985 9.77894C48.7365 9.7797 49.2066 9.9811 49.6838 10.4573C50.1993 10.9717 50.5311 11.6142 50.7859 12.5917C50.9194 13.1038 50.9472 13.1267 51.2323 12.9596C51.7891 12.6332 52.1119 11.9186 52.0528 11.1429C52.0134 10.6259 51.8175 10.1543 51.465 9.72815C51.3743 9.6184 51.3 9.51111 51.3 9.48972C51.3 9.41035 52.2257 8.55386 52.4726 8.40483C53.8467 7.57531 55.566 7.90675 56.8387 9.24649C57.8778 10.3404 58.7515 11.9729 59.1693 13.6009C59.4046 14.5179 59.4965 15.2536 59.5028 16.2681C59.5062 16.8254 59.492 17.1668 59.4642 17.1948C59.3988 17.2603 58.9337 17.0267 58.6992 16.8106C58.5921 16.7118 58.4904 16.645 58.4733 16.6621C58.4562 16.6792 58.4448 17.0226 58.448 17.4252C58.4548 18.2709 58.537 18.8702 58.8032 20.012C59.1917 21.6785 59.4876 22.6314 59.8765 23.4684C59.9742 23.6788 60.0422 23.8629 60.0275 23.8775C59.9888 23.9162 59.3925 23.6965 58.9965 23.4977C58.0885 23.0417 57.1179 22.3518 55.9521 21.3338C55.164 20.6457 54.2533 19.362 53.5547 17.9544C53.4295 17.7021 53.3075 17.5022 53.2836 17.5101C53.2099 17.5346 53.2096 18.5728 53.2831 19.1042C53.3199 19.3705 53.3385 19.607 53.3245 19.6298C53.2763 19.7077 52.6501 19.5171 52.2181 19.293C51.9007 19.1283 51.4451 18.7331 51.2976 18.4944C51.2482 18.4145 51.1926 18.3491 51.174 18.3491C51.1554 18.3491 51.1423 18.8911 51.1448 19.5536C51.1533 21.7446 50.8656 23.1181 50.0428 24.815C49.7416 25.4363 49.6677 25.7223 49.6876 26.1906L49.701 26.5061L49.9995 26.5872C50.5672 26.7414 51.1151 27.0691 51.345 27.392C51.3947 27.4617 51.4483 27.6093 51.4641 27.7198L51.4928 27.9208L52.2812 28.0534C57.9417 29.0056 63.0296 31.4014 67.1008 35.032C67.8132 35.6673 69.1661 37.0432 69.1661 37.1324C69.1661 37.1784 69.1177 37.1959 68.9911 37.1959C68.6154 37.1959 68.0346 36.9862 66.3306 36.2353C62.6138 34.5973 60.653 33.8738 57.9611 33.1473C51.1361 31.3054 43.779 31.2694 36.6532 33.043C33.8172 33.7488 31.6152 34.5213 27.8907 36.1166C25.8434 36.9935 25.2816 37.1959 24.8954 37.1959C24.747 37.1959 24.6927 37.1794 24.6927 37.1343L24.6927 37.1344ZM47.6934 27.3993C47.813 27.1035 47.9999 26.8471 48.2017 26.7021C48.4151 26.5488 48.4815 26.4142 48.4833 26.1309C48.4859 25.7385 48.3802 25.4499 48.0414 24.9245C47.6803 24.3645 47.4279 23.7779 47.2316 23.0419C47.1787 22.8439 47.116 22.6753 47.0921 22.6673C47.0682 22.6594 46.9765 22.8598 46.8883 23.1127C46.6343 23.8411 46.364 24.3177 45.8787 24.893C45.6432 25.1722 45.4051 25.4602 45.3496 25.5329C45.2177 25.7059 45.1074 26.1283 45.1409 26.3322C45.1636 26.4705 45.1842 26.4933 45.302 26.5104C45.9264 26.601 46.0913 26.6442 46.3992 26.7983C46.7668 26.9823 46.9523 27.1687 47.0317 27.4338L47.0821 27.602L47.3469 27.6018L47.6117 27.6017L47.6934 27.3993V27.3993Z" fill="white"/>
<path d="M49.6157 54.2709C48.8184 54.1228 48.1503 53.8757 47.4861 53.4834C45.5023 52.3117 44.3071 50.0115 44.3071 47.3656C44.3071 44.0187 46.2313 41.3128 49.142 40.5664C50.4801 40.2233 52.1568 40.3128 53.5957 40.8042C53.9818 40.9361 54.7918 41.3404 54.9698 41.4901L55.095 41.5955V43.1409C55.095 43.9909 55.0818 44.6996 55.0657 44.7157C55.0495 44.7318 54.968 44.6794 54.8844 44.5993C54.2413 43.9825 53.2115 43.48 52.1102 43.2456C51.4747 43.1104 50.5293 43.1096 50.0421 43.2441C48.1113 43.7766 46.9722 45.6944 47.2515 47.9424C47.4779 49.7653 48.5413 51.0713 50.0848 51.4223C50.7146 51.5655 51.7546 51.4952 52.3388 51.2701L52.4609 51.2231L52.4402 50.3391C52.4228 49.5999 52.4042 49.4027 52.3267 49.1353C52.1223 48.4302 51.8449 47.8379 51.4025 47.1617C51.2523 46.9322 51.1295 46.7258 51.1295 46.7029C51.1295 46.6763 51.8408 46.6653 53.1015 46.6724L55.0736 46.6834V49.8796V53.0758L54.5833 53.3234C53.7224 53.758 52.8628 54.0668 52.0462 54.2348C51.5605 54.3347 50.0776 54.3568 49.6157 54.2709V54.2709ZM63.1113 54.2926C60.9047 54.0194 58.9898 52.4239 58.0991 50.1165C57.7917 49.3202 57.6528 48.5795 57.6228 47.5764C57.5805 46.163 57.8087 45.0091 58.3559 43.869C58.9796 42.5695 60.1835 41.345 61.3681 40.8051C61.7819 40.6165 62.4056 40.4187 62.8128 40.3468C63.276 40.2651 64.3274 40.2747 64.782 40.3649C67.1374 40.832 69.0235 42.7018 69.6505 45.1914C69.9473 46.3699 69.9818 47.8544 69.7399 49.0286C69.2558 51.3773 67.6914 53.2577 65.5944 54.0114C64.8999 54.2609 63.8323 54.3818 63.1113 54.2926ZM64.3253 51.3307C65.587 51.0634 66.5555 49.929 66.8912 48.325C66.9847 47.8782 66.9955 46.8313 66.9113 46.3636C66.6239 44.7656 65.6638 43.5859 64.3916 43.2675C63.9802 43.1645 63.2291 43.2026 62.8451 43.3459C62.0161 43.6553 61.3163 44.3559 60.9304 45.2627C60.3919 46.5282 60.4101 48.2081 60.9754 49.4144C61.6517 50.8575 62.9778 51.6161 64.3253 51.3307ZM28.5355 54.1846C27.8455 54.0318 26.9375 53.7173 26.4588 53.4653C26.2693 53.3656 25.7546 53.0487 25.315 52.761C24.2725 52.0789 23.855 51.8635 23.0802 51.6081C22.2198 51.3245 21.5201 51.1827 20.8306 51.1523L20.2731 51.1278L20.0314 51.6266C19.8985 51.9009 19.7064 52.2537 19.6046 52.4105C19.0414 53.2778 17.992 53.9093 16.725 54.1435C16.3619 54.2106 15.9942 54.2305 15.9942 54.1831C15.9942 54.1137 22.1016 40.7978 22.1466 40.7693C22.2401 40.7098 23.0143 40.729 23.0667 40.7922C23.1283 40.8664 28.9635 54.0827 28.9717 54.1667C28.9802 54.2523 28.8627 54.2572 28.5355 54.1846ZM24.2237 49.3432C24.2237 49.2369 22.626 45.6809 22.5843 45.6945C22.531 45.712 21.3668 48.3556 21.3668 48.4593C21.3668 48.5103 21.4185 48.539 21.548 48.5596C22.1351 48.6533 23.222 48.9817 23.8612 49.2586C24.1971 49.4041 24.2237 49.4103 24.2237 49.3432ZM5.56055 54.1134C5.54157 54.0841 5.51646 51.7191 5.50473 48.858C5.48691 44.509 5.47363 43.6387 5.42378 43.551C5.39098 43.4932 5.22175 43.2831 5.0477 43.084C4.65131 42.6306 4.31711 42.1308 4.10109 41.6684C3.90661 41.2521 3.77433 40.7855 3.83391 40.7259C3.89368 40.6661 9.65778 40.7105 10.0885 40.7739C12.2466 41.0923 13.7807 41.9133 14.7966 43.2935C15.0998 43.7054 15.5125 44.5166 15.6737 45.0176C16.0365 46.1453 16.1275 47.5966 15.9132 48.8376C15.6614 50.2955 14.9276 51.6221 13.8694 52.5325C12.7114 53.5288 11.5525 53.9857 9.83268 54.1241C9.03592 54.1882 5.60341 54.1796 5.56055 54.1134V54.1134ZM9.98192 51.1951C10.4978 51.1117 11.0135 50.9363 11.4266 50.7038C11.8882 50.444 12.461 49.8613 12.6974 49.4111C13.2861 48.2896 13.3025 46.6859 12.7367 45.5624C12.4115 44.9165 11.9169 44.4219 11.2611 44.0865C10.549 43.7224 9.93923 43.591 8.90565 43.5788L8.21237 43.5706V47.4082V51.2458L8.48953 51.2713C8.86706 51.3061 9.4938 51.2744 9.98193 51.1951H9.98192ZM30.6913 54.1388C30.6753 54.1228 30.6623 51.1121 30.6623 47.4483C30.6623 41.4133 30.6686 40.7844 30.7297 40.761C30.8562 40.7124 31.0695 40.7349 31.1751 40.8079C31.2729 40.8755 32.5152 42.0082 37.0688 46.1818C38.0479 47.0791 38.8654 47.8133 38.8855 47.8133C38.9607 47.8133 38.9765 47.155 38.9768 44.0071L38.9772 40.7766L40.395 40.7878L41.8127 40.799V47.4722V54.1453L41.628 54.1585C41.5101 54.167 41.4053 54.1469 41.338 54.1028C41.28 54.0649 39.5155 52.4519 37.4167 50.5184C35.3179 48.585 33.5824 47.0031 33.56 47.0031C33.535 47.0031 33.5169 47.5042 33.5132 48.293C33.51 49.0024 33.4956 50.6094 33.4813 51.8641L33.4552 54.1453L32.0877 54.1565C31.3356 54.1626 30.7072 54.155 30.6913 54.1387L30.6913 54.1388ZM75.1221 54.1388C75.1061 54.1228 75.0931 51.7444 75.0931 48.8534C75.0931 45.9055 75.0767 43.5869 75.0559 43.574C75.0354 43.5613 74.1958 43.5498 73.1901 43.5485C72.1844 43.547 71.3374 43.531 71.3079 43.5128C71.2662 43.4871 71.2568 43.1803 71.2655 42.1394L71.2768 40.7991H76.5215H81.7662L81.7775 42.153C81.7836 42.8975 81.7836 43.5111 81.7775 43.5163C81.7715 43.5216 80.9124 43.5359 79.8688 43.5483L77.9713 43.5707L77.95 48.858L77.9287 54.1454L76.54 54.1566C75.7761 54.1627 75.1381 54.1551 75.1222 54.1389L75.1221 54.1388ZM84.1614 54.1383C84.1456 54.1227 84.1328 51.1101 84.1328 47.4437V40.7777H88.4607H92.7887V40.8976C92.7887 41.0693 92.6382 41.62 92.5049 41.9359C92.3416 42.3228 91.9706 42.871 91.749 43.0525C91.516 43.2435 91.206 43.4025 90.9533 43.4607C90.839 43.4871 90.0136 43.505 88.8817 43.5056C87.3398 43.5063 86.9913 43.5172 86.9515 43.5651C86.9172 43.6065 86.9063 43.9598 86.9143 44.7697L86.9257 45.9158L89.1643 45.938C90.3955 45.9503 91.408 45.9647 91.4141 45.97C91.4202 45.9753 91.4202 46.5793 91.4141 47.3122L91.4029 48.6447L89.2108 48.6557C87.6785 48.6635 87.0015 48.6811 86.9615 48.7143C86.8776 48.784 86.8777 51.2345 86.9615 51.3042C87.0019 51.3377 87.7729 51.3549 89.5732 51.3627L92.1277 51.3737V52.7595V54.1453L88.1588 54.1562C85.976 54.1623 84.1771 54.1539 84.1613 54.1384L84.1614 54.1383ZM51.1586 28.0666C50.7622 27.8574 49.8942 27.7223 48.4701 27.6481C48.0277 27.6251 47.6553 27.5958 47.6426 27.5832C47.6102 27.5508 47.7552 27.2311 47.9011 27.0132C47.9688 26.9122 48.104 26.7722 48.2017 26.7021C48.4151 26.5488 48.4815 26.4142 48.4833 26.1309C48.4859 25.7385 48.3802 25.4498 48.0414 24.9245C47.6803 24.3645 47.4279 23.7779 47.2316 23.0418C47.1787 22.8438 47.116 22.6753 47.0921 22.6673C47.0682 22.6593 46.9765 22.8597 46.8883 23.1126C46.6343 23.8411 46.364 24.3177 45.8787 24.893C45.6432 25.1722 45.4051 25.4601 45.3496 25.5329C45.2177 25.7058 45.1074 26.1283 45.1409 26.3321C45.1636 26.4705 45.1842 26.4933 45.302 26.5104C45.9273 26.601 46.0912 26.6441 46.4013 26.7993C46.7659 26.9818 46.9206 27.1377 47.0342 27.4368C47.1123 27.6426 47.0815 27.8857 46.972 27.9277C46.9386 27.9405 46.8099 27.9017 46.6859 27.8416C46.2247 27.618 45.4975 27.5968 43.8283 27.7582C43.4126 27.7984 43.0597 27.8185 43.044 27.8028C42.9936 27.7524 43.1576 27.3957 43.3535 27.1295C43.4631 26.9806 43.634 26.8148 43.7559 26.739C43.8854 26.6586 43.978 26.5667 43.994 26.503C44.045 26.2998 43.9682 25.8251 43.7924 25.2567C43.6363 24.752 43.6118 24.6167 43.5931 24.1588C43.5815 23.8715 43.5564 23.6364 43.5375 23.6364C43.5186 23.6364 43.4537 23.7444 43.3933 23.8763C43.097 24.5236 42.2995 25.3252 41.8474 25.4301C41.6223 25.4824 40.5524 25.4793 40.0521 25.4248C38.8761 25.2971 37.7495 24.9494 37.0482 24.4977C36.9135 24.4109 36.803 24.3088 36.8028 24.2709C36.8026 24.2208 36.9217 24.1644 37.2395 24.0641C39.7915 23.2588 41.8465 21.8274 42.996 20.0545C43.6275 19.0804 44.0842 17.827 44.2035 16.7401C44.2265 16.5302 44.218 16.4521 44.1632 16.3683C44.0327 16.1692 43.9166 16.3065 43.7287 16.882C43.6014 17.2719 43.379 17.7208 43.1186 18.1133C42.8729 18.4835 42.2146 19.1555 41.7913 19.4682C41.2759 19.849 40.5557 20.2402 40.4904 20.1749C40.4806 20.1651 40.51 19.9757 40.5557 19.754C40.6445 19.3238 40.6666 18.6677 40.5959 18.5621C40.5471 18.4893 40.574 18.4623 40.1402 19.017C39.7695 19.4911 38.6366 20.5898 37.9682 21.1236C36.5382 22.2657 35.0137 23.2084 33.9241 23.6242C33.441 23.8086 33.3912 23.8213 33.3912 23.7604C33.3912 23.7317 33.5045 23.4858 33.643 23.2139C34.2274 22.0665 34.8841 20.3603 35.1381 19.3298C35.3689 18.3937 35.6359 16.6434 35.5479 16.6434C35.5313 16.6434 35.4233 16.725 35.3078 16.8246C35.1923 16.9243 34.9968 17.0581 34.8735 17.1219C34.5317 17.2987 34.529 17.2905 34.5569 16.153C34.5999 14.3936 34.903 13.0605 35.5846 11.6332C36.4723 9.77433 37.9133 8.30864 39.1689 7.98752C39.7755 7.83237 40.2187 7.88374 40.8319 8.18026C41.4085 8.45908 41.9143 8.92821 42.0864 9.34387C42.1386 9.46985 42.1326 9.48543 41.9412 9.7204C41.5565 10.1926 41.3649 10.698 41.3649 11.2404C41.3649 12.0475 41.749 12.7663 42.3263 13.0394C42.5937 13.1659 43.0806 13.2436 43.3856 13.2084C43.6536 13.1775 44.1659 13.0323 44.1996 12.9777C44.2133 12.9556 44.1777 12.8263 44.1204 12.6903C43.6307 11.5268 43.7642 10.026 44.4532 8.94882C44.537 8.81787 44.6055 8.69514 44.6055 8.67609C44.6055 8.65708 44.5106 8.57992 44.3945 8.50471C44.1468 8.34423 43.6034 7.65357 43.6714 7.58563C43.6814 7.57564 43.8045 7.60639 43.945 7.65403C44.2467 7.75629 44.7212 7.77343 44.968 7.69099C45.0618 7.65963 45.3304 7.51058 45.5649 7.35971C46.3118 6.87932 47.0055 6.58675 47.619 6.49345C48.3091 6.38851 48.8587 6.64617 49.1632 7.21738C49.2702 7.41816 49.3369 7.4918 49.4571 7.54204C49.8054 7.68757 49.9332 7.92877 49.9346 8.44313C49.9351 8.63508 49.9167 8.84172 49.8936 8.90232L49.8517 9.0125L49.6797 8.88785C49.2075 8.54581 48.5473 8.63939 48.1136 9.10983C47.9281 9.31114 47.7033 9.70656 47.7486 9.7519C47.7632 9.76644 47.9206 9.77864 48.0985 9.77894C48.7365 9.7797 49.2066 9.9811 49.6838 10.4573C50.1993 10.9717 50.5311 11.6142 50.7859 12.5917C50.9194 13.1038 50.9472 13.1267 51.2323 12.9596C51.7891 12.6332 52.1119 11.9186 52.0528 11.1429C52.0134 10.6259 51.8175 10.1543 51.465 9.72815C51.3743 9.6184 51.3 9.51111 51.3 9.48972C51.3 9.41035 52.2257 8.55386 52.4726 8.40483C53.8467 7.57531 55.566 7.90675 56.8387 9.24649C57.8778 10.3404 58.7515 11.9729 59.1693 13.6009C59.4046 14.5179 59.4965 15.2536 59.5028 16.2681C59.5062 16.8254 59.492 17.1668 59.4642 17.1948C59.3988 17.2603 58.9337 17.0267 58.6992 16.8106C58.5921 16.7118 58.4904 16.645 58.4733 16.6621C58.4562 16.6792 58.4448 17.0226 58.448 17.4252C58.4548 18.2709 58.537 18.8702 58.8032 20.012C59.1917 21.6785 59.4876 22.6314 59.8765 23.4684C59.9742 23.6788 60.0422 23.8629 60.0275 23.8775C59.9888 23.9162 59.3925 23.6965 58.9965 23.4977C58.0885 23.0417 57.1179 22.3518 55.9521 21.3338C55.164 20.6457 54.2533 19.362 53.5547 17.9544C53.4295 17.7021 53.3075 17.5022 53.2836 17.5101C53.2099 17.5346 53.2096 18.5728 53.2831 19.1042C53.3199 19.3705 53.3385 19.607 53.3245 19.6298C53.2763 19.7077 52.6501 19.5171 52.2181 19.293C51.9007 19.1283 51.4451 18.7331 51.2976 18.4944C51.2482 18.4145 51.1926 18.3491 51.174 18.3491C51.1554 18.3491 51.1423 18.8911 51.1448 19.5536C51.1533 21.7446 50.8656 23.1181 50.0428 24.815C49.7416 25.4363 49.6677 25.7223 49.6876 26.1906L49.701 26.5061L49.9995 26.5872C50.623 26.7565 51.2424 27.1552 51.4009 27.4892C51.4864 27.6695 51.5023 28.0027 51.4296 28.0903C51.3618 28.172 51.3577 28.1717 51.1586 28.0666Z" fill="white"/>
<path d="M50.1059 54.3088C48.087 54.1096 46.3835 53.0203 45.3275 51.2535C44.8979 50.5346 44.5433 49.4898 44.4119 48.5558C44.326 47.9459 44.3272 46.8218 44.4142 46.1999C44.7841 43.557 46.405 41.4883 48.7119 40.715C49.3441 40.5031 49.78 40.4318 50.5967 40.4067C52.2304 40.3566 53.7698 40.728 54.8496 41.433L55.0522 41.5652V43.1371V44.709L54.807 44.498C53.4888 43.3636 51.3672 42.8248 49.9172 43.2561C48.4053 43.7059 47.341 45.1264 47.211 46.8681C47.1719 47.3918 47.2263 48.1107 47.3399 48.5721C47.5354 49.3663 47.8649 49.968 48.3978 50.5037C48.8206 50.9287 49.1919 51.1606 49.7712 51.3615C50.1576 51.4954 50.1917 51.4997 50.8735 51.5007C51.4764 51.5014 51.6338 51.4872 51.9737 51.4004C52.1919 51.3446 52.3982 51.2713 52.4321 51.2374C52.5186 51.151 52.5164 50.0453 52.4287 49.5351C52.2965 48.7657 51.9646 47.9755 51.4316 47.1615C51.2041 46.814 51.1455 46.6957 51.1922 46.6778C51.2262 46.6648 52.1134 46.6703 53.1637 46.69L55.0735 46.7259V49.8813V53.0366L54.6045 53.2804C53.0827 54.0714 51.4597 54.4424 50.1059 54.3088L50.1059 54.3088ZM62.9676 54.2505C61.0388 53.9469 59.3622 52.6659 58.4212 50.7768C57.0586 48.0412 57.4732 44.5207 59.4178 42.3146C60.281 41.3353 61.3974 40.677 62.6552 40.4054C62.9206 40.3481 63.1939 40.3304 63.7933 40.3316C64.506 40.3332 64.6268 40.3445 65.0444 40.449C67.5022 41.0641 69.2693 43.0842 69.7708 45.8518C69.8932 46.5273 69.9035 47.9198 69.7913 48.6021C69.6452 49.49 69.4482 50.1188 69.0988 50.813C68.2156 52.5671 66.7025 53.7769 64.8764 54.189C64.5245 54.2684 63.3267 54.307 62.9676 54.2505L62.9676 54.2505ZM64.4116 51.3247C65.3643 51.1123 66.2391 50.2813 66.6715 49.1779C66.9182 48.5485 66.9678 48.2387 66.969 47.3229C66.9702 46.3595 66.9231 46.0655 66.662 45.4057C66.4336 44.8285 66.2 44.4644 65.7973 44.0576C65.4952 43.7524 65.3673 43.6581 65.0298 43.4915C64.1747 43.0694 63.3468 43.0592 62.5355 43.4608C61.5767 43.9354 60.8933 44.9074 60.6145 46.193C60.5207 46.6257 60.4872 47.5331 60.5482 47.9906C60.7608 49.5845 61.6227 50.8108 62.8413 51.2531C63.3285 51.4299 63.836 51.4531 64.4116 51.3247V51.3247ZM16.0385 54.156C16.0395 54.1267 17.4089 51.1094 19.0815 47.4509L22.1225 40.799L22.5697 40.787C22.8942 40.7783 23.0289 40.79 23.0609 40.8296C23.1073 40.8871 28.9565 54.1343 28.9565 54.1818C28.9565 54.2392 28.7282 54.2044 28.1802 54.0636C27.0396 53.7704 26.5654 53.5514 25.3543 52.759C24.0732 51.9207 23.4542 51.6363 22.2876 51.3504C21.4585 51.1472 20.4216 51.0333 20.2736 51.1292C20.247 51.1464 20.1011 51.4121 19.9493 51.7196C19.6224 52.3816 19.4694 52.6143 19.1515 52.9326C18.5442 53.5407 17.6238 53.9733 16.5696 54.146C16.1011 54.2228 16.0361 54.2241 16.0385 54.156ZM23.4803 47.5503C23.0429 46.5572 22.6673 45.716 22.6456 45.681C22.6107 45.6246 22.5996 45.6246 22.5475 45.6815C22.4812 45.7538 21.3229 48.4042 21.3236 48.4822C21.324 48.5379 21.389 48.5626 21.6438 48.6044C22.1934 48.6946 23.2549 49.0212 23.9037 49.2999C24.0679 49.3704 24.2187 49.4119 24.2389 49.3921C24.2592 49.3722 23.9211 48.5513 23.4803 47.5505V47.5503ZM5.56768 54.0707C5.55694 54.0414 5.54316 51.6957 5.53703 48.858C5.52859 44.9456 5.51347 43.6707 5.47451 43.5836C5.44625 43.5203 5.29864 43.3329 5.1465 43.1671C4.81037 42.8008 4.45825 42.3073 4.23013 41.8828C4.0533 41.5537 3.84161 40.9765 3.84161 40.8235V40.7351H6.64545C8.8521 40.7351 9.56443 40.7486 9.9899 40.7983C12.7505 41.1213 14.6373 42.4448 15.526 44.6819C16.0413 45.9791 16.1471 47.9137 15.7811 49.347C15.3672 50.9682 14.409 52.265 12.9493 53.1796C12.2009 53.6485 11.329 53.9349 10.2773 54.0573C9.52204 54.1451 5.599 54.1563 5.56768 54.0707V54.0707ZM10.131 51.2048C11.1301 50.9795 11.892 50.5441 12.3931 49.9121C12.6452 49.5942 12.9437 48.9884 13.0595 48.5595C13.1837 48.0998 13.1966 46.8864 13.0821 46.4334C12.7086 44.9548 11.7157 44.0113 10.1736 43.6696C9.73863 43.5732 8.34564 43.4921 8.22287 43.5561C8.15265 43.5927 8.14825 43.8194 8.14825 47.4012C8.14825 50.3882 8.15972 51.2194 8.20154 51.2629C8.2764 51.3407 9.72115 51.2973 10.131 51.2048L10.131 51.2048ZM30.6975 54.0713C30.6882 54.0417 30.6879 51.0385 30.6967 47.3976L30.7127 40.7777H30.9239C31.1325 40.7777 31.1411 40.783 31.6129 41.2166C31.8756 41.458 33.3474 42.8056 34.8835 44.2114C36.4196 45.6172 37.9433 47.0123 38.2694 47.3117C38.5956 47.611 38.8881 47.8559 38.9194 47.8559C38.9665 47.8559 38.9783 47.2388 38.9873 44.3275L38.9982 40.799H40.384H41.7698L41.7806 47.4615L41.7914 54.124H41.5789H41.3664L37.476 50.5418C35.3362 48.5716 33.5658 46.9662 33.5416 46.9743C33.5122 46.9841 33.4907 48.1619 33.4764 50.5458L33.4551 54.1027L32.0847 54.114C31.0099 54.1228 30.7107 54.1135 30.6975 54.0713L30.6975 54.0713ZM75.1231 53.9434C75.1108 53.8434 75.0975 51.4686 75.0935 48.6661C75.0896 45.8636 75.0727 43.5564 75.056 43.5391C75.0393 43.5218 74.1821 43.5026 73.1511 43.4965L71.2766 43.4853L71.2654 42.1799C71.2562 41.1155 71.2649 40.8655 71.3126 40.8259C71.3558 40.7901 72.7258 40.7802 76.5473 40.7882L81.7234 40.799L81.7347 42.1524L81.746 43.5057L79.8586 43.5169L77.9712 43.528L77.9499 48.8154L77.9285 54.1027L76.537 54.1139L75.1455 54.1251L75.1231 53.9434ZM84.161 54.0956C84.1255 54.06 84.123 40.9376 84.1587 40.8452C84.1821 40.7843 84.6013 40.7777 88.4667 40.7777C91.9085 40.7777 92.7529 40.7884 92.7698 40.8323C92.816 40.9527 92.5719 41.7498 92.3584 42.1756C91.9742 42.9417 91.472 43.3522 90.7847 43.4618C90.6255 43.4871 89.7407 43.5061 88.7053 43.5063L86.9031 43.5068L86.9144 44.7327L86.9257 45.9586L89.1543 45.9696L91.3828 45.9807L91.3715 47.3128L91.3602 48.6449L89.143 48.6662L86.9257 48.6875L86.9144 50.02L86.9031 51.3525H89.4749C91.4183 51.3525 92.0592 51.365 92.0979 51.4037C92.1353 51.4412 92.1491 51.7933 92.1491 52.722C92.1491 53.419 92.1374 54.0196 92.1232 54.0567C92.0998 54.1175 91.7095 54.1242 88.1434 54.1242C85.9688 54.1242 84.1768 54.1114 84.1612 54.0958L84.161 54.0956ZM51.1584 28.0666C50.7865 27.8704 49.8827 27.7199 48.7628 27.6678C47.8577 27.6257 47.6755 27.6031 47.6755 27.5332C47.6755 27.3388 48.0989 26.7403 48.2762 26.684C48.4173 26.6392 48.4985 26.4174 48.4942 26.0889C48.4894 25.7234 48.38 25.3911 48.1544 25.0563C47.7539 24.462 47.4937 23.8865 47.2716 23.1034C47.1891 22.8128 47.1172 22.6344 47.0826 22.6344C47.0496 22.6344 46.9516 22.8476 46.8431 23.1554C46.5747 23.9171 46.3755 24.2568 45.7787 24.9711C45.4217 25.3983 45.2299 25.6656 45.1844 25.7993C45.1032 26.0376 45.0951 26.4317 45.1704 26.4795C45.1997 26.4981 45.413 26.5454 45.6443 26.5845C46.1359 26.6678 46.6159 26.8826 46.8137 27.108C47.0488 27.3756 47.1428 27.8621 46.9723 27.9275C46.9387 27.9404 46.8097 27.9018 46.6857 27.8416C46.2246 27.6181 45.4974 27.5968 43.8282 27.7582C43.4124 27.7985 43.0606 27.8196 43.0462 27.8053C42.9974 27.7564 43.2828 27.2282 43.4713 27.0186C43.5747 26.9036 43.729 26.772 43.8144 26.7261C43.9003 26.6798 43.9805 26.5987 43.9942 26.5443C44.0522 26.313 43.977 25.7411 43.8249 25.2568C43.6404 24.6696 43.5708 24.2662 43.5895 23.8923C43.5973 23.7356 43.5848 23.6059 43.5607 23.5938C43.5373 23.5821 43.4509 23.7068 43.3688 23.871C43.2867 24.0351 43.1593 24.2561 43.0858 24.362C42.9315 24.5842 42.4035 25.0942 42.1446 25.2712C41.5882 25.6515 39.308 25.4443 37.8797 24.8836C37.4189 24.7028 36.7884 24.339 36.8122 24.2677C36.82 24.2443 37.1231 24.1253 37.4859 24.0031C41.1797 22.759 43.5233 20.4057 44.135 17.3262C44.2802 16.5955 44.2536 16.2598 44.0508 16.2598C43.9432 16.2598 43.8529 16.4191 43.7062 16.8682C43.2991 18.1141 42.3505 19.1907 40.9906 19.95C40.7496 20.0846 40.5416 20.1839 40.5284 20.1706C40.5152 20.1574 40.5356 19.9964 40.5738 19.8128C40.7048 19.1838 40.703 18.5336 40.5703 18.4894C40.5451 18.481 40.4289 18.6043 40.3121 18.7634C39.4654 19.9161 37.6343 21.4946 35.8734 22.5895C35.1331 23.0499 33.9202 23.6421 33.5077 23.7446C33.3922 23.7733 33.397 23.7595 33.7431 23.0549C34.2597 22.0034 34.7984 20.6502 35.0543 19.7611C35.3155 18.8538 35.6704 16.7311 35.5766 16.6373C35.5502 16.611 35.453 16.6671 35.3054 16.7941C35.0216 17.0381 34.6774 17.222 34.6171 17.1618C34.5385 17.0831 34.6061 15.1161 34.7075 14.5328C35.0323 12.665 35.7243 11.0663 36.7524 9.80885C37.3179 9.11713 38.1313 8.43384 38.6963 8.17583C39.2065 7.94284 39.8435 7.88021 40.3565 8.01257C40.9303 8.16059 41.5982 8.62597 41.9126 9.09672C42.1178 9.4041 42.131 9.51149 41.9809 9.65254C41.8073 9.81561 41.5838 10.1791 41.4681 10.4865C41.0871 11.4987 41.545 12.7712 42.4097 13.1034C42.8645 13.2781 43.5842 13.2649 44.0638 13.073C44.2565 12.9959 44.2571 12.9681 44.0762 12.4942C43.6952 11.4962 43.7864 10.2837 44.3204 9.24547C44.4049 9.08131 44.5122 8.88906 44.5589 8.81826C44.6571 8.66953 44.6458 8.6451 44.408 8.49102C44.3111 8.42831 44.165 8.29415 44.0833 8.19293C43.8877 7.95068 43.6926 7.64953 43.7162 7.626C43.7265 7.6157 43.8557 7.64486 44.0034 7.69084C44.3248 7.79088 44.7391 7.79863 44.9922 7.70932C45.0936 7.67357 45.3503 7.53201 45.5626 7.3948C46.0671 7.06868 46.6282 6.79003 47.0785 6.64203C47.5785 6.47764 48.1847 6.46719 48.5166 6.61726C48.7758 6.73445 49.032 6.99514 49.1853 7.29779C49.269 7.46285 49.327 7.52222 49.4417 7.56008C49.6618 7.63272 49.834 7.85398 49.8935 8.14042C49.9447 8.38723 49.9179 8.90506 49.8517 8.94593C49.8329 8.9576 49.7684 8.92851 49.7083 8.88133C49.5272 8.73887 49.312 8.66984 49.0489 8.66984C48.7241 8.66984 48.4542 8.76474 48.2278 8.95854C48.0058 9.14856 47.71 9.59435 47.727 9.71318C47.7383 9.7923 47.773 9.8005 48.1278 9.80796C48.882 9.82379 49.4008 10.0958 49.9201 10.7475C50.2847 11.2049 50.7078 12.179 50.808 12.7913C50.8239 12.8888 50.8627 13.0038 50.8941 13.0468C50.9492 13.1222 50.9583 13.1216 51.1453 13.0307C51.7329 12.7452 52.07 12.1319 52.0774 11.3348C52.0827 10.7482 51.9174 10.2772 51.5284 9.77107C51.4261 9.638 51.3425 9.51032 51.3425 9.48734C51.3425 9.42038 52.0693 8.70161 52.2915 8.54894C52.8944 8.13456 53.4869 7.96794 54.242 8.00046C54.8175 8.02523 55.1599 8.11886 55.6808 8.39367C56.3154 8.72853 56.8744 9.24053 57.4488 10.013C58.5538 11.4993 59.2439 13.3346 59.4424 15.3155C59.4975 15.8652 59.5006 17.1416 59.4469 17.1747C59.371 17.2217 58.9337 16.9893 58.7176 16.7871C58.5402 16.6212 58.4924 16.5952 58.4579 16.6456C58.4317 16.6839 58.4231 17.0321 58.4354 17.5603C58.4591 18.5845 58.5189 18.954 58.932 20.6303C59.2595 21.9592 59.5172 22.7597 59.8278 23.4126C60.025 23.8271 60.0309 23.8496 59.9424 23.8493C59.7766 23.8487 58.8947 23.4387 58.3412 23.1049C57.4353 22.5586 56.0914 21.4963 55.5152 20.871C54.86 20.1601 54.2325 19.2264 53.67 18.1254C53.4803 17.7543 53.306 17.4465 53.2826 17.4415C53.2591 17.4362 53.2221 17.5856 53.2002 17.773C53.1634 18.0897 53.1835 18.4558 53.2902 19.4103L53.3159 19.64L53.15 19.609C52.4437 19.4769 51.7214 19.0443 51.359 18.5365C51.2519 18.3864 51.1484 18.2733 51.1291 18.2852C51.1099 18.2971 51.1047 18.7529 51.1176 19.298C51.1703 21.5268 50.86 23.0765 50.0097 24.8304C49.8205 25.2208 49.7156 25.4963 49.6838 25.6866C49.6303 26.0064 49.6231 26.4069 49.6695 26.476C49.6867 26.5017 49.8439 26.5658 50.0188 26.6185C50.6874 26.82 51.2282 27.1824 51.3906 27.538C51.4797 27.7331 51.4947 28.0296 51.4192 28.1051C51.3546 28.1697 51.3535 28.1695 51.1584 28.0666L51.1584 28.0666Z" fill="white"/>
<path d="M49.5942 54.2114C48.2966 53.9734 47.2681 53.4338 46.3513 52.5099C45.5984 51.7511 45.1104 50.9589 44.7747 49.9499C44.2284 48.3085 44.2208 46.4762 44.7536 44.8497C45.4762 42.6439 47.212 41.0343 49.3757 40.5638C51.0724 40.1949 53.2612 40.5217 54.658 41.3526L54.9965 41.554L55.0241 42.1573C55.0587 42.9118 55.0606 44.6154 55.027 44.6154C55.0132 44.6154 54.8509 44.4946 54.6662 44.3468C53.6846 43.5614 52.2977 43.0811 51.0102 43.0806C49.4859 43.0799 48.2233 43.9017 47.5631 45.324C47.1318 46.253 47.0443 47.5656 47.3382 48.6942C47.4361 49.0701 47.7237 49.7071 47.9355 50.017C48.285 50.5285 48.8261 50.9849 49.3878 51.2419C49.9214 51.4861 50.2158 51.5427 50.9373 51.5396C51.4888 51.5373 51.6353 51.5213 52.0008 51.4238C52.234 51.3616 52.445 51.2904 52.4699 51.2655C52.5446 51.1908 52.5161 49.772 52.432 49.3769C52.2785 48.6563 51.9242 47.8515 51.4316 47.1051L51.1815 46.7261L53.0635 46.715C54.0986 46.7089 54.9696 46.7135 54.9991 46.7245C55.0415 46.7407 55.0504 47.3968 55.0417 49.8909L55.0308 53.0369L54.7323 53.1955C53.928 53.6231 52.9071 53.9972 52.0673 54.1721C51.4509 54.3005 50.1891 54.3206 49.5942 54.2115L49.5942 54.2114ZM62.7825 54.1867C61.208 53.8987 59.7336 52.8657 58.7916 51.3906C57.6053 49.5327 57.3213 46.9579 58.0595 44.752C58.717 42.7869 60.1344 41.2698 61.8877 40.6544C63.0544 40.2449 64.3737 40.2301 65.519 40.6135C67.2459 41.1918 68.7039 42.6586 69.385 44.503C69.9745 46.0993 70.0039 48.2646 69.4579 49.8815C68.6923 52.1491 66.8534 53.8131 64.6976 54.1891C64.254 54.2664 63.2115 54.2651 62.7825 54.1868V54.1867ZM64.3746 51.3749C65.5417 51.0997 66.5014 50.0589 66.8638 48.6755C67.1298 47.66 67.0716 46.3901 66.716 45.4469C66.1267 43.8844 64.8037 42.975 63.3988 43.1671C61.9692 43.3625 60.8914 44.5704 60.5465 46.3637C60.4674 46.7751 60.478 47.8869 60.5651 48.3165C60.7478 49.2171 61.1012 49.9279 61.6572 50.5133C62.0603 50.9375 62.6783 51.2865 63.2176 51.3944C63.4992 51.4507 64.0958 51.4407 64.3746 51.3749L64.3746 51.3749ZM16.0889 54.0988C16.1052 54.0415 21.5581 42.0896 22.1038 40.9151C22.1472 40.8216 22.1665 40.8182 22.5985 40.8298L23.0481 40.8418L23.2493 41.2895C23.6631 42.2107 28.9138 54.1294 28.9138 54.1477C28.9138 54.2376 27.826 53.971 27.1656 53.7193C26.6184 53.5108 26.2037 53.2849 25.3953 52.7551C24.1845 51.9617 23.9227 51.8249 23.0934 51.5528C22.4935 51.356 22.0445 51.2442 21.5368 51.1651C21.018 51.0844 20.3355 51.0406 20.2747 51.0843C20.2488 51.1028 20.0893 51.3911 19.9204 51.7248C19.5611 52.4346 19.3286 52.7598 18.9523 53.079C18.291 53.6401 17.2818 54.0554 16.3469 54.1511C16.084 54.1781 16.0673 54.1747 16.0889 54.0987V54.0988ZM24.2847 49.3955C24.3083 49.3572 22.7154 45.6968 22.6414 45.6193C22.6168 45.5936 22.5797 45.6014 22.5407 45.6406C22.4558 45.726 21.2731 48.4556 21.2956 48.5142C21.3055 48.5401 21.5606 48.6146 21.8624 48.6798C22.4374 48.804 23.4823 49.137 23.8823 49.3235C24.1286 49.4384 24.2452 49.4592 24.2847 49.3954V49.3955ZM5.62242 54.0978C5.61031 54.0772 5.58719 51.748 5.57104 48.9221C5.55321 45.8016 5.52525 43.7208 5.49983 43.623C5.47238 43.5175 5.34872 43.3419 5.1403 43.1128C4.61869 42.5391 4.17703 41.8205 3.97189 41.2115C3.92363 41.0683 3.88416 40.9005 3.88416 40.8386V40.7261L6.77301 40.7478C9.71155 40.77 9.91708 40.7805 10.7918 40.954C13.1804 41.4279 14.897 42.8669 15.6049 44.9886C16.1941 46.7549 16.0784 48.9572 15.3119 50.5631C14.5431 52.1741 12.9463 53.4541 11.1814 53.8742C10.4081 54.0583 10.0039 54.0865 7.78107 54.1115C6.56178 54.1252 5.63498 54.1194 5.62242 54.0979V54.0978ZM9.58893 51.3081C10.6927 51.1898 11.5069 50.8388 12.1569 50.201C12.8746 49.4969 13.2003 48.6274 13.1949 47.4297C13.191 46.5725 13.0559 46.0174 12.6909 45.3593C12.4841 44.9865 11.859 44.3573 11.4741 44.1346C10.7339 43.7063 10.0326 43.5401 8.93699 43.533L8.16947 43.5285V47.4068V51.2851L8.27607 51.3147C8.44177 51.3609 9.13146 51.3575 9.58893 51.3087V51.3081ZM30.736 54.0986C30.7188 54.0814 30.7047 51.0858 30.7047 47.4418V40.8162L30.933 40.829L31.1614 40.8418L35.0032 44.3596C37.1161 46.2944 38.8794 47.8774 38.9215 47.8774C38.9945 47.8774 38.9986 47.712 39.009 44.349L39.0199 40.8205H40.3831H41.7464L41.7585 43.2617C41.7652 44.6043 41.7755 47.588 41.7814 49.8922L41.7922 54.0815H41.5772H41.3621L37.4938 50.5171C35.3662 48.5567 33.6007 46.9425 33.5704 46.9301C33.54 46.9177 33.5017 46.9211 33.4851 46.9376C33.4685 46.9542 33.4453 48.5732 33.4336 50.5353L33.4123 54.1029L32.0898 54.1164C31.3624 54.124 30.7532 54.116 30.736 54.0986V54.0986ZM75.1645 54.0963C75.1485 54.0803 75.1355 51.7047 75.1355 48.8169C75.1355 44.7901 75.1235 43.5546 75.0843 43.5154C75.0461 43.4771 74.5611 43.4642 73.1649 43.4642H71.2966L71.3079 42.153L71.3192 40.8419H76.5213H81.7233L81.7346 42.153L81.7459 43.4642H79.8744C78.3568 43.4642 77.9938 43.4751 77.9551 43.5217C77.9207 43.5632 77.9044 45.0386 77.8966 48.8411L77.8857 54.1029L76.5396 54.1141C75.7992 54.1202 75.1804 54.1126 75.1645 54.0963ZM84.1751 47.451V40.8205H88.4659H92.7567L92.7281 41.0017C92.6788 41.3145 92.5299 41.767 92.3597 42.121C92.065 42.7342 91.6711 43.1393 91.1681 43.3463C90.9387 43.4407 90.8897 43.4432 88.9082 43.4641L86.8828 43.4855L86.8714 44.7007C86.8611 45.8054 86.8669 45.9208 86.9328 45.9693C86.9888 46.0102 87.5106 46.0226 89.1941 46.0226H91.3825L91.3712 47.3125L91.3599 48.6023L89.1679 48.6134C87.6218 48.6212 86.9588 48.6386 86.918 48.6724C86.8712 48.7112 86.8624 48.9722 86.8715 50.0471L86.8827 51.3739L89.4838 51.3952L92.0848 51.4165L92.0961 52.749L92.1074 54.0815H88.1413H84.1751L84.1751 47.451ZM51.1505 28.0201C50.7841 27.8267 50.1093 27.7074 49.0201 27.6434C47.8152 27.5726 47.718 27.5611 47.718 27.4904C47.718 27.3031 48.0921 26.8006 48.3189 26.6833C48.4832 26.5983 48.5443 26.3813 48.5169 25.9803C48.4913 25.6077 48.4062 25.3851 48.1286 24.9652C47.7589 24.4059 47.4757 23.7522 47.268 22.9789C47.1126 22.4 47.0744 22.4017 46.8693 22.997C46.549 23.926 46.391 24.202 45.7295 24.9876C45.228 25.5832 45.1157 25.7897 45.0849 26.1735C45.0591 26.4947 45.1214 26.5785 45.3865 26.5794C45.819 26.5809 46.4426 26.8079 46.7317 27.0692C46.9594 27.2748 47.0995 27.6913 46.996 27.8547C46.9638 27.9055 46.917 27.8972 46.7077 27.8033C46.2011 27.576 45.4863 27.5539 43.8293 27.7145C43.4337 27.7528 43.0999 27.7739 43.0874 27.7614C43.0749 27.7489 43.125 27.6192 43.1987 27.4731C43.3528 27.1678 43.6396 26.8432 43.86 26.7246C43.9437 26.6795 44.0232 26.5984 44.0368 26.544C44.0957 26.3095 44.017 25.7803 43.8391 25.2143C43.6805 24.7098 43.6548 24.5714 43.6307 24.0944C43.6151 23.7858 43.5848 23.5474 43.5606 23.5438C43.5371 23.54 43.4224 23.718 43.3057 23.9388C43.1361 24.2594 43.0117 24.4226 42.6874 24.7498C42.4641 24.9751 42.1855 25.2149 42.0682 25.2828L41.855 25.4062L41.0022 25.4047C39.8825 25.4024 38.983 25.2575 38.0723 24.9322C37.5722 24.7536 36.7808 24.3221 36.8455 24.2634C36.8568 24.253 37.1348 24.154 37.4631 24.0434C40.4133 23.049 42.4983 21.3818 43.5409 19.1835C43.9337 18.3552 44.1898 17.4731 44.2474 16.7504C44.2712 16.4518 44.2643 16.3966 44.1921 16.3079C44.1307 16.2325 44.0856 16.2142 44.0159 16.2364C43.9026 16.2723 43.8236 16.4178 43.6826 16.8499C43.4302 17.6235 43.0653 18.1971 42.4153 18.8419C42.1318 19.1231 41.778 19.4211 41.5378 19.581C41.1126 19.864 40.5545 20.1636 40.5545 20.1089C40.5545 20.091 40.5841 19.9228 40.6202 19.7352C40.6563 19.5476 40.6858 19.2105 40.6857 18.986C40.6857 18.3225 40.6315 18.2895 40.2894 18.7438C38.9609 20.508 36.017 22.7372 33.9187 23.568C33.7047 23.6527 33.5104 23.722 33.4868 23.722C33.4633 23.722 33.5723 23.4678 33.7291 23.1571C34.2169 22.1903 34.8721 20.5402 35.0962 19.7139C35.3474 18.7874 35.6874 16.7885 35.6224 16.6193C35.5863 16.5251 35.5455 16.5432 35.2913 16.7656C35.0278 16.9962 34.6918 17.1914 34.6428 17.1423C34.5851 17.0847 34.574 16.1197 34.6241 15.5184C34.748 14.0309 35.0574 12.8576 35.6511 11.6236C36.1325 10.6231 36.6532 9.88838 37.3839 9.1787C38.6238 7.97443 39.7187 7.67017 40.8207 8.22366C41.3518 8.49041 41.7521 8.85066 41.9774 9.26455L42.0928 9.47649L41.9425 9.64282C41.437 10.2024 41.2147 10.9399 41.3389 11.6462C41.5314 12.7416 42.2863 13.3505 43.3413 13.2613C43.7061 13.2304 44.2165 13.0822 44.2489 12.9976C44.2615 12.9648 44.2142 12.7884 44.1438 12.6056C43.7036 11.4623 43.8195 10.1424 44.4567 9.04424C44.5619 8.86303 44.6479 8.68506 44.6479 8.64877C44.6479 8.61249 44.6021 8.56534 44.5461 8.54404C44.49 8.52275 44.3737 8.44343 44.2875 8.36778C44.1198 8.22046 43.7291 7.6986 43.762 7.66571C43.7729 7.6548 43.8628 7.67449 43.9618 7.7094C44.0609 7.74432 44.262 7.78523 44.4089 7.80028C44.7684 7.83709 45.0589 7.74801 45.4835 7.47077C45.9753 7.1496 46.5346 6.86267 46.9718 6.70734C47.4623 6.53302 48.0558 6.48773 48.3909 6.599C48.6765 6.69389 48.9506 6.94212 49.1194 7.25885C49.2299 7.46618 49.2918 7.53223 49.4361 7.5968C49.6529 7.6938 49.7539 7.8014 49.8308 8.01708C49.8906 8.18461 49.9055 8.65961 49.8564 8.83071L49.8287 8.92731L49.6738 8.82193C49.2144 8.50933 48.5191 8.60026 48.1083 9.02664C47.9447 9.19645 47.6754 9.64295 47.6754 9.74429C47.6754 9.83013 47.6775 9.83058 48.041 9.82212C48.3822 9.81417 48.823 9.91969 49.1282 10.0823C49.8576 10.4711 50.4917 11.4963 50.7654 12.7296C50.8614 13.1619 50.8965 13.1878 51.191 13.0437C51.7486 12.7708 52.1099 12.0907 52.1099 11.3138C52.1099 10.7571 51.9392 10.2697 51.5738 9.78375C51.47 9.6456 51.385 9.51924 51.385 9.50295C51.385 9.4344 51.7276 9.0623 52.0246 8.80827C52.9537 8.01372 54.0253 7.80643 55.1723 8.19939C56.3519 8.60353 57.4685 9.78773 58.3544 11.5742C59.0129 12.9022 59.3552 14.2218 59.4426 15.7695C59.4811 16.4527 59.4565 17.1555 59.3939 17.1555C59.2884 17.1555 58.8872 16.9106 58.7087 16.7373C58.4133 16.4505 58.3987 16.4831 58.4021 17.4242C58.4059 18.4986 58.4969 19.0487 58.9962 21.0144C59.2802 22.1328 59.4737 22.7149 59.7651 23.3276C60.0254 23.8749 60.0225 23.8802 59.5686 23.6966C58.0482 23.0816 55.9073 21.4356 54.9322 20.1318C54.4908 19.5415 54.0763 18.8595 53.6743 18.0618C53.4822 17.6808 53.3024 17.3689 53.2747 17.3688C53.247 17.3688 53.2115 17.4091 53.1958 17.4584C53.145 17.6186 53.1686 18.7436 53.2315 19.1596C53.2652 19.3824 53.2847 19.5736 53.2748 19.5846C53.2366 19.6269 52.67 19.449 52.3444 19.2925C51.9064 19.0819 51.6028 18.836 51.359 18.4942C51.1716 18.2317 51.1147 18.1841 51.0715 18.2539C51.0605 18.2718 51.0662 18.6315 51.0842 19.0532C51.1805 21.3087 50.83 23.1195 49.9577 24.8733C49.7099 25.3716 49.6544 25.5573 49.6139 26.0246C49.5738 26.4863 49.6056 26.5412 49.9668 26.6342C50.5839 26.7929 51.2229 27.2093 51.3686 27.5476C51.4535 27.7448 51.4402 28.1184 51.3485 28.1121C51.3334 28.1113 51.2443 28.0697 51.1505 28.0202L51.1505 28.0201Z" fill="white"/>
<path d="M49.6793 54.1919C47.6023 53.8241 45.9833 52.5671 45.0758 50.6177C44.216 48.7707 44.1736 46.2396 44.9712 44.3764C45.8708 42.275 47.5188 40.9358 49.7006 40.5328C50.2267 40.4357 51.4532 40.4376 52.0885 40.5366C53.0471 40.686 53.8262 40.9372 54.5189 41.3201C55.0628 41.6208 55.0093 41.4253 55.0093 43.1133V44.5827L54.8439 44.4333C53.9888 43.6607 52.5488 43.1126 51.2144 43.0517C49.3934 42.9687 47.9247 43.9958 47.3628 45.7453C47.1773 46.3229 47.1437 46.5616 47.1439 47.3017C47.1439 48.0337 47.1977 48.4081 47.3846 48.9793C47.6452 49.7758 48.2005 50.5527 48.808 50.9707C49.5142 51.4566 50.5579 51.6954 51.4223 51.569C51.8359 51.5086 52.4064 51.3645 52.4825 51.3014C52.5504 51.245 52.5568 49.8855 52.491 49.4763C52.3892 48.8431 51.9498 47.8015 51.5017 47.131C51.3999 46.9786 51.302 46.83 51.2843 46.8007C51.2586 46.7584 51.6389 46.7474 53.1306 46.7474H55.0093V49.8817V53.016L54.4346 53.2929C53.4865 53.7498 52.8929 53.9622 52.1028 54.127C51.5436 54.2437 50.1783 54.2803 49.6793 54.1919V54.1919ZM63.2388 54.2088C60.6052 53.9645 58.3629 51.7191 57.8215 48.7842C57.7069 48.1627 57.6671 47.0932 57.7346 46.4469C57.9165 44.7043 58.587 43.2494 59.7395 42.0967C60.6342 41.2019 61.594 40.6792 62.7608 40.4516C63.3137 40.3437 64.2811 40.3549 64.8563 40.4758C66.9552 40.9171 68.6856 42.5308 69.4206 44.7322C69.8496 46.017 69.9308 47.6619 69.6353 49.0786C69.4523 49.9562 69.0508 50.8908 68.5476 51.6113C68.195 52.1161 67.3604 52.9385 66.8704 53.2638C65.7666 53.9967 64.5015 54.3259 63.2388 54.2088V54.2088ZM64.3604 51.4113C65.917 51.0606 66.9711 49.5488 67.0622 47.5362C67.1284 46.0725 66.6691 44.786 65.7798 43.9442C65.1075 43.3078 64.3063 43.0255 63.4495 43.1233C61.9598 43.2932 60.8227 44.5604 60.5037 46.4063C60.4174 46.9054 60.4389 47.8786 60.5477 48.3984C60.7006 49.1295 60.9885 49.7706 61.3918 50.2787C62.1398 51.2209 63.2779 51.6551 64.3604 51.4113ZM16.1345 54.0708C16.1466 54.0415 16.5343 53.1924 16.9961 52.184C17.4579 51.1755 18.335 49.2567 18.9454 47.92C20.2767 45.0039 21.0698 43.2682 21.4392 42.4621C21.5896 42.1337 21.8195 41.6294 21.9502 41.3413L22.1877 40.8175L22.5965 40.8296L23.0054 40.8417L23.8639 42.7818C24.3361 43.8489 25.5722 46.6503 26.6107 49.0073C27.6493 51.3642 28.5807 53.4748 28.6805 53.6976L28.862 54.1027L28.7612 54.1161C28.6321 54.1332 27.8035 53.9125 27.2644 53.7173C26.7057 53.5151 26.3076 53.2977 25.3572 52.6758C24.9176 52.3882 24.3788 52.0585 24.1598 51.9432C23.6707 51.6857 22.6617 51.3481 21.951 51.2042C21.3945 51.0915 20.425 50.9931 20.2908 51.0357C20.2432 51.0508 20.1019 51.2814 19.9311 51.6223C19.6077 52.268 19.4725 52.4775 19.1725 52.7969C18.5778 53.43 17.7238 53.8657 16.6973 54.0596C16.2741 54.1396 16.1048 54.1429 16.1345 54.0708V54.0708ZM24.3512 49.4133C24.3512 49.3836 24.1577 48.9204 23.9212 48.3838C23.6847 47.8473 23.3081 46.991 23.0842 46.4809C22.6524 45.4967 22.5905 45.4165 22.4594 45.6707C22.4261 45.7352 22.1362 46.3924 21.8152 47.1311C21.3948 48.0983 21.2426 48.492 21.2712 48.5377C21.2931 48.5725 21.3762 48.6147 21.456 48.6314C22.4977 48.8499 23.0769 49.0273 23.9847 49.4062C24.2372 49.5116 24.3512 49.5138 24.3512 49.413V49.4133ZM5.62661 53.4952C5.6235 53.1727 5.60911 50.8174 5.59463 48.2611C5.57282 44.4081 5.55818 43.5951 5.50902 43.5068C5.4764 43.4482 5.33028 43.2659 5.18431 43.1017C4.63194 42.4805 4.2149 41.8066 4.0143 41.2112C3.96611 41.0681 3.92668 40.9103 3.92668 40.8605V40.7698L6.81554 40.7902C8.67523 40.8033 9.82591 40.8282 10.0455 40.8601C12.6022 41.2311 14.3044 42.3291 15.2391 44.2103C16.2879 46.3211 16.1513 49.259 14.9146 51.1882C14.1888 52.3204 12.9225 53.2938 11.6242 53.7174C10.7571 54.0003 9.825 54.0799 7.36985 54.0808L5.63228 54.0815L5.62661 53.4952ZM10.1179 51.2655C11.0987 51.0656 11.7322 50.7281 12.3167 50.0937C13.0082 49.3432 13.3493 48.1809 13.2253 46.997C13.0751 45.5624 12.4103 44.5495 11.2394 43.9713C10.5232 43.6176 9.60025 43.4433 8.59575 43.472L8.12671 43.4854V47.4083V51.3312L8.31859 51.3598C8.65091 51.4093 9.6756 51.356 10.1179 51.2655ZM30.7472 47.4731V40.8647L30.8569 40.8372C30.9173 40.822 31.0097 40.8292 31.0623 40.8532C31.1149 40.8772 31.5117 41.2208 31.944 41.6167C32.3763 42.0126 33.4207 42.9688 34.265 43.7416C35.1093 44.5144 36.4869 45.7767 37.3265 46.5467C38.5023 47.6251 38.8745 47.9436 38.9468 47.9333L39.0407 47.92L39.0516 44.3916L39.0625 40.8631H40.3774H41.6924L41.7202 41.4707C41.7355 41.8049 41.748 44.7674 41.7481 48.054V54.0296L41.6445 54.0556C41.478 54.0974 41.3504 54.0221 40.951 53.6465C40.744 53.4519 39.8649 52.6405 38.9974 51.8434C38.1299 51.0464 36.5787 49.6169 35.5501 48.6668C34.5216 47.7166 33.6345 46.9213 33.5789 46.8994C33.5232 46.8774 33.4629 46.8742 33.4448 46.8925C33.4268 46.9106 33.4069 48.5355 33.4007 50.5035L33.3894 54.0818H32.0683H30.7472V47.4731ZM75.178 48.7956C75.178 43.6133 75.1764 43.5089 75.0955 43.4656C75.0423 43.4372 74.361 43.4215 73.1767 43.4215H71.3404V42.1423V40.8631H76.5211H81.7019V42.1423V43.4215H79.8656C78.6813 43.4215 78 43.4372 77.9468 43.4656C77.8659 43.5089 77.8643 43.6133 77.8643 48.7956V54.0815H76.5211H75.178V48.7956ZM84.2463 54.0533C84.2306 54.0375 84.2177 51.0633 84.2177 47.4439V40.8631H88.4604C92.5115 40.8631 92.703 40.8669 92.703 40.9396C92.703 41.1045 92.4733 41.7984 92.3049 42.1423C92.0656 42.631 91.5666 43.148 91.1893 43.2983C90.934 43.4 90.9293 43.4002 88.9226 43.4124C87.3097 43.4223 86.9025 43.4359 86.8646 43.4816C86.8319 43.5209 86.8209 43.9164 86.8287 44.7698L86.8401 46.0012L89.0893 46.0123L91.3386 46.0233V47.3022V48.581H89.1298C87.4688 48.581 86.9084 48.5936 86.8699 48.6322C86.8323 48.6698 86.8187 49.0349 86.8187 50.0095C86.8187 50.984 86.8323 51.3491 86.8699 51.3867C86.9086 51.4254 87.5494 51.4379 89.4929 51.4379H92.0647L92.0534 52.7491L92.0421 54.0603L88.1585 54.0712C86.0226 54.0772 84.2621 54.0689 84.2463 54.0534L84.2463 54.0533ZM51.0862 27.9219C50.6304 27.7297 49.6621 27.5887 48.4321 27.5355C47.9468 27.5145 47.7605 27.492 47.7605 27.4543C47.7605 27.3382 48.105 26.879 48.2849 26.7552C48.5071 26.6023 48.5707 26.4583 48.5707 26.1078C48.5707 25.7614 48.4347 25.3634 48.1863 24.983C47.7776 24.3569 47.4675 23.643 47.2892 22.9181C47.1386 22.3058 47.0514 22.3311 46.8041 23.059C46.5329 23.8571 46.323 24.2304 45.8201 24.8092C45.1945 25.5292 45.0878 25.7161 45.0457 26.1669C45.0117 26.5312 45.0748 26.5983 45.4832 26.6326C46.0799 26.6829 46.7018 26.9831 46.8715 27.3029C46.9633 27.4758 46.9794 27.8153 46.8959 27.8153C46.8659 27.8153 46.8006 27.7867 46.7508 27.7518C46.4613 27.549 45.2647 27.5016 43.8909 27.6385C43.3746 27.6899 43.1554 27.6978 43.1554 27.665C43.1554 27.601 43.4393 27.1338 43.5504 27.015C43.6001 26.9617 43.7333 26.8589 43.8462 26.7864C43.9704 26.7067 44.0621 26.6125 44.0783 26.5481C44.1356 26.3198 44.0548 25.7852 43.8768 25.2142C43.7113 24.6837 43.6957 24.5925 43.6773 24.05C43.6581 23.4856 43.6537 23.4619 43.5696 23.4743C43.5073 23.4836 43.4287 23.5932 43.2981 23.853C43.0859 24.275 42.7298 24.7183 42.3651 25.0143C41.9553 25.3469 41.9244 25.3571 41.2719 25.3768C39.9086 25.4177 38.4083 25.1185 37.4417 24.6128C37.1108 24.4396 36.8946 24.2933 36.9306 24.2667C36.942 24.2583 37.172 24.1787 37.4417 24.0898C39.5 23.411 41.1958 22.3638 42.353 21.0569C43.3342 19.9486 44.0078 18.5359 44.2437 17.0913C44.3523 16.4258 44.3084 16.1959 44.0726 16.1959C43.9094 16.1959 43.7969 16.3617 43.6493 16.819C43.3005 17.9004 42.5526 18.8468 41.4711 19.5753C41.1462 19.7942 40.6417 20.0711 40.6155 20.0449C40.6045 20.0339 40.6246 19.8865 40.6602 19.7173C40.7331 19.3709 40.7465 18.6672 40.6833 18.5012C40.6116 18.3124 40.5048 18.3702 40.2354 18.7436C39.9188 19.1826 38.9365 20.1912 38.3158 20.7145C36.8676 21.9357 35.2289 22.9893 33.9968 23.4914C33.7477 23.5929 33.5402 23.6719 33.5356 23.6669C33.5309 23.6616 33.6554 23.3988 33.8121 23.0822C34.5323 21.6273 35.1376 19.9188 35.3909 18.6264C35.5353 17.8896 35.6967 16.6629 35.6616 16.569C35.6251 16.4715 35.5163 16.5137 35.2978 16.7102C35.1788 16.8171 34.9966 16.9544 34.8929 17.0151C34.7365 17.1068 34.6974 17.1154 34.663 17.0658C34.6375 17.0292 34.6302 16.6678 34.6441 16.1319C34.6743 14.9623 34.8103 14.0742 35.1108 13.0832C35.8733 10.5681 37.7139 8.37731 39.3469 8.04126C39.6467 7.97953 39.7453 7.97672 40.0493 8.02103C40.7784 8.12731 41.5841 8.65194 41.9192 9.23873L42.0405 9.45099L41.8769 9.64678C41.668 9.89685 41.4332 10.3317 41.3467 10.6285C41.2609 10.923 41.2589 11.5587 41.3428 11.8806C41.5149 12.5413 41.8977 12.9936 42.4559 13.1957C42.8288 13.3308 43.5338 13.3257 43.9409 13.1851C44.1032 13.1291 44.2542 13.0535 44.2764 13.0172C44.3048 12.9706 44.2721 12.8321 44.1654 12.5472C43.9564 11.989 43.908 11.6655 43.9341 10.9988C43.9511 10.5629 43.9811 10.3549 44.0699 10.0558C44.1917 9.64593 44.4012 9.17711 44.5805 8.91328C44.7176 8.71156 44.7243 8.55856 44.5978 8.51839C44.472 8.47848 44.1121 8.13654 43.9537 7.90641C43.8251 7.71961 43.825 7.71865 43.927 7.74706C43.9834 7.76281 44.1639 7.79713 44.328 7.82333C44.7637 7.89294 45.0427 7.81008 45.6196 7.43953C46.2123 7.05893 46.5181 6.90725 47.0551 6.72757C47.8173 6.4725 48.4244 6.53249 48.8028 6.90025C48.9066 7.00116 49.0506 7.20078 49.1229 7.34385C49.2076 7.51166 49.2804 7.60405 49.3282 7.60415C49.4712 7.60445 49.6841 7.77573 49.7662 7.95665C49.845 8.13031 49.8877 8.74589 49.8252 8.80835C49.8117 8.82191 49.7021 8.78191 49.5817 8.71951C49.3961 8.62327 49.3108 8.60638 49.0201 8.60834C48.7361 8.61062 48.6401 8.62993 48.4602 8.7229C48.0929 8.91276 47.6326 9.49973 47.6326 9.77816C47.6326 9.85679 47.6605 9.8639 47.9679 9.8639C48.8208 9.8639 49.3867 10.1524 49.9165 10.8572C50.2648 11.3205 50.5011 11.8608 50.7033 12.6563C50.7688 12.914 50.8508 13.1427 50.8856 13.1647C50.978 13.2229 51.3873 13.0102 51.6087 12.7888C51.9781 12.4194 52.1772 11.8088 52.1385 11.1644C52.105 10.6072 51.9264 10.149 51.5708 9.70749C51.492 9.60973 51.4276 9.51341 51.4276 9.49345C51.4276 9.42611 52.2144 8.68158 52.4509 8.52515C53.7606 7.65891 55.5407 7.9913 56.7997 9.33718C58.1152 10.7434 59.0605 12.8435 59.3401 14.9807C59.4099 15.5144 59.4485 17.0367 59.3936 17.0918C59.3431 17.1425 58.8515 16.851 58.6946 16.6772C58.4854 16.4456 58.4084 16.4727 58.3643 16.7935C58.3183 17.1282 58.359 18.1022 58.4431 18.6795C58.5214 19.2175 58.7295 20.1459 59.0189 21.2488C59.2728 22.2166 59.4368 22.7105 59.7019 23.3061C59.8141 23.5583 59.8858 23.7645 59.8612 23.7645C59.7746 23.7645 58.992 23.4035 58.6426 23.2024C57.6478 22.6297 56.4879 21.7419 55.6958 20.947C54.9478 20.1963 54.1375 18.9802 53.5596 17.7411C53.406 17.4118 53.3495 17.3293 53.2765 17.3278C53.2061 17.3263 53.1792 17.3587 53.1583 17.4701C53.1112 17.7209 53.131 18.6958 53.1917 19.1168C53.2238 19.3396 53.2429 19.5299 53.2341 19.5398C53.1937 19.5851 52.7342 19.4374 52.3793 19.2651C51.9431 19.0534 51.5601 18.7314 51.344 18.3945C51.2705 18.28 51.1839 18.1761 51.1515 18.1637C51.0231 18.1144 51.0077 18.2369 51.0481 18.9891C51.1672 21.208 50.8054 23.086 49.9145 24.8732C49.6517 25.4004 49.5924 25.6225 49.5817 26.1215C49.5722 26.5587 49.5845 26.5764 49.9706 26.6795C50.7875 26.8977 51.3849 27.3701 51.3849 27.7979C51.3849 27.8985 51.3704 27.9898 51.3527 28.0008C51.335 28.0117 51.2151 27.9762 51.0862 27.9219L51.0862 27.9219Z" fill="white"/>
</svg>
