<svg width="82" height="81" viewBox="0 0 82 81" fill="none" xmlns="http://www.w3.org/2000/svg">
<path d="M10.8125 74.3508H7.67616L7.71664 72.8438V63.4276C7.7121 63.0045 7.68507 62.582 7.63567 62.1619C7.61543 61.9613 7.57111 61.7639 7.50367 61.574C7.42245 61.415 7.3282 61.2631 7.22186 61.1197L7.38382 60.6881H10.8562L14.6833 60.6273C14.9237 60.9852 15.0687 61.3986 15.1044 61.8282C15.1503 62.2649 15.0966 62.7062 14.9473 63.119H14.4703C14.4087 62.8243 14.182 62.5732 13.7901 62.3659C13.4046 62.1601 12.9779 62.0433 12.5414 62.0242L10.7137 61.9432C10.6251 63.5239 10.5811 65.0944 10.5817 66.6546H13.1803C13.3898 66.6546 13.5517 66.6513 13.6662 66.6449C13.8108 66.6309 13.9527 66.5972 14.0881 66.5445C14.2457 66.4888 14.3894 66.3996 14.5092 66.2829C14.5538 66.5146 14.5774 66.7498 14.5796 66.9858C14.5796 67.8366 13.9469 68.262 12.6815 68.262C12.424 68.262 12.0585 68.2553 11.585 68.2418C11.1116 68.2283 10.7698 68.2215 10.5598 68.2215C10.5533 69.1123 10.5636 70.0903 10.5906 71.1554L10.6206 72.7628L10.6716 73.4058C10.6818 73.7252 10.7291 74.0423 10.8125 74.3508Z" fill="white"/>
<path d="M20.0926 69.8703C20.0926 71.7857 20.1671 73.2792 20.3161 74.3508H17.4008L17.5126 67.3389C17.5169 66.9559 17.4794 66.5735 17.4008 66.1987C17.3528 65.9413 17.2672 65.6925 17.1466 65.4601C17.0624 65.3126 16.9562 65.1788 16.8316 65.0633C16.7557 64.986 16.6665 64.923 16.5684 64.8771C16.529 64.862 16.488 64.8519 16.4461 64.8471V64.4754C17.2392 63.9928 17.9877 63.7515 18.6917 63.7515C19.6936 63.7515 20.1944 64.4044 20.1938 65.7104C20.1938 65.9112 20.1771 66.251 20.1436 66.7299C20.1096 67.2093 20.0926 67.5818 20.0926 67.8498V69.8703ZM17.1587 61.1197C17.1554 60.9293 17.1918 60.7403 17.2656 60.5648C17.3393 60.3893 17.4488 60.231 17.5871 60.1001C17.7213 59.9652 17.8813 59.8588 18.0576 59.7871C18.2339 59.7155 18.4228 59.6801 18.6131 59.6831C18.7962 59.6813 18.9778 59.7174 19.1462 59.7892C19.3147 59.861 19.4666 59.9668 19.5921 60.1001C19.7262 60.2334 19.8318 60.3924 19.9025 60.5677C19.9732 60.7429 20.0076 60.9307 20.0035 61.1197C20.006 61.3013 19.9707 61.4815 19.8999 61.6488C19.8291 61.816 19.7243 61.9668 19.5921 62.0914C19.4647 62.2214 19.3122 62.3243 19.144 62.3939C18.9757 62.4634 18.7952 62.4983 18.6131 62.4963C18.2309 62.5027 17.8619 62.3571 17.5871 62.0914C17.4508 61.9691 17.3421 61.8192 17.2683 61.6517C17.1944 61.4841 17.1571 61.3028 17.1587 61.1197Z" fill="white"/>
<path d="M33.1894 73.55V74.0018C32.3705 74.4164 31.6093 74.624 30.9058 74.6246C30.5506 74.6159 30.204 74.5137 29.9009 74.3282C29.5626 74.1387 29.2951 73.8442 29.1389 73.4892C28.2395 74.245 27.3055 74.6229 26.337 74.6229C25.8013 74.6263 25.2696 74.531 24.7684 74.3419C24.2677 74.148 23.8091 73.8593 23.4177 73.4917C23.008 73.1138 22.684 72.5982 22.446 71.945C22.2079 71.2917 22.0894 70.5359 22.0905 69.6776C22.0914 69.1087 22.1613 68.542 22.2986 67.99C22.4402 67.4232 22.6581 66.8784 22.9464 66.3704C23.2269 65.8638 23.5762 65.3986 23.9846 64.9881C24.4038 64.575 24.9005 64.2489 25.4462 64.0285C26.0314 63.7874 26.6589 63.6657 27.2917 63.6705C27.623 63.6771 27.9528 63.7161 28.2764 63.7871C28.6544 63.8638 28.8433 63.9156 28.8433 63.9426C28.8433 63.5204 28.8398 63.1304 28.8328 62.7725C28.8258 62.4145 28.8158 62.0879 28.8028 61.7926C28.7923 61.5283 28.7633 61.265 28.7162 61.0047C28.6793 60.7977 28.6198 60.5954 28.5388 60.4014C28.4693 60.2356 28.3641 60.0871 28.2307 59.9665C28.0973 59.8458 27.939 59.756 27.7671 59.7034V59.3317L28.0513 59.1811C28.3063 59.0479 28.5751 58.9434 28.853 58.8693C29.176 58.7722 29.5111 58.7215 29.8483 58.7187C30.1012 58.7131 30.3538 58.7403 30.5997 58.7996C30.8009 58.8568 30.9842 58.9641 31.1326 59.1114C31.3094 59.2989 31.4305 59.5319 31.4824 59.7844C31.5657 60.156 31.604 60.5364 31.5966 60.9172V61.1788C31.5966 61.2997 31.5799 61.7551 31.5464 62.5449C31.5129 63.3347 31.477 64.3038 31.4387 65.4521C31.4014 66.5977 31.3828 67.666 31.3828 68.6572C31.3828 69.2268 31.386 69.6938 31.3925 70.0582C31.399 70.4226 31.4128 70.7878 31.4338 71.1538C31.4463 71.4411 31.4734 71.7276 31.5148 72.0122C31.5488 72.2214 31.5981 72.4279 31.6622 72.63C31.7046 72.7919 31.7787 72.9439 31.88 73.0771C31.9723 73.1804 32.0803 73.2686 32.1999 73.3386C32.3322 73.4194 32.4787 73.4744 32.6315 73.5006C32.8162 73.5294 33.0026 73.5459 33.1894 73.55ZM27.4132 73.1378C27.9617 73.1378 28.4117 73.0139 28.7631 72.7661L28.7842 70.4047V65.2788C28.0392 65.0979 27.4842 65.0075 27.1193 65.0075C26.712 65.0009 26.3157 65.1399 26.0017 65.3994C25.6761 65.6722 25.4273 66.0253 25.2802 66.4238C25.1204 66.8346 25.0015 67.2602 24.9255 67.6944C24.8514 68.119 24.814 68.5493 24.8138 68.9803C24.8138 70.2862 25.054 71.3058 25.5345 72.0389C26.015 72.772 26.6412 73.1375 27.4132 73.1354V73.1378Z" fill="white"/>
<path d="M42.3074 68.6143L42.1236 68.6912C41.7786 68.8256 41.3116 68.8928 40.7226 68.8928L36.1141 68.8321C36.1271 68.986 36.1344 69.241 36.1344 69.5957C36.1608 70.5934 36.4637 71.3762 37.043 71.9441C37.6222 72.512 38.2668 72.7968 38.9767 72.7984C39.6165 72.7929 40.2476 72.6507 40.8279 72.3814C41.4542 72.1001 42.004 71.6113 42.4775 70.9149C42.5925 71.324 42.5925 71.7569 42.4775 72.166C42.3669 72.5565 42.1591 72.9126 41.8734 73.2009C41.5669 73.5062 41.2161 73.7633 40.8328 73.9637C40.4165 74.1855 39.9727 74.3511 39.5128 74.4561C39.0437 74.565 38.5635 74.6193 38.0819 74.618C37.496 74.6231 36.9137 74.5261 36.3611 74.3314C35.8284 74.1398 35.3379 73.8469 34.9165 73.469C34.4846 73.0846 34.1412 72.5674 33.8864 71.9174C33.6316 71.2674 33.5012 70.5205 33.4953 69.6767C33.4953 68.5721 33.6864 67.571 34.0686 66.6732C34.4508 65.7754 35.0034 65.0644 35.7262 64.5402C36.4422 64.0163 37.309 63.7395 38.1961 63.7515C38.6919 63.745 39.1859 63.811 39.6626 63.9474C40.0453 64.0528 40.4087 64.2187 40.7388 64.439C41.0212 64.639 41.2676 64.8854 41.4677 65.1678C41.6535 65.419 41.81 65.6907 41.9341 65.9776C42.0446 66.2512 42.126 66.5356 42.177 66.8262C42.2253 67.0721 42.2609 67.3202 42.2839 67.5696C42.2977 67.7543 42.3042 67.9429 42.3042 68.1365L42.3074 68.6143ZM38.0641 65.0075C37.8 65.0034 37.5411 65.0805 37.3223 65.2285C37.089 65.3957 36.9008 65.6183 36.7749 65.8764C36.6253 66.1618 36.5011 66.4598 36.404 66.7671C36.2936 67.1283 36.2038 67.4954 36.1352 67.8668C36.5347 67.8603 37.1369 67.8404 37.9418 67.8069C38.7468 67.7734 39.3695 67.7532 39.81 67.7462C39.8037 67.4234 39.7663 67.1021 39.6983 66.7866C39.6328 66.4824 39.5305 66.1874 39.3938 65.9079C39.269 65.6461 39.0805 65.4197 38.8456 65.2496C38.6174 65.0879 38.3437 65.0031 38.0641 65.0075Z" fill="white"/>
<path d="M47.6184 74.3508H44.7031C44.7436 72.2454 44.7639 70.2965 44.7639 68.5041L44.8149 62.0444C44.8149 61.3675 44.705 60.8276 44.4853 60.4249C44.2656 60.0221 44.0208 59.7814 43.7508 59.7025V59.3308L44.0351 59.1802C44.2972 59.0475 44.5728 58.943 44.857 58.8685C45.1868 58.7713 45.5286 58.7206 45.8725 58.7178C46.5203 58.7178 46.967 58.8855 47.2127 59.2207C47.4583 59.556 47.58 60.0715 47.5779 60.7674C47.5779 61.1896 47.5576 61.6719 47.5172 62.2145C47.4308 63.6818 47.3876 65.4836 47.3876 67.6199V70.242C47.3876 70.9918 47.4046 71.7185 47.4386 72.4219C47.4659 73.0675 47.5259 73.7113 47.6184 74.3508Z" fill="white"/>
<path d="M53.1833 69.8703C53.1833 71.7857 53.2578 73.2792 53.4068 74.3508H50.4916L50.6041 67.3388C50.6085 66.9558 50.5708 66.5734 50.4916 66.1987C50.4441 65.9413 50.3587 65.6924 50.2381 65.4601C50.154 65.3126 50.0477 65.1788 49.9231 65.0633C49.8471 64.9858 49.7576 64.9227 49.6591 64.8771C49.6201 64.8619 49.5792 64.8518 49.5376 64.8471V64.4754C50.3301 63.9928 51.0784 63.7515 51.7824 63.7515C52.7843 63.7515 53.2851 64.4044 53.2845 65.7104C53.2845 65.9112 53.2678 66.251 53.2343 66.7299C53.2003 67.2093 53.1833 67.5818 53.1833 67.8498V69.8703ZM50.2494 61.1197C50.2458 60.9295 50.2818 60.7406 50.3552 60.5651C50.4285 60.3896 50.5375 60.2312 50.6754 60.1001C50.8095 59.9653 50.9694 59.8589 51.1455 59.7872C51.3217 59.7155 51.5104 59.6801 51.7006 59.6831C51.8838 59.6813 52.0655 59.7174 52.2341 59.7892C52.4027 59.8609 52.5547 59.9668 52.6804 60.1001C52.8145 60.2334 52.92 60.3924 52.9908 60.5677C53.0615 60.7429 53.0958 60.9307 53.0918 61.1197C53.0943 61.3013 53.059 61.4815 52.9882 61.6487C52.9174 61.816 52.8126 61.9668 52.6804 62.0914C52.5528 62.2214 52.4002 62.3243 52.2318 62.3939C52.0635 62.4635 51.8828 62.4983 51.7006 62.4963C51.3187 62.5026 50.9499 62.3569 50.6754 62.0914C50.5395 61.9689 50.4313 61.8189 50.3579 61.6514C50.2844 61.4838 50.2475 61.3026 50.2494 61.1197Z" fill="white"/>
<path d="M59.4978 62.255L59.2638 63.9628H61.2073C61.4274 63.9609 61.6468 63.9357 61.8616 63.8875C62.0959 63.8373 62.2433 63.752 62.3037 63.6316C62.3468 63.7921 62.3672 63.9579 62.3645 64.124C62.3645 64.9473 61.769 65.3592 60.5781 65.3597C60.4701 65.3597 60.245 65.3495 59.9027 65.329C59.5604 65.3084 59.3286 65.2985 59.2071 65.299V69.9302C59.2006 70.1245 59.2006 70.3294 59.2071 70.5432C59.2136 70.757 59.2225 70.97 59.2322 71.1813C59.2416 71.3856 59.2758 71.5879 59.3342 71.7838C59.3853 71.9599 59.4585 72.1289 59.5521 72.2867C59.645 72.4347 59.7766 72.5546 59.9327 72.6333C60.1138 72.7235 60.3142 72.7682 60.5165 72.7636C60.9611 72.7598 61.4026 72.6902 61.8268 72.5572C62.2794 72.4203 62.5645 72.2381 62.6795 72.0097C62.7667 72.2127 62.8022 72.4342 62.7827 72.6543C62.7632 72.8743 62.6893 73.0861 62.5677 73.2706C62.3178 73.6825 61.9269 74.0107 61.3952 74.2553C60.8584 74.5011 60.2744 74.6263 59.6841 74.6221C59.0486 74.6221 58.5226 74.5484 58.1058 74.401C57.7252 74.2797 57.3929 74.0406 57.1567 73.7184C56.9381 73.4061 56.7859 73.0522 56.7097 72.6786C56.621 72.2067 56.5803 71.727 56.5882 71.2469C56.5882 70.7378 56.622 69.982 56.6895 68.9795C56.7569 67.977 56.7907 67.2436 56.7907 66.7793C56.7907 65.9889 56.73 65.5168 56.6085 65.363C56.3393 65.0197 55.9777 64.7604 55.5663 64.6155L55.6675 64.0033C55.7498 63.9998 55.8314 63.9862 55.9104 63.9628C56.0723 63.9132 56.2302 63.8512 56.3826 63.7774C56.6488 63.6406 56.8894 63.4587 57.0935 63.2397C57.3811 62.9443 57.6298 62.6134 57.8337 62.255H59.4978Z" fill="white"/>
<path d="M69.1789 74.3306L68.9359 74.2302C68.7318 74.1419 68.5474 74.0139 68.3934 73.8536C68.2007 73.6741 68.0588 73.447 67.982 73.1952L66.164 67.4765C66.0478 67.0873 65.9002 66.7082 65.7227 66.3428C65.5938 66.07 65.4406 65.8093 65.2651 65.5638C65.1426 65.3975 65.0052 65.2427 64.8546 65.1014C64.7602 65.0116 64.658 64.9303 64.5493 64.8584C64.5024 64.828 64.4514 64.8043 64.3979 64.788L64.3768 64.4163C64.6579 64.223 64.9635 64.0678 65.2854 63.9547C65.6075 63.8275 65.9497 63.7586 66.296 63.7515C66.8785 63.7515 67.3047 63.8886 67.5747 64.1628C67.8446 64.4371 68.0605 64.8757 68.2225 65.4787C68.3575 66.2561 68.8989 67.9567 69.8469 70.5804L70.0955 71.0874C70.2478 71.3989 70.3306 71.5748 70.3441 71.6153L70.4454 71.1934C70.4995 70.9508 70.5709 70.7124 70.6592 70.48L71.9686 66.7728C72.1581 66.2443 72.2528 65.8124 72.2528 65.4771C72.2528 65.1419 72.1378 64.9108 71.9078 64.7839L71.8665 64.4123C72.3354 64.0097 72.9262 63.7769 73.5436 63.7515C74.0295 63.7515 74.2724 64.006 74.2724 64.5151C74.2724 64.8698 74.0997 65.4725 73.7542 66.3234L69.6153 76.4101C69.4663 76.7718 69.3411 77.065 69.2396 77.2895C69.1381 77.5141 69.0072 77.7792 68.8468 78.0847C68.7137 78.347 68.5486 78.5918 68.3553 78.8136C68.1745 79.0087 67.9793 79.1901 67.7714 79.3561C67.55 79.5362 67.2943 79.6695 67.02 79.7481C66.7215 79.8305 66.4129 79.8703 66.1033 79.8663C65.4803 79.8663 64.9912 79.632 64.6359 79.1634C64.2807 78.6948 64.1727 78.112 64.312 77.4151C64.4475 77.5824 64.6659 77.7198 64.9671 77.8272C65.2585 77.933 65.5658 77.9877 65.8757 77.9892C66.3897 77.9892 66.8278 77.8939 67.19 77.7033C67.5351 77.5303 67.8071 77.2397 67.9569 76.8838L68.9286 74.7646L69.1789 74.3306Z" fill="white"/>
<path d="M62.7368 1.29803C62.2191 1.20245 61.6938 1.15447 61.1674 1.15469H12.1039C11.9871 1.15491 11.8752 1.20139 11.7926 1.28396C11.71 1.36653 11.6635 1.47845 11.6633 1.59522V42.7382C11.6626 44.6914 12.3234 46.5872 13.538 48.1168C27.7012 42.6346 52.5966 23.4863 63.826 1.57012C63.4693 1.45551 63.1054 1.36461 62.7368 1.29803Z" fill="white"/>
<path d="M69.8309 9.81944V50.9608C69.8307 51.0776 69.7842 51.1895 69.7016 51.2721C69.619 51.3547 69.5071 51.4011 69.3904 51.4014H20.3268C19.0242 51.4025 17.7382 51.1096 16.5645 50.5446C30.9901 44.77 55.9648 25.3496 66.8679 3.29578C67.8 4.10765 68.5469 5.11023 69.0581 6.23571C69.5693 7.36119 69.8328 8.58332 69.8309 9.81944Z" fill="white"/>
</svg>
