<svg width="135" height="45" viewBox="0 0 135 45" fill="none" xmlns="http://www.w3.org/2000/svg">
<g clip-path="url(#clip0)">
<path d="M16.7554 0.272156H17.9486C22.0911 0.362209 26.166 2.0282 29.0927 4.97744C28.0121 6.0806 26.9089 7.13872 25.8508 8.24188C24.2073 6.756 22.2262 5.60782 20.0649 5.20258C16.868 4.52718 13.4234 5.13504 10.7444 6.95862C7.81763 8.87225 5.83646 12.1142 5.4087 15.5812C4.93592 19.0032 5.904 22.6054 8.13282 25.262C10.2716 27.851 13.536 29.4719 16.913 29.5845C20.0649 29.7646 23.3518 28.7965 25.6482 26.5902C27.4493 25.0368 28.2822 22.6729 28.5524 20.3766C24.8152 20.3766 21.078 20.3991 17.3408 20.3766V15.7388H33.0776C33.8881 20.7143 32.7174 26.3201 28.9351 29.8772C26.4136 32.3987 22.9241 33.8846 19.367 34.1772C15.9224 34.5149 12.3653 33.862 9.30351 32.1961C5.63384 30.2374 2.7071 26.9279 1.26625 23.0331C-0.0845511 19.4535 -0.107064 15.4011 1.15368 11.799C2.30186 8.51204 4.50817 5.60782 7.34485 3.58162C10.069 1.57793 13.3784 0.474776 16.7554 0.272156Z" fill="white"/>
<path d="M107.034 1.44263H111.852V33.5917C110.253 33.5917 108.632 33.6142 107.034 33.5691C107.056 22.8753 107.034 12.159 107.034 1.44263Z" fill="white"/>
<path d="M43.7933 12.5869C46.7651 12.024 49.9845 12.6544 52.4384 14.4329C54.6673 16.0089 56.2207 18.4853 56.6935 21.1869C57.3013 24.3163 56.5359 27.7383 54.5097 30.2148C52.3259 32.9839 48.7463 34.4698 45.2567 34.2447C42.0598 34.0646 38.953 32.4661 37.0618 29.8546C34.9231 26.9729 34.4053 23.0105 35.576 19.6335C36.7467 16.0089 40.0561 13.2397 43.7933 12.5869ZM44.4687 16.8644C43.253 17.1796 42.1273 17.8775 41.3169 18.8681C39.1331 21.4796 39.2681 25.7346 41.6771 28.1661C43.0504 29.5619 45.1216 30.2148 47.0352 29.8321C48.8138 29.5169 50.3672 28.3237 51.2227 26.7477C52.7086 24.0687 52.2809 20.3765 50.007 18.2827C48.5436 16.9319 46.4049 16.3691 44.4687 16.8644Z" fill="white"/>
<path d="M67.6578 12.5867C71.0573 11.9339 74.772 12.8794 77.316 15.2658C81.4585 18.9805 81.9088 25.9372 78.3742 30.2147C76.2354 32.9163 72.7684 34.4022 69.3463 34.2446C66.0819 34.1545 62.8625 32.5336 60.9263 29.8545C58.7426 26.9052 58.2698 22.8528 59.508 19.4083C60.7462 15.8962 63.9882 13.2171 67.6578 12.5867ZM68.3332 16.8643C67.1175 17.1795 65.9918 17.8774 65.1814 18.8454C63.0201 21.412 63.1101 25.5995 65.429 28.0534C66.8023 29.5168 68.9411 30.2372 70.9223 29.832C72.6783 29.4943 74.2542 28.3236 75.1097 26.7476C76.5731 24.046 76.1454 20.3538 73.849 18.2601C72.3856 16.9093 70.2469 16.369 68.3332 16.8643Z" fill="white"/>
<path d="M87.8975 13.8927C90.4865 12.2717 93.931 11.8214 96.7227 13.2173C97.6007 13.6 98.3211 14.2529 99.019 14.9058C99.0416 14.2979 99.019 13.6675 99.0416 13.0372C100.55 13.0597 102.058 13.0372 103.589 13.0597V32.9164C103.567 35.9107 102.801 39.0851 100.64 41.2689C98.2761 43.6778 94.6515 44.4207 91.387 43.9255C87.8975 43.4076 84.8582 40.8636 83.5074 37.6442C84.8582 36.9913 86.2765 36.4735 87.6723 35.8657C88.4603 37.7118 90.0587 39.2877 92.0624 39.6479C94.0661 40.0081 96.385 39.5128 97.6908 37.8469C99.0866 36.1358 99.0866 33.7945 99.019 31.7007C97.9834 32.7138 96.7902 33.6143 95.3494 33.952C92.22 34.8301 88.7755 33.7494 86.3666 31.6332C83.9351 29.5169 82.4943 26.2525 82.6293 23.0106C82.6969 19.3409 84.7681 15.8063 87.8975 13.8927ZM92.5577 16.7744C91.1844 16.9995 89.9011 17.765 89.0231 18.8231C86.9069 21.3446 86.9069 25.3745 89.0456 27.8509C90.2614 29.3143 92.22 30.1248 94.1111 29.9222C95.8897 29.7421 97.5332 28.6164 98.4112 27.063C99.8971 24.4289 99.6494 20.8493 97.6457 18.5529C96.4075 17.1346 94.4263 16.4367 92.5577 16.7744Z" fill="white"/>
<path d="M117.638 15.0407C120.339 12.5192 124.504 11.6637 127.971 12.992C131.258 14.2303 133.352 17.3596 134.41 20.579C129.525 22.6052 124.662 24.6089 119.776 26.6351C120.452 27.9184 121.487 29.0891 122.883 29.5618C124.842 30.2598 127.183 30.0121 128.827 28.7063C129.48 28.211 129.997 27.5582 130.493 26.9278C131.731 27.7608 132.969 28.5713 134.207 29.4042C132.451 32.0383 129.502 33.8844 126.328 34.1771C122.816 34.6048 119.078 33.254 116.805 30.5074C113.067 26.1848 113.428 18.9355 117.638 15.0407ZM120.047 19.2057C119.281 20.3089 118.966 21.6597 118.988 22.9879C122.253 21.6371 125.517 20.2863 128.782 18.913C128.241 17.6523 126.936 16.8868 125.607 16.6842C123.469 16.3015 121.24 17.4497 120.047 19.2057Z" fill="white"/>
</g>
<defs>
<clipPath id="clip0">
<rect width="134.179" height="43.7962" fill="white" transform="translate(0.230469 0.268127)"/>
</clipPath>
</defs>
</svg>
