<svg width="438" height="399" viewBox="0 0 438 399" fill="none" xmlns="http://www.w3.org/2000/svg">
<line x1="337.035" y1="78.3818" x2="370.547" y2="61.8916" stroke="#282828" stroke-width="0.372353"/>
<line x1="230.851" y1="248.279" x2="217.068" y2="304.852" stroke="#111111" stroke-width="0.372353"/>
<line x1="122.345" y1="116.91" x2="65.7373" y2="103.272" stroke="#282828" stroke-width="0.372353"/>
<path d="M199.835 40.6868C214.843 35.6402 230.918 34.6433 246.434 37.7965C261.951 40.9497 276.362 48.1415 288.21 58.6457C300.058 69.1498 308.925 82.5943 313.915 97.6215C318.905 112.649 319.841 128.727 316.629 144.231L289.822 138.679C292.056 127.891 291.405 116.704 287.933 106.249C284.461 95.7935 278.292 86.4393 270.048 79.1308C261.805 71.8224 251.779 66.8186 240.983 64.6247C230.187 62.4308 219.003 63.1245 208.56 66.6357L199.835 40.6868Z" fill="#025B8F"/>
<path d="M319.1 144.54C315.823 160.536 308.367 175.38 297.492 187.561C286.618 199.742 272.711 208.826 257.187 213.889C241.662 218.953 225.074 219.815 209.108 216.388C193.143 212.961 178.37 205.367 166.291 194.379L185.221 173.569C193.625 181.215 203.904 186.498 215.012 188.882C226.121 191.267 237.662 190.667 248.464 187.144C259.265 183.621 268.941 177.301 276.507 168.826C284.073 160.351 289.261 150.023 291.541 138.893L319.1 144.54Z" fill="black"/>
<path d="M167.994 192.572C156.368 182.006 147.71 168.58 142.883 153.63C138.055 138.68 137.226 122.726 140.478 107.356C143.729 91.9856 150.948 77.7344 161.416 66.0198C171.884 54.3053 185.237 45.5355 200.146 40.5827L208.777 66.5633C198.404 70.0092 189.113 76.1109 181.83 84.2616C174.546 92.4122 169.524 102.328 167.261 113.022C164.999 123.716 165.576 134.816 168.935 145.218C172.294 155.62 178.317 164.961 186.406 172.313L167.994 192.572Z" fill="#2B83B7"/>
<path d="M351.987 150.987C347.577 172.761 337.487 192.982 322.74 209.599C307.994 226.216 289.115 238.638 268.019 245.605C246.923 252.571 224.36 253.835 202.617 249.268C180.875 244.701 160.727 234.466 144.217 219.6L168.079 193.099C179.915 203.757 194.36 211.095 209.948 214.369C225.536 217.644 241.712 216.738 256.837 211.743C271.961 206.748 285.496 197.843 296.068 185.929C306.641 174.016 313.874 159.519 317.036 143.908L351.987 150.987Z" fill="#1B1A1A"/>
<path d="M190.815 12.2938C210.733 5.68876 232.037 4.43258 252.593 8.65107C273.149 12.8696 292.236 22.4147 307.943 36.3306C323.649 50.2464 335.424 68.0447 342.088 87.9429C348.752 107.841 350.072 129.141 345.914 149.71L312.682 142.992C315.663 128.246 314.717 112.975 309.939 98.7097C305.162 84.444 296.72 71.6838 285.459 61.7071C274.199 51.7303 260.514 44.8871 245.777 41.8627C231.04 38.8383 215.766 39.7389 201.486 44.4743L190.815 12.2938Z" fill="#0C84CB"/>
<path d="M153.45 209.541C138.81 196.39 127.882 179.623 121.761 160.919C115.639 142.215 114.539 122.232 118.571 102.969C122.602 83.7069 131.623 65.8416 144.731 51.1626C157.84 36.4835 174.574 25.506 193.259 19.3291L203.239 49.5181C189.843 53.9465 177.845 61.8167 168.448 72.3406C159.05 82.8645 152.582 95.6728 149.692 109.483C146.802 123.293 147.59 137.62 151.979 151.029C156.368 164.438 164.203 176.459 174.699 185.888L153.45 209.541Z" fill="#3FA0D9"/>
<circle cx="370.041" cy="61.4704" r="3.10294" transform="rotate(-30.4323 370.041 61.4704)" fill="#282828"/>
<circle cx="396.694" cy="57.094" r="27.1197" stroke="#282828" stroke-width="0.372353"/>
<path d="M209.099 345.992L213.266 322.555C217.239 322.555 218.492 322.991 218.672 324.769C218.672 324.769 221.337 323.775 222.681 321.757C217.437 319.327 212.167 319.217 212.167 319.217L209.092 322.963L209.099 322.962L206.024 319.217C206.024 319.217 200.755 319.327 195.511 321.757C196.854 323.775 199.519 324.768 199.519 324.768C199.701 322.99 200.953 322.555 204.898 322.552L209.099 345.992Z" fill="#E82127"/>
<path d="M209.096 318.136C213.336 318.104 218.188 318.792 223.156 320.957C223.82 319.762 223.99 319.234 223.99 319.234C218.56 317.086 213.475 316.35 209.096 316.332C204.717 316.35 199.632 317.086 194.202 319.234C194.202 319.234 194.444 319.885 195.036 320.957C200.003 318.792 204.856 318.104 209.096 318.136H209.096Z" fill="#E82127"/>
<circle cx="65.916" cy="102.876" r="3.10294" transform="rotate(-168.444 65.916 102.876)" fill="#282828"/>
<circle cx="208.357" cy="331.033" r="27.1197" transform="rotate(121.545 208.357 331.033)" stroke="#111111" stroke-width="0.372353"/>
<circle cx="39.5335" cy="94.6274" r="27.1197" transform="rotate(-148.602 39.5335 94.6274)" stroke="#282828" stroke-width="0.372353"/>
<g clip-path="url(#clip0)">
<path d="M55.1457 104.927C55.1457 105.273 54.8914 105.506 54.5904 105.506V105.503C54.2809 105.506 54.0313 105.273 54.0313 104.927C54.0313 104.581 54.2809 104.349 54.5904 104.349C54.8915 104.349 55.1457 104.581 55.1457 104.927ZM55.3709 104.927C55.3709 104.452 55.0018 104.176 54.5904 104.176C54.1762 104.176 53.8071 104.452 53.8071 104.927C53.8071 105.402 54.1763 105.679 54.5904 105.679C55.0019 105.679 55.3709 105.402 55.3709 104.927ZM54.461 104.99H54.5445L54.7382 105.33H54.9508L54.7363 104.976C54.8472 104.968 54.9383 104.915 54.9383 104.766C54.9383 104.581 54.8105 104.521 54.594 104.521H54.2808V105.33H54.4609V104.99H54.461ZM54.461 104.853V104.659H54.5862C54.6543 104.659 54.7472 104.664 54.7472 104.747C54.7472 104.838 54.6991 104.853 54.6188 104.853H54.461Z" fill="black"/>
<path d="M50.1148 100.788L51.0879 103.45H49.1116L50.1148 100.788ZM49.0727 99.7511L46.8302 105.433H48.4137L48.7684 104.429H51.4222L51.7579 105.433H53.4769L51.2177 99.7504L49.0727 99.7511ZM44.5705 105.435H46.1771V99.7494L44.5702 99.749L44.5705 105.435ZM33.4176 99.749L32.0772 104.255L30.7932 99.7494L29.0598 99.749L30.8936 105.435H33.208L35.0566 99.749H33.4176ZM39.9115 100.987H40.6019C41.6037 100.987 42.2515 101.437 42.2515 102.604C42.2515 103.771 41.6037 104.221 40.6019 104.221H39.9115V100.987ZM38.3184 99.749V105.435H40.9229C42.3106 105.435 42.7637 105.204 43.2537 104.687C43.5997 104.323 43.8236 103.526 43.8236 102.654C43.8236 101.855 43.6341 101.142 43.3039 100.698C42.7088 99.9043 41.8516 99.749 40.5723 99.749H38.3184ZM23.1001 99.7411V105.435H24.7202V101.112L25.9756 101.112C26.3912 101.112 26.6875 101.216 26.8877 101.429C27.1416 101.7 27.2453 102.136 27.2453 102.935V105.435H28.8152V102.289C28.8152 100.044 27.3841 99.7411 25.9838 99.7411H23.1001ZM35.7328 99.749L35.7334 105.435H37.3392V99.749H35.7328Z" fill="black"/>
<path d="M27.418 88.4277C27.418 88.4277 29.4842 85.3791 33.6099 85.0637V83.9576C29.0402 84.3246 25.083 88.195 25.083 88.195C25.083 88.195 27.3243 94.6742 33.6099 95.2674V94.0917C28.9972 93.5115 27.418 88.4277 27.418 88.4277ZM33.6099 91.7537V92.8303C30.1238 92.2088 29.1561 88.5849 29.1561 88.5849C29.1561 88.5849 30.8299 86.7306 33.6099 86.4299V87.6114C33.6078 87.6114 33.6064 87.6107 33.6046 87.6107C32.1455 87.4356 31.0057 88.7987 31.0057 88.7987C31.0057 88.7987 31.6446 91.0933 33.6099 91.7537ZM33.6099 81.9176V83.9576C33.7441 83.9473 33.8782 83.9386 34.0131 83.934C39.2084 83.7589 42.5935 88.195 42.5935 88.195C42.5935 88.195 38.7056 92.9225 34.6551 92.9225C34.2839 92.9225 33.9363 92.8881 33.6099 92.8303V94.0917C33.8891 94.1272 34.1785 94.148 34.4805 94.148C38.2497 94.148 40.9755 92.2231 43.615 89.9448C44.0526 90.2952 45.8441 91.1479 46.2124 91.5211C43.7028 93.6222 37.8541 95.3159 34.5382 95.3159C34.2186 95.3159 33.9116 95.2965 33.6099 95.2674V97.04H47.9366V81.9176H33.6099ZM33.6099 86.4299V85.0638C33.7427 85.0545 33.8765 85.0473 34.0131 85.043C37.749 84.9257 40.2 88.2535 40.2 88.2535C40.2 88.2535 37.5527 91.9302 34.7142 91.9302C34.3057 91.9302 33.9395 91.8645 33.6098 91.7537V87.6114C35.0642 87.7871 35.357 88.4296 36.2314 89.8872L38.1761 88.2474C38.1761 88.2474 36.7565 86.3856 34.3634 86.3856C34.1033 86.3855 33.8544 86.4038 33.6099 86.4299Z" fill="#77B900"/>
</g>
<circle cx="216.673" cy="304.672" r="3.10294" transform="rotate(101.702 216.673 304.672)" fill="#111111"/>
<path d="M172.058 370.9C173.415 370.9 174.396 371.459 175.002 372.577C175.471 373.441 175.705 374.625 175.705 376.129C175.705 377.555 175.493 378.734 175.068 379.667C174.453 381.005 173.447 381.674 172.05 381.674C170.791 381.674 169.853 381.127 169.238 380.033C168.725 379.12 168.469 377.895 168.469 376.356C168.469 375.165 168.623 374.142 168.93 373.288C169.506 371.696 170.549 370.9 172.058 370.9ZM172.043 380.473C172.727 380.473 173.271 380.17 173.676 379.564C174.082 378.959 174.284 377.831 174.284 376.181C174.284 374.989 174.138 374.01 173.845 373.244C173.552 372.472 172.983 372.086 172.138 372.086C171.362 372.086 170.793 372.453 170.432 373.185C170.075 373.913 169.897 374.987 169.897 376.408C169.897 377.477 170.012 378.336 170.241 378.986C170.593 379.977 171.193 380.473 172.043 380.473ZM177.631 379.792H179.162V381.388H177.631V379.792ZM184.421 381.674C183.181 381.674 182.28 381.334 181.718 380.656C181.162 379.972 180.883 379.142 180.883 378.166H182.26C182.319 378.844 182.446 379.337 182.641 379.645C182.983 380.197 183.601 380.473 184.494 380.473C185.188 380.473 185.744 380.287 186.164 379.916C186.584 379.545 186.794 379.066 186.794 378.48C186.794 377.758 186.572 377.252 186.127 376.964C185.688 376.676 185.075 376.532 184.289 376.532C184.201 376.532 184.111 376.535 184.018 376.54C183.93 376.54 183.84 376.542 183.747 376.547V375.382C183.884 375.397 183.999 375.407 184.091 375.412C184.184 375.417 184.284 375.419 184.392 375.419C184.885 375.419 185.29 375.341 185.607 375.185C186.164 374.911 186.442 374.423 186.442 373.72C186.442 373.197 186.257 372.794 185.886 372.511C185.515 372.228 185.083 372.086 184.589 372.086C183.71 372.086 183.103 372.379 182.766 372.965C182.58 373.288 182.475 373.747 182.451 374.342H181.147C181.147 373.561 181.303 372.897 181.616 372.35C182.153 371.374 183.098 370.885 184.45 370.885C185.52 370.885 186.347 371.125 186.933 371.603C187.519 372.077 187.812 372.765 187.812 373.668C187.812 374.313 187.639 374.835 187.292 375.236C187.077 375.485 186.799 375.68 186.457 375.822C187.009 375.973 187.438 376.266 187.746 376.701C188.059 377.13 188.215 377.658 188.215 378.283C188.215 379.284 187.885 380.099 187.226 380.729C186.567 381.359 185.632 381.674 184.421 381.674ZM192.932 370.9C194.289 370.9 195.271 371.459 195.876 372.577C196.345 373.441 196.579 374.625 196.579 376.129C196.579 377.555 196.367 378.734 195.942 379.667C195.327 381.005 194.321 381.674 192.924 381.674C191.665 381.674 190.727 381.127 190.112 380.033C189.599 379.12 189.343 377.895 189.343 376.356C189.343 375.165 189.497 374.142 189.804 373.288C190.38 371.696 191.423 370.9 192.932 370.9ZM192.917 380.473C193.601 380.473 194.145 380.17 194.55 379.564C194.956 378.959 195.158 377.831 195.158 376.181C195.158 374.989 195.012 374.01 194.719 373.244C194.426 372.472 193.857 372.086 193.012 372.086C192.236 372.086 191.667 372.453 191.306 373.185C190.949 373.913 190.771 374.987 190.771 376.408C190.771 377.477 190.886 378.336 191.115 378.986C191.467 379.977 192.067 380.473 192.917 380.473ZM203.493 377.917C203.527 378.527 203.671 379.022 203.925 379.403C204.409 380.116 205.261 380.473 206.481 380.473C207.028 380.473 207.526 380.395 207.976 380.238C208.845 379.936 209.279 379.394 209.279 378.612C209.279 378.026 209.096 377.609 208.73 377.36C208.359 377.116 207.778 376.903 206.987 376.723L205.529 376.393C204.577 376.178 203.903 375.941 203.508 375.683C202.824 375.233 202.482 374.562 202.482 373.668C202.482 372.702 202.817 371.908 203.486 371.288C204.155 370.668 205.102 370.358 206.328 370.358C207.456 370.358 208.413 370.631 209.199 371.178C209.99 371.72 210.385 372.589 210.385 373.786H209.016C208.942 373.209 208.786 372.768 208.547 372.46C208.103 371.898 207.348 371.618 206.284 371.618C205.424 371.618 204.807 371.798 204.431 372.16C204.055 372.521 203.867 372.941 203.867 373.419C203.867 373.947 204.086 374.333 204.526 374.577C204.814 374.733 205.466 374.928 206.481 375.163L207.99 375.507C208.718 375.673 209.279 375.9 209.675 376.188C210.358 376.691 210.7 377.421 210.7 378.378C210.7 379.569 210.266 380.421 209.396 380.934C208.532 381.447 207.526 381.703 206.379 381.703C205.041 381.703 203.994 381.361 203.237 380.678C202.48 379.999 202.109 379.079 202.124 377.917H203.493ZM212.37 370.592H213.688V374.606C214.001 374.21 214.282 373.932 214.531 373.771C214.956 373.493 215.485 373.354 216.12 373.354C217.258 373.354 218.029 373.751 218.435 374.547C218.654 374.982 218.764 375.585 218.764 376.356V381.388H217.409V376.444C217.409 375.868 217.336 375.446 217.189 375.177C216.95 374.748 216.501 374.533 215.842 374.533C215.295 374.533 214.799 374.721 214.355 375.097C213.911 375.473 213.688 376.183 213.688 377.228V381.388H212.37V370.592ZM221.73 379.301C221.73 379.682 221.87 379.982 222.148 380.202C222.426 380.421 222.756 380.531 223.137 380.531C223.601 380.531 224.05 380.424 224.484 380.209C225.217 379.853 225.583 379.269 225.583 378.458V377.396C225.422 377.499 225.214 377.584 224.96 377.653C224.707 377.721 224.458 377.77 224.213 377.799L223.415 377.902C222.937 377.965 222.578 378.065 222.338 378.202C221.933 378.432 221.73 378.798 221.73 379.301ZM224.924 376.635C225.227 376.596 225.429 376.469 225.532 376.254C225.59 376.137 225.62 375.968 225.62 375.749C225.62 375.299 225.458 374.975 225.136 374.774C224.819 374.569 224.362 374.467 223.767 374.467C223.078 374.467 222.59 374.652 222.302 375.023C222.141 375.229 222.036 375.534 221.987 375.939H220.756C220.781 374.972 221.093 374.301 221.694 373.925C222.299 373.544 223 373.354 223.796 373.354C224.719 373.354 225.468 373.529 226.044 373.881C226.616 374.232 226.901 374.779 226.901 375.521V380.041C226.901 380.177 226.928 380.287 226.982 380.37C227.041 380.453 227.16 380.495 227.341 380.495C227.399 380.495 227.465 380.492 227.539 380.487C227.612 380.478 227.69 380.465 227.773 380.451V381.425C227.568 381.483 227.412 381.52 227.304 381.535C227.197 381.549 227.05 381.557 226.865 381.557C226.411 381.557 226.081 381.396 225.876 381.073C225.769 380.902 225.693 380.661 225.649 380.348C225.38 380.7 224.995 381.005 224.492 381.264C223.989 381.522 223.435 381.652 222.829 381.652C222.102 381.652 221.506 381.432 221.042 380.993C220.583 380.548 220.354 379.994 220.354 379.33C220.354 378.603 220.581 378.039 221.035 377.638C221.489 377.238 222.084 376.991 222.822 376.898L224.924 376.635ZM229.106 373.544H230.358V374.899C230.461 374.635 230.712 374.315 231.113 373.939C231.513 373.559 231.975 373.368 232.497 373.368C232.521 373.368 232.563 373.371 232.622 373.375C232.68 373.38 232.78 373.39 232.922 373.405V374.796C232.844 374.782 232.771 374.772 232.702 374.767C232.639 374.762 232.568 374.76 232.49 374.76C231.826 374.76 231.315 374.975 230.959 375.404C230.603 375.829 230.424 376.32 230.424 376.876V381.388H229.106V373.544ZM237.331 373.368C237.888 373.368 238.427 373.5 238.95 373.764C239.472 374.022 239.87 374.359 240.144 374.774C240.407 375.17 240.583 375.631 240.671 376.159C240.749 376.52 240.788 377.096 240.788 377.887H235.039C235.063 378.683 235.251 379.323 235.603 379.806C235.954 380.285 236.499 380.524 237.236 380.524C237.924 380.524 238.474 380.297 238.884 379.843C239.118 379.579 239.284 379.274 239.382 378.927H240.678C240.644 379.215 240.529 379.538 240.334 379.894C240.144 380.246 239.929 380.534 239.689 380.758C239.289 381.149 238.793 381.413 238.203 381.549C237.885 381.627 237.526 381.667 237.126 381.667C236.149 381.667 235.322 381.312 234.643 380.604C233.964 379.892 233.625 378.896 233.625 377.616C233.625 376.356 233.967 375.333 234.65 374.547C235.334 373.761 236.228 373.368 237.331 373.368ZM239.433 376.84C239.379 376.269 239.255 375.812 239.06 375.47C238.698 374.835 238.095 374.518 237.25 374.518C236.645 374.518 236.137 374.738 235.727 375.177C235.317 375.612 235.1 376.166 235.075 376.84H239.433ZM243.198 378.927C243.237 379.367 243.347 379.704 243.527 379.938C243.859 380.363 244.436 380.575 245.256 380.575C245.744 380.575 246.174 380.47 246.545 380.26C246.916 380.045 247.102 379.716 247.102 379.271C247.102 378.935 246.953 378.678 246.655 378.502C246.464 378.395 246.088 378.271 245.527 378.129L244.479 377.865C243.811 377.699 243.317 377.514 243 377.309C242.434 376.952 242.15 376.459 242.15 375.829C242.15 375.087 242.417 374.486 242.949 374.027C243.486 373.568 244.206 373.339 245.109 373.339C246.291 373.339 247.143 373.686 247.666 374.379C247.993 374.818 248.151 375.292 248.142 375.8H246.896C246.872 375.502 246.767 375.231 246.582 374.987C246.279 374.64 245.754 374.467 245.007 374.467C244.509 374.467 244.13 374.562 243.872 374.752C243.618 374.943 243.491 375.194 243.491 375.507C243.491 375.849 243.659 376.122 243.996 376.327C244.191 376.449 244.479 376.557 244.86 376.649L245.732 376.862C246.679 377.091 247.314 377.313 247.636 377.528C248.149 377.865 248.405 378.395 248.405 379.118C248.405 379.816 248.139 380.419 247.607 380.927C247.08 381.435 246.274 381.688 245.19 381.688C244.023 381.688 243.195 381.425 242.707 380.897C242.224 380.365 241.965 379.708 241.931 378.927H243.198Z" fill="#00DF9A"/>
<path d="M202.89 388.941L202.73 390.201H201.02V395.871H199.38V390.201H197.59V388.941H202.89ZM205.585 388.771C206.105 388.771 206.555 388.844 206.935 388.991C207.322 389.137 207.672 389.361 207.985 389.661L207.225 390.551C206.752 390.164 206.245 389.971 205.705 389.971C205.418 389.971 205.192 390.031 205.025 390.151C204.858 390.264 204.775 390.431 204.775 390.651C204.775 390.804 204.812 390.931 204.885 391.031C204.958 391.124 205.088 391.214 205.275 391.301C205.462 391.387 205.742 391.491 206.115 391.611C206.822 391.837 207.342 392.117 207.675 392.451C208.008 392.777 208.175 393.244 208.175 393.851C208.175 394.284 208.065 394.667 207.845 395.001C207.625 395.327 207.308 395.584 206.895 395.771C206.482 395.951 205.992 396.041 205.425 396.041C204.858 396.041 204.355 395.951 203.915 395.771C203.482 395.591 203.108 395.351 202.795 395.051L203.625 394.141C203.892 394.367 204.165 394.537 204.445 394.651C204.732 394.764 205.042 394.821 205.375 394.821C205.715 394.821 205.982 394.747 206.175 394.601C206.375 394.447 206.475 394.237 206.475 393.971C206.475 393.797 206.438 393.654 206.365 393.541C206.292 393.421 206.165 393.314 205.985 393.221C205.805 393.127 205.545 393.027 205.205 392.921C204.438 392.687 203.892 392.401 203.565 392.061C203.245 391.721 203.085 391.291 203.085 390.771C203.085 390.371 203.192 390.021 203.405 389.721C203.618 389.414 203.915 389.181 204.295 389.021C204.675 388.854 205.105 388.771 205.585 388.771ZM210.718 388.941V394.571H213.418L213.248 395.871H209.078V388.941H210.718ZM217.855 395.871L217.495 394.381H215.475L215.125 395.871H213.425L215.515 388.941H217.505L219.595 395.871H217.855ZM215.755 393.191H217.215L216.485 390.131L215.755 393.191Z" fill="#282828"/>
<path d="M361.058 99.0825C362.415 99.0825 363.396 99.6416 364.002 100.76C364.471 101.624 364.705 102.808 364.705 104.312C364.705 105.738 364.493 106.917 364.068 107.85C363.453 109.188 362.447 109.856 361.05 109.856C359.791 109.856 358.853 109.31 358.238 108.216C357.725 107.303 357.469 106.077 357.469 104.539C357.469 103.348 357.623 102.325 357.93 101.47C358.506 99.8784 359.549 99.0825 361.058 99.0825ZM361.043 108.655C361.727 108.655 362.271 108.353 362.676 107.747C363.082 107.142 363.284 106.014 363.284 104.363C363.284 103.172 363.138 102.193 362.845 101.426C362.552 100.655 361.983 100.269 361.138 100.269C360.362 100.269 359.793 100.635 359.432 101.368C359.075 102.095 358.897 103.169 358.897 104.59C358.897 105.66 359.012 106.519 359.241 107.168C359.593 108.16 360.193 108.655 361.043 108.655ZM366.631 107.974H368.162V109.571H366.631V107.974ZM373.912 99.0386C375.083 99.0386 375.899 99.3438 376.358 99.9541C376.822 100.56 377.054 101.185 377.054 101.829H375.75C375.672 101.414 375.547 101.089 375.376 100.855C375.059 100.416 374.578 100.196 373.934 100.196C373.196 100.196 372.61 100.538 372.176 101.221C371.741 101.9 371.5 102.874 371.451 104.144C371.753 103.699 372.134 103.367 372.593 103.147C373.013 102.952 373.482 102.854 374 102.854C374.878 102.854 375.645 103.135 376.299 103.697C376.954 104.258 377.281 105.096 377.281 106.209C377.281 107.161 376.971 108.006 376.351 108.743C375.73 109.476 374.847 109.842 373.699 109.842C372.718 109.842 371.871 109.471 371.158 108.729C370.445 107.981 370.088 106.727 370.088 104.964C370.088 103.66 370.247 102.554 370.564 101.646C371.175 99.9077 372.291 99.0386 373.912 99.0386ZM373.816 108.67C374.51 108.67 375.027 108.438 375.369 107.974C375.716 107.505 375.889 106.954 375.889 106.319C375.889 105.782 375.735 105.271 375.428 104.788C375.12 104.3 374.561 104.056 373.75 104.056C373.184 104.056 372.686 104.244 372.256 104.62C371.832 104.996 371.619 105.562 371.619 106.319C371.619 106.983 371.812 107.542 372.198 107.996C372.588 108.445 373.128 108.67 373.816 108.67ZM379.727 106.897C379.815 107.649 380.164 108.169 380.774 108.458C381.087 108.604 381.448 108.677 381.858 108.677C382.64 108.677 383.218 108.428 383.594 107.93C383.97 107.432 384.158 106.88 384.158 106.275C384.158 105.542 383.934 104.976 383.484 104.576C383.04 104.175 382.505 103.975 381.88 103.975C381.426 103.975 381.036 104.063 380.708 104.239C380.386 104.415 380.11 104.659 379.881 104.971L378.738 104.905L379.537 99.2583H384.986V100.533H380.525L380.079 103.448C380.323 103.262 380.555 103.123 380.774 103.03C381.165 102.869 381.617 102.789 382.129 102.789C383.091 102.789 383.907 103.099 384.576 103.719C385.245 104.339 385.579 105.125 385.579 106.077C385.579 107.068 385.271 107.942 384.656 108.699C384.046 109.456 383.069 109.834 381.727 109.834C380.872 109.834 380.115 109.595 379.456 109.117C378.802 108.633 378.436 107.894 378.357 106.897H379.727ZM392.493 106.099C392.527 106.709 392.671 107.205 392.925 107.586C393.409 108.299 394.261 108.655 395.481 108.655C396.028 108.655 396.526 108.577 396.976 108.421C397.845 108.118 398.279 107.576 398.279 106.795C398.279 106.209 398.096 105.792 397.73 105.542C397.359 105.298 396.778 105.086 395.987 104.905L394.529 104.576C393.577 104.361 392.903 104.124 392.508 103.865C391.824 103.416 391.482 102.745 391.482 101.851C391.482 100.884 391.817 100.091 392.486 99.4707C393.155 98.8506 394.102 98.5405 395.328 98.5405C396.456 98.5405 397.413 98.814 398.199 99.3608C398.99 99.9028 399.385 100.772 399.385 101.968H398.016C397.942 101.392 397.786 100.95 397.547 100.643C397.103 100.081 396.348 99.8003 395.284 99.8003C394.424 99.8003 393.807 99.981 393.431 100.342C393.055 100.704 392.867 101.124 392.867 101.602C392.867 102.129 393.086 102.515 393.526 102.759C393.814 102.916 394.466 103.111 395.481 103.345L396.99 103.689C397.718 103.855 398.279 104.083 398.675 104.371C399.358 104.874 399.7 105.604 399.7 106.561C399.7 107.752 399.266 108.604 398.396 109.117C397.532 109.629 396.526 109.886 395.379 109.886C394.041 109.886 392.994 109.544 392.237 108.86C391.48 108.182 391.109 107.261 391.124 106.099H392.493ZM401.37 98.7749H402.688V102.789C403.001 102.393 403.282 102.115 403.531 101.954C403.956 101.675 404.485 101.536 405.12 101.536C406.258 101.536 407.029 101.934 407.435 102.73C407.654 103.165 407.764 103.768 407.764 104.539V109.571H406.409V104.627C406.409 104.051 406.336 103.628 406.189 103.36C405.95 102.93 405.501 102.715 404.842 102.715C404.295 102.715 403.799 102.903 403.355 103.279C402.911 103.655 402.688 104.366 402.688 105.411V109.571H401.37V98.7749ZM410.73 107.483C410.73 107.864 410.87 108.165 411.148 108.384C411.426 108.604 411.756 108.714 412.137 108.714C412.601 108.714 413.05 108.606 413.484 108.392C414.217 108.035 414.583 107.452 414.583 106.641V105.579C414.422 105.682 414.214 105.767 413.96 105.835C413.707 105.904 413.458 105.953 413.213 105.982L412.415 106.084C411.937 106.148 411.578 106.248 411.338 106.385C410.933 106.614 410.73 106.98 410.73 107.483ZM413.924 104.817C414.227 104.778 414.429 104.651 414.532 104.437C414.59 104.319 414.62 104.151 414.62 103.931C414.62 103.482 414.458 103.157 414.136 102.957C413.819 102.752 413.362 102.649 412.767 102.649C412.078 102.649 411.59 102.835 411.302 103.206C411.141 103.411 411.036 103.716 410.987 104.122H409.756C409.781 103.155 410.093 102.483 410.694 102.107C411.299 101.727 412 101.536 412.796 101.536C413.719 101.536 414.468 101.712 415.044 102.063C415.616 102.415 415.901 102.962 415.901 103.704V108.223C415.901 108.36 415.928 108.47 415.982 108.553C416.041 108.636 416.16 108.677 416.341 108.677C416.399 108.677 416.465 108.675 416.539 108.67C416.612 108.66 416.69 108.648 416.773 108.633V109.607C416.568 109.666 416.412 109.703 416.304 109.717C416.197 109.732 416.05 109.739 415.865 109.739C415.411 109.739 415.081 109.578 414.876 109.256C414.769 109.085 414.693 108.843 414.649 108.531C414.38 108.882 413.995 109.188 413.492 109.446C412.989 109.705 412.435 109.834 411.829 109.834C411.102 109.834 410.506 109.615 410.042 109.175C409.583 108.731 409.354 108.177 409.354 107.513C409.354 106.785 409.581 106.221 410.035 105.821C410.489 105.42 411.084 105.174 411.822 105.081L413.924 104.817ZM418.106 101.727H419.358V103.082C419.461 102.818 419.712 102.498 420.113 102.122C420.513 101.741 420.975 101.551 421.497 101.551C421.521 101.551 421.563 101.553 421.622 101.558C421.68 101.563 421.78 101.573 421.922 101.587V102.979C421.844 102.964 421.771 102.955 421.702 102.95C421.639 102.945 421.568 102.942 421.49 102.942C420.826 102.942 420.315 103.157 419.959 103.587C419.603 104.012 419.424 104.502 419.424 105.059V109.571H418.106V101.727ZM426.331 101.551C426.888 101.551 427.427 101.683 427.95 101.946C428.472 102.205 428.87 102.542 429.144 102.957C429.407 103.353 429.583 103.814 429.671 104.341C429.749 104.703 429.788 105.279 429.788 106.07H424.039C424.063 106.866 424.251 107.505 424.603 107.989C424.954 108.467 425.499 108.707 426.236 108.707C426.924 108.707 427.474 108.479 427.884 108.025C428.118 107.762 428.284 107.457 428.382 107.11H429.678C429.644 107.398 429.529 107.72 429.334 108.077C429.144 108.428 428.929 108.716 428.689 108.941C428.289 109.332 427.793 109.595 427.203 109.732C426.885 109.81 426.526 109.849 426.126 109.849C425.149 109.849 424.322 109.495 423.643 108.787C422.964 108.074 422.625 107.078 422.625 105.799C422.625 104.539 422.967 103.516 423.65 102.73C424.334 101.944 425.228 101.551 426.331 101.551ZM428.433 105.022C428.379 104.451 428.255 103.995 428.06 103.653C427.698 103.018 427.095 102.701 426.25 102.701C425.645 102.701 425.137 102.92 424.727 103.36C424.317 103.794 424.1 104.349 424.075 105.022H428.433ZM432.198 107.11C432.237 107.549 432.347 107.886 432.527 108.121C432.859 108.545 433.436 108.758 434.256 108.758C434.744 108.758 435.174 108.653 435.545 108.443C435.916 108.228 436.102 107.898 436.102 107.454C436.102 107.117 435.953 106.861 435.655 106.685C435.464 106.578 435.088 106.453 434.527 106.312L433.479 106.048C432.811 105.882 432.317 105.696 432 105.491C431.434 105.135 431.15 104.642 431.15 104.012C431.15 103.27 431.417 102.669 431.949 102.21C432.486 101.751 433.206 101.521 434.109 101.521C435.291 101.521 436.143 101.868 436.666 102.562C436.993 103.001 437.151 103.475 437.142 103.982H435.896C435.872 103.685 435.767 103.414 435.582 103.169C435.279 102.823 434.754 102.649 434.007 102.649C433.509 102.649 433.13 102.745 432.872 102.935C432.618 103.125 432.491 103.377 432.491 103.689C432.491 104.031 432.659 104.305 432.996 104.51C433.191 104.632 433.479 104.739 433.86 104.832L434.732 105.044C435.679 105.274 436.314 105.496 436.636 105.711C437.149 106.048 437.405 106.578 437.405 107.3C437.405 107.999 437.139 108.602 436.607 109.109C436.08 109.617 435.274 109.871 434.19 109.871C433.023 109.871 432.195 109.607 431.707 109.08C431.224 108.548 430.965 107.891 430.931 107.11H432.198Z" fill="#CD1C44"/>
<path d="M392.15 124.053V117.123H396.28L396.11 118.293H393.79V120.133H395.81V121.303H393.79V124.053H392.15ZM400.713 120.383C401.173 120.47 401.546 120.64 401.833 120.893C402.126 121.147 402.273 121.527 402.273 122.033C402.273 122.773 402.006 123.297 401.473 123.603C400.946 123.903 400.206 124.053 399.253 124.053H397.023V117.123H398.983C399.956 117.123 400.7 117.263 401.213 117.543C401.726 117.817 401.983 118.267 401.983 118.893C401.983 119.3 401.86 119.63 401.613 119.883C401.373 120.13 401.073 120.297 400.713 120.383ZM398.663 118.283V119.893H399.273C399.966 119.893 400.313 119.613 400.313 119.053C400.313 118.773 400.22 118.577 400.033 118.463C399.846 118.343 399.55 118.283 399.143 118.283H398.663ZM399.263 122.863C399.696 122.863 400.023 122.8 400.243 122.673C400.47 122.54 400.583 122.297 400.583 121.943C400.583 121.303 400.183 120.983 399.383 120.983H398.663V122.863H399.263Z" fill="#282828"/>
<path d="M4.05762 135.077C5.41504 135.077 6.39648 135.636 7.00195 136.754C7.4707 137.618 7.70508 138.802 7.70508 140.306C7.70508 141.732 7.49268 142.911 7.06787 143.844C6.45264 145.182 5.44678 145.851 4.05029 145.851C2.79053 145.851 1.85303 145.304 1.23779 144.21C0.725098 143.297 0.46875 142.071 0.46875 140.533C0.46875 139.342 0.622559 138.319 0.930176 137.464C1.50635 135.873 2.54883 135.077 4.05762 135.077ZM4.04297 144.649C4.72656 144.649 5.271 144.347 5.67627 143.741C6.08154 143.136 6.28418 142.008 6.28418 140.357C6.28418 139.166 6.1377 138.187 5.84473 137.42C5.55176 136.649 4.98291 136.263 4.13818 136.263C3.36182 136.263 2.79297 136.629 2.43164 137.362C2.0752 138.089 1.89697 139.164 1.89697 140.584C1.89697 141.654 2.01172 142.513 2.24121 143.163C2.59277 144.154 3.19336 144.649 4.04297 144.649ZM9.63135 143.968H11.1621V145.565H9.63135V143.968ZM12.9932 145.565C13.042 144.662 13.2275 143.875 13.5498 143.207C13.877 142.538 14.5117 141.93 15.4541 141.383L16.8604 140.57C17.4902 140.204 17.9321 139.891 18.186 139.632C18.5864 139.227 18.7866 138.763 18.7866 138.241C18.7866 137.63 18.6035 137.147 18.2373 136.791C17.8711 136.429 17.3828 136.249 16.7725 136.249C15.8691 136.249 15.2441 136.59 14.8975 137.274C14.7119 137.64 14.6094 138.148 14.5898 138.797H13.2495C13.2642 137.884 13.4326 137.14 13.7549 136.563C14.3262 135.548 15.3345 135.04 16.7798 135.04C17.981 135.04 18.8574 135.365 19.4092 136.014C19.9658 136.664 20.2441 137.386 20.2441 138.182C20.2441 139.022 19.9487 139.74 19.3579 140.335C19.0161 140.682 18.4033 141.102 17.5195 141.595L16.5161 142.152C16.0376 142.416 15.6616 142.667 15.3882 142.906C14.8999 143.331 14.5923 143.802 14.4653 144.32H20.1929V145.565H12.9932ZM22.7271 142.892C22.8149 143.644 23.1641 144.164 23.7744 144.452C24.0869 144.598 24.4482 144.671 24.8584 144.671C25.6396 144.671 26.2183 144.422 26.5942 143.924C26.9702 143.426 27.1582 142.875 27.1582 142.269C27.1582 141.537 26.9336 140.97 26.4844 140.57C26.04 140.169 25.5054 139.969 24.8804 139.969C24.4263 139.969 24.0356 140.057 23.7085 140.233C23.3862 140.409 23.1104 140.653 22.8809 140.965L21.7383 140.899L22.5366 135.252H27.9858V136.527H23.5254L23.0786 139.442C23.3228 139.256 23.5547 139.117 23.7744 139.024C24.165 138.863 24.6167 138.783 25.1294 138.783C26.0913 138.783 26.9067 139.093 27.5757 139.713C28.2446 140.333 28.5791 141.119 28.5791 142.071C28.5791 143.062 28.2715 143.937 27.6562 144.693C27.0459 145.45 26.0693 145.829 24.7266 145.829C23.8721 145.829 23.1152 145.589 22.4561 145.111C21.8018 144.627 21.4355 143.888 21.3574 142.892H22.7271ZM35.1489 143.104C35.188 143.543 35.2979 143.88 35.4785 144.115C35.8105 144.54 36.3867 144.752 37.207 144.752C37.6953 144.752 38.125 144.647 38.4961 144.437C38.8672 144.222 39.0527 143.893 39.0527 143.448C39.0527 143.111 38.9038 142.855 38.606 142.679C38.4155 142.572 38.0396 142.447 37.478 142.306L36.4307 142.042C35.7617 141.876 35.2686 141.69 34.9512 141.485C34.3848 141.129 34.1016 140.636 34.1016 140.006C34.1016 139.264 34.3677 138.663 34.8999 138.204C35.437 137.745 36.1572 137.516 37.0605 137.516C38.2422 137.516 39.0942 137.862 39.6167 138.556C39.9438 138.995 40.1025 139.469 40.0928 139.977H38.8477C38.8232 139.679 38.7183 139.408 38.5327 139.164C38.23 138.817 37.7051 138.644 36.958 138.644C36.46 138.644 36.0815 138.739 35.8228 138.929C35.5688 139.12 35.4419 139.371 35.4419 139.684C35.4419 140.025 35.6104 140.299 35.9473 140.504C36.1426 140.626 36.4307 140.733 36.8115 140.826L37.6831 141.039C38.6304 141.268 39.2651 141.49 39.5874 141.705C40.1001 142.042 40.3564 142.572 40.3564 143.294C40.3564 143.993 40.0903 144.596 39.5581 145.104C39.0308 145.611 38.2251 145.865 37.1411 145.865C35.9741 145.865 35.1465 145.602 34.6582 145.074C34.1748 144.542 33.916 143.885 33.8818 143.104H35.1489ZM41.8652 134.769H43.1836V138.783C43.4961 138.387 43.7769 138.109 44.0259 137.948C44.4507 137.669 44.9805 137.53 45.6152 137.53C46.7529 137.53 47.5244 137.928 47.9297 138.724C48.1494 139.159 48.2593 139.762 48.2593 140.533V145.565H46.9043V140.621C46.9043 140.045 46.8311 139.623 46.6846 139.354C46.4453 138.924 45.9961 138.709 45.3369 138.709C44.79 138.709 44.2944 138.897 43.8501 139.273C43.4058 139.649 43.1836 140.36 43.1836 141.405V145.565H41.8652V134.769ZM51.2256 143.478C51.2256 143.858 51.3647 144.159 51.6431 144.378C51.9214 144.598 52.251 144.708 52.6318 144.708C53.0957 144.708 53.5449 144.601 53.9795 144.386C54.7119 144.029 55.0781 143.446 55.0781 142.635V141.573C54.917 141.676 54.7095 141.761 54.4556 141.83C54.2017 141.898 53.9526 141.947 53.7085 141.976L52.9102 142.079C52.4316 142.142 52.0728 142.242 51.8335 142.379C51.4282 142.608 51.2256 142.975 51.2256 143.478ZM54.4189 140.812C54.7217 140.772 54.9243 140.646 55.0269 140.431C55.0854 140.313 55.1147 140.145 55.1147 139.925C55.1147 139.476 54.9536 139.151 54.6313 138.951C54.314 138.746 53.8574 138.644 53.2617 138.644C52.5732 138.644 52.085 138.829 51.7969 139.2C51.6357 139.405 51.5308 139.71 51.4819 140.116H50.2515C50.2759 139.149 50.5884 138.478 51.189 138.102C51.7944 137.721 52.4951 137.53 53.291 137.53C54.2139 137.53 54.9634 137.706 55.5396 138.058C56.1108 138.409 56.3965 138.956 56.3965 139.698V144.217C56.3965 144.354 56.4233 144.464 56.4771 144.547C56.5356 144.63 56.6553 144.671 56.8359 144.671C56.8945 144.671 56.9604 144.669 57.0337 144.664C57.1069 144.654 57.1851 144.642 57.2681 144.627V145.602C57.063 145.66 56.9067 145.697 56.7993 145.711C56.6919 145.726 56.5454 145.733 56.3599 145.733C55.9058 145.733 55.5762 145.572 55.3711 145.25C55.2637 145.079 55.188 144.837 55.144 144.525C54.8755 144.876 54.4897 145.182 53.9868 145.44C53.4839 145.699 52.9297 145.829 52.3242 145.829C51.5967 145.829 51.001 145.609 50.5371 145.169C50.0781 144.725 49.8486 144.171 49.8486 143.507C49.8486 142.779 50.0757 142.215 50.5298 141.815C50.9839 141.415 51.5796 141.168 52.3169 141.075L54.4189 140.812ZM58.6011 137.721H59.8535V139.076C59.9561 138.812 60.2075 138.492 60.6079 138.116C61.0083 137.735 61.4697 137.545 61.9922 137.545C62.0166 137.545 62.0581 137.547 62.1167 137.552C62.1753 137.557 62.2754 137.567 62.417 137.582V138.973C62.3389 138.958 62.2656 138.949 62.1973 138.944C62.1338 138.939 62.063 138.937 61.9849 138.937C61.3208 138.937 60.8105 139.151 60.4541 139.581C60.0977 140.006 59.9194 140.497 59.9194 141.053V145.565H58.6011V137.721ZM66.8262 137.545C67.3828 137.545 67.9224 137.677 68.4448 137.94C68.9673 138.199 69.3652 138.536 69.6387 138.951C69.9023 139.347 70.0781 139.808 70.166 140.335C70.2441 140.697 70.2832 141.273 70.2832 142.064H64.5337C64.5581 142.86 64.7461 143.5 65.0977 143.983C65.4492 144.461 65.9937 144.701 66.731 144.701C67.4194 144.701 67.9688 144.474 68.3789 144.02C68.6133 143.756 68.7793 143.451 68.877 143.104H70.1733C70.1392 143.392 70.0244 143.714 69.8291 144.071C69.6387 144.422 69.4238 144.71 69.1846 144.935C68.7842 145.326 68.2886 145.589 67.6978 145.726C67.3804 145.804 67.0215 145.843 66.6211 145.843C65.6445 145.843 64.8169 145.489 64.1382 144.781C63.4595 144.068 63.1201 143.072 63.1201 141.793C63.1201 140.533 63.4619 139.51 64.1455 138.724C64.8291 137.938 65.7227 137.545 66.8262 137.545ZM68.9282 141.017C68.8745 140.445 68.75 139.989 68.5547 139.647C68.1934 139.012 67.5903 138.695 66.7456 138.695C66.1401 138.695 65.6323 138.915 65.2222 139.354C64.812 139.789 64.5947 140.343 64.5703 141.017H68.9282ZM72.6929 143.104C72.7319 143.543 72.8418 143.88 73.0225 144.115C73.3545 144.54 73.9307 144.752 74.751 144.752C75.2393 144.752 75.6689 144.647 76.04 144.437C76.4111 144.222 76.5967 143.893 76.5967 143.448C76.5967 143.111 76.4478 142.855 76.1499 142.679C75.9595 142.572 75.5835 142.447 75.022 142.306L73.9746 142.042C73.3057 141.876 72.8125 141.69 72.4951 141.485C71.9287 141.129 71.6455 140.636 71.6455 140.006C71.6455 139.264 71.9116 138.663 72.4438 138.204C72.981 137.745 73.7012 137.516 74.6045 137.516C75.7861 137.516 76.6382 137.862 77.1606 138.556C77.4878 138.995 77.6465 139.469 77.6367 139.977H76.3916C76.3672 139.679 76.2622 139.408 76.0767 139.164C75.7739 138.817 75.249 138.644 74.502 138.644C74.0039 138.644 73.6255 138.739 73.3667 138.929C73.1128 139.12 72.9858 139.371 72.9858 139.684C72.9858 140.025 73.1543 140.299 73.4912 140.504C73.6865 140.626 73.9746 140.733 74.3555 140.826L75.2271 141.039C76.1743 141.268 76.8091 141.49 77.1313 141.705C77.644 142.042 77.9004 142.572 77.9004 143.294C77.9004 143.993 77.6343 144.596 77.1021 145.104C76.5747 145.611 75.769 145.865 74.6851 145.865C73.5181 145.865 72.6904 145.602 72.2021 145.074C71.7188 144.542 71.46 143.885 71.4258 143.104H72.6929Z" fill="#00DF9A"/>
<path d="M32.99 160.047H30.9L28.9 154.677C28.9667 155.204 29.0167 155.671 29.05 156.077C29.09 156.477 29.11 156.954 29.11 157.507V160.047H27.65V153.117H29.69L31.74 158.497C31.5933 157.584 31.52 156.724 31.52 155.917V153.117H32.99V160.047ZM39.4709 153.117L37.5409 160.047H35.5009L33.5009 153.117H35.2309L36.5509 158.767L37.7909 153.117H39.4709ZM41.914 153.117C43.0007 153.117 43.8707 153.364 44.524 153.857C45.184 154.344 45.514 155.241 45.514 156.547C45.514 157.834 45.194 158.741 44.554 159.267C43.914 159.787 43.084 160.047 42.064 160.047H39.984V153.117H41.914ZM41.624 154.307V158.857H42.164C42.704 158.857 43.114 158.691 43.394 158.357C43.674 158.017 43.814 157.414 43.814 156.547C43.814 155.954 43.744 155.494 43.604 155.167C43.464 154.841 43.274 154.617 43.034 154.497C42.794 154.371 42.4973 154.307 42.144 154.307H41.624ZM50.05 160.047L49.69 158.557H47.67L47.32 160.047H45.62L47.71 153.117H49.7L51.79 160.047H50.05ZM47.95 157.367H49.41L48.68 154.307L47.95 157.367Z" fill="#282828"/>
<rect x="201.683" y="98.683" width="51.9024" height="51.9024" rx="3.41463" fill="black"/>
<rect x="202.367" y="99.3658" width="51.9024" height="51.9024" rx="3.41463" fill="black"/>
<rect x="203.048" y="100.049" width="51.9024" height="51.9024" rx="3.41463" fill="black"/>
<rect x="203.731" y="100.732" width="51.9024" height="51.9024" rx="3.41463" fill="black"/>
<rect x="204.415" y="101.414" width="51.9024" height="51.9024" rx="3.41463" fill="black"/>
<rect x="205.098" y="102.097" width="51.9024" height="51.9024" rx="3.41463" fill="black"/>
<rect x="201" y="98" width="51.9024" height="51.9024" rx="3.41463" fill="url(#paint0_linear)"/>
<path d="M226.69 124.337C226.757 124.465 226.825 124.595 226.895 124.727C226.91 124.701 226.924 124.678 226.936 124.657C226.966 124.606 226.989 124.567 227.01 124.527C227.921 122.566 229.218 120.929 231.166 119.846C231.419 119.705 231.345 119.562 231.261 119.397C231.255 119.387 231.25 119.376 231.244 119.366C230.431 117.764 229.308 116.393 227.899 115.259C227.399 114.858 227.247 114.663 227.087 114.656C226.925 114.649 226.755 114.83 226.216 115.181C224.607 116.231 223.335 117.586 222.529 119.323C222.522 119.337 222.516 119.351 222.509 119.364C222.422 119.546 222.348 119.703 222.636 119.862C224.219 120.732 225.383 122.003 226.26 123.536C226.408 123.797 226.547 124.063 226.69 124.337Z" fill="#3FA0D9"/>
<path d="M216.536 119.361C219.012 119.402 221.3 119.879 223.3 121.296C224.939 122.455 225.95 124.031 226.492 125.91C226.526 126.027 226.531 126.136 226.502 126.255C226.048 128.032 225.991 129.841 226.074 131.659C226.087 131.941 226.013 132.051 225.728 132.091C221.962 132.643 216.362 130.52 214.592 125.97C213.798 123.931 213.832 121.863 214.348 119.775C214.396 119.573 214.506 119.511 214.704 119.485C215.286 119.412 215.868 119.388 216.409 119.366L216.536 119.361Z" fill="#3FA0D9"/>
<path d="M226.898 129.709C226.905 127.608 227.181 125.772 228.097 124.082C229.386 121.698 231.489 120.349 234.129 119.724C235.789 119.329 237.467 119.287 239.16 119.484C239.444 119.516 239.484 119.678 239.532 119.875L239.538 119.897C240.813 124.937 238.559 129.31 233.621 131.301C231.772 132.045 229.855 132.413 227.848 132.028C227.081 131.881 227.066 131.876 226.986 131.137C226.942 130.744 226.926 130.35 226.913 130.036C226.908 129.913 226.903 129.803 226.898 129.709Z" fill="#3FA0D9"/>
<rect x="219.438" y="151.268" width="4.78048" height="0.682926" rx="0.341463" fill="#0384CF"/>
<rect x="226.951" y="151.268" width="4.78048" height="0.682926" rx="0.341463" fill="#66C5FD"/>
<rect x="234.463" y="151.268" width="4.78048" height="0.682926" rx="0.341463" fill="#B6E4FF"/>
<g clip-path="url(#clip1)">
<path d="M397.5 72C405.508 72 412 65.5081 412 57.5C412 49.4919 405.508 43 397.5 43C389.492 43 383 49.4919 383 57.5C383 65.5081 389.492 72 397.5 72Z" fill="#3C5A9A"/>
<path d="M402.215 47.4508H399.003C397.096 47.4508 394.976 48.2525 394.976 51.0156C394.985 51.9783 394.976 52.9004 394.976 53.9381H392.771V57.4472H395.044V67.5493H399.222V57.3805H401.979L402.229 53.9282H399.15C399.15 53.9282 399.157 52.3925 399.15 51.9465C399.15 50.8546 400.286 50.9172 400.354 50.9172C400.895 50.9172 401.946 50.9187 402.216 50.9172V47.4508H402.215Z" fill="white"/>
</g>
<defs>
<linearGradient id="paint0_linear" x1="249.488" y1="146.829" x2="204.415" y2="102.439" gradientUnits="userSpaceOnUse">
<stop stop-color="#111111"/>
<stop offset="1" stop-color="#1D1E1E"/>
</linearGradient>
<clipPath id="clip0">
<rect width="32.2706" height="23.7613" fill="white" transform="translate(23.1001 81.9176)"/>
</clipPath>
<clipPath id="clip1">
<rect width="29" height="29" fill="white" transform="translate(383 43)"/>
</clipPath>
</defs>
</svg>
