<svg width="459" height="391" viewBox="0 0 459 391" fill="none" xmlns="http://www.w3.org/2000/svg">
<path d="M412.748 195.046C412.748 302.59 330.05 389.74 228.077 389.74C126.103 389.74 43.4063 302.59 43.4063 195.046C43.4063 87.5017 126.103 0.352068 228.077 0.352068C330.05 0.352068 412.748 87.5017 412.748 195.046Z" stroke="#B8C2CC" stroke-width="0.704137"/>
<path d="M176.803 287.272V286.288H179.357V283.715H180.359V286.288H182.914V287.272H180.359V289.838H179.357V287.272H176.803ZM184.754 287.7C184.824 288.301 185.104 288.717 185.592 288.948C185.842 289.065 186.131 289.124 186.459 289.124C187.084 289.124 187.547 288.924 187.848 288.526C188.148 288.127 188.299 287.686 188.299 287.202C188.299 286.616 188.119 286.163 187.76 285.842C187.404 285.522 186.977 285.362 186.477 285.362C186.113 285.362 185.801 285.432 185.539 285.573C185.281 285.713 185.061 285.909 184.877 286.159L183.963 286.106L184.602 281.588H188.961V282.608H185.393L185.035 284.94C185.23 284.792 185.416 284.68 185.592 284.606C185.904 284.477 186.266 284.413 186.676 284.413C187.445 284.413 188.098 284.661 188.633 285.157C189.168 285.653 189.436 286.282 189.436 287.043C189.436 287.836 189.189 288.536 188.697 289.141C188.209 289.747 187.428 290.049 186.354 290.049C185.67 290.049 185.064 289.858 184.537 289.475C184.014 289.088 183.721 288.497 183.658 287.7H184.754ZM193.197 281.448C194.283 281.448 195.068 281.895 195.553 282.79C195.928 283.481 196.115 284.428 196.115 285.631C196.115 286.772 195.945 287.715 195.605 288.461C195.113 289.532 194.309 290.067 193.191 290.067C192.184 290.067 191.434 289.629 190.941 288.754C190.531 288.024 190.326 287.043 190.326 285.813C190.326 284.86 190.449 284.042 190.695 283.358C191.156 282.084 191.99 281.448 193.197 281.448ZM193.186 289.106C193.732 289.106 194.168 288.864 194.492 288.379C194.816 287.895 194.979 286.993 194.979 285.672C194.979 284.719 194.861 283.936 194.627 283.323C194.393 282.706 193.938 282.397 193.262 282.397C192.641 282.397 192.186 282.69 191.896 283.276C191.611 283.858 191.469 284.717 191.469 285.854C191.469 286.709 191.561 287.397 191.744 287.917C192.025 288.709 192.506 289.106 193.186 289.106ZM204.811 285.76C205.373 285.76 205.854 285.959 206.252 286.358C206.65 286.756 206.85 287.237 206.85 287.799C206.85 288.362 206.65 288.842 206.252 289.241C205.854 289.639 205.373 289.838 204.811 289.838C204.244 289.838 203.762 289.639 203.363 289.241C202.965 288.842 202.766 288.362 202.766 287.799C202.766 287.237 202.965 286.756 203.363 286.358C203.762 285.959 204.244 285.76 204.811 285.76ZM203.961 281.483H204.611L199.918 290.061H199.268L203.961 281.483ZM199.057 284.952C199.393 284.952 199.678 284.834 199.912 284.6C200.15 284.362 200.27 284.077 200.27 283.745C200.27 283.413 200.15 283.129 199.912 282.895C199.678 282.657 199.393 282.538 199.057 282.538C198.725 282.538 198.439 282.655 198.201 282.889C197.967 283.124 197.85 283.409 197.85 283.745C197.85 284.077 197.967 284.362 198.201 284.6C198.439 284.834 198.725 284.952 199.057 284.952ZM199.057 281.7C199.623 281.7 200.105 281.901 200.504 282.303C200.902 282.702 201.102 283.182 201.102 283.745C201.102 284.307 200.902 284.788 200.504 285.186C200.105 285.584 199.623 285.784 199.057 285.784C198.494 285.784 198.014 285.584 197.615 285.186C197.217 284.788 197.018 284.307 197.018 283.745C197.018 283.182 197.217 282.702 197.615 282.303C198.014 281.901 198.494 281.7 199.057 281.7ZM204.811 289.006C205.143 289.006 205.426 288.889 205.66 288.655C205.898 288.417 206.018 288.131 206.018 287.799C206.018 287.467 205.898 287.184 205.66 286.95C205.426 286.711 205.143 286.592 204.811 286.592C204.475 286.592 204.188 286.711 203.949 286.95C203.715 287.184 203.598 287.467 203.598 287.799C203.598 288.131 203.715 288.417 203.949 288.655C204.188 288.889 204.475 289.006 204.811 289.006Z" fill="#00DF9A"/>
<path d="M185.232 297.243L185.04 298.755H182.988V305.559H181.02V298.755H178.872V297.243H185.232ZM188.466 297.039C189.09 297.039 189.63 297.127 190.086 297.303C190.55 297.479 190.97 297.747 191.346 298.107L190.434 299.175C189.866 298.711 189.258 298.479 188.61 298.479C188.266 298.479 187.994 298.551 187.794 298.695C187.594 298.831 187.494 299.031 187.494 299.295C187.494 299.479 187.538 299.631 187.626 299.751C187.714 299.863 187.87 299.971 188.094 300.075C188.318 300.179 188.654 300.303 189.102 300.447C189.95 300.719 190.574 301.055 190.974 301.455C191.374 301.847 191.574 302.407 191.574 303.135C191.574 303.655 191.442 304.115 191.178 304.515C190.914 304.907 190.534 305.215 190.038 305.439C189.542 305.655 188.954 305.763 188.274 305.763C187.594 305.763 186.99 305.655 186.462 305.439C185.942 305.223 185.494 304.935 185.118 304.575L186.114 303.483C186.434 303.755 186.762 303.959 187.098 304.095C187.442 304.231 187.814 304.299 188.214 304.299C188.622 304.299 188.942 304.211 189.174 304.035C189.414 303.851 189.534 303.599 189.534 303.279C189.534 303.071 189.49 302.899 189.402 302.763C189.314 302.619 189.162 302.491 188.946 302.379C188.73 302.267 188.418 302.147 188.01 302.019C187.09 301.739 186.434 301.395 186.042 300.987C185.658 300.579 185.466 300.063 185.466 299.439C185.466 298.959 185.594 298.539 185.85 298.179C186.106 297.811 186.462 297.531 186.918 297.339C187.374 297.139 187.89 297.039 188.466 297.039ZM194.625 297.243V303.999H197.865L197.661 305.559H192.657V297.243H194.625ZM203.189 305.559L202.757 303.771H200.333L199.913 305.559H197.873L200.381 297.243H202.769L205.277 305.559H203.189ZM200.669 302.343H202.421L201.545 298.671L200.669 302.343Z" fill="#282828"/>
<g clip-path="url(#clip0)">
<path d="M231.563 289.857H220.306L222.413 287.749C222.663 287.5 222.663 287.094 222.413 286.844C222.164 286.594 221.758 286.594 221.508 286.844L218.308 290.045C218.058 290.295 218.058 290.7 218.308 290.95L221.508 294.151C221.633 294.276 221.797 294.338 221.961 294.338C222.125 294.338 222.289 294.276 222.413 294.151C222.663 293.901 222.663 293.495 222.413 293.245L220.306 291.138H231.563C231.916 291.138 232.203 290.851 232.203 290.498C232.203 290.144 231.916 289.857 231.563 289.857Z" fill="#3FA0D9"/>
<path d="M228.816 293.246C228.566 292.996 228.161 292.996 227.911 293.246C227.661 293.496 227.661 293.901 227.911 294.151L230.019 296.259H218.762C218.408 296.259 218.122 296.546 218.122 296.899C218.122 297.253 218.408 297.539 218.762 297.539H230.019L227.911 299.647C227.661 299.897 227.661 300.302 227.911 300.552C228.036 300.677 228.2 300.74 228.364 300.74C228.527 300.74 228.691 300.677 228.816 300.552L232.017 297.352C232.267 297.102 232.267 296.696 232.017 296.446L228.816 293.246Z" fill="#3FA0D9"/>
</g>
<path d="M245.642 297.089C246.31 297.058 246.771 296.814 247.025 296.357C247.158 296.122 247.224 295.851 247.224 295.542C247.224 295.054 247.044 294.683 246.685 294.429C246.478 294.281 246.13 294.14 245.642 294.007V297.089ZM243.656 291.435C243.656 291.822 243.783 292.124 244.037 292.343C244.294 292.562 244.64 292.714 245.074 292.8V290.046C244.562 290.066 244.197 290.222 243.978 290.515C243.763 290.808 243.656 291.115 243.656 291.435ZM242.601 291.505C242.601 290.911 242.818 290.376 243.251 289.9C243.689 289.423 244.3 289.181 245.085 289.173V288.394H245.642V289.161C246.419 289.216 247.015 289.447 247.429 289.853C247.847 290.255 248.066 290.788 248.085 291.452H247.06C247.033 291.156 246.953 290.9 246.82 290.685C246.574 290.29 246.181 290.083 245.642 290.064V292.911C246.548 293.165 247.164 293.404 247.488 293.626C248.015 293.993 248.279 294.536 248.279 295.255C248.279 296.294 247.941 297.032 247.265 297.47C246.89 297.712 246.349 297.872 245.642 297.95V299.087H245.085V297.95C243.949 297.876 243.177 297.474 242.771 296.743C242.548 296.349 242.437 295.816 242.437 295.144H243.474C243.505 295.679 243.589 296.07 243.726 296.316C243.968 296.757 244.417 297.005 245.074 297.06V293.866C244.23 293.706 243.607 293.439 243.205 293.064C242.802 292.689 242.601 292.169 242.601 291.505ZM252.708 294.728V290.925L250.019 294.728H252.708ZM252.726 297.698V295.648H249.046V294.616L252.89 289.284H253.781V294.728H255.017V295.648H253.781V297.698H252.726ZM256.417 298.923C256.687 298.876 256.876 298.687 256.986 298.355C257.044 298.179 257.074 298.009 257.074 297.845C257.074 297.818 257.072 297.792 257.068 297.769C257.068 297.749 257.064 297.726 257.056 297.698H256.417V296.421H257.671V297.605C257.671 298.07 257.578 298.478 257.39 298.829C257.203 299.181 256.878 299.398 256.417 299.48V298.923ZM260.244 295.56C260.314 296.161 260.593 296.577 261.082 296.808C261.332 296.925 261.621 296.984 261.949 296.984C262.574 296.984 263.037 296.784 263.337 296.386C263.638 295.988 263.789 295.546 263.789 295.062C263.789 294.476 263.609 294.023 263.25 293.702C262.894 293.382 262.466 293.222 261.966 293.222C261.603 293.222 261.291 293.292 261.029 293.433C260.771 293.573 260.55 293.769 260.367 294.019L259.453 293.966L260.091 289.448H264.451V290.468H260.882L260.525 292.8C260.72 292.652 260.906 292.54 261.082 292.466C261.394 292.337 261.755 292.273 262.166 292.273C262.935 292.273 263.587 292.521 264.123 293.017C264.658 293.513 264.925 294.142 264.925 294.904C264.925 295.697 264.679 296.396 264.187 297.001C263.699 297.607 262.917 297.909 261.843 297.909C261.16 297.909 260.554 297.718 260.027 297.335C259.503 296.948 259.21 296.357 259.148 295.56H260.244ZM268.687 289.308C269.773 289.308 270.558 289.755 271.042 290.65C271.417 291.341 271.605 292.288 271.605 293.491C271.605 294.632 271.435 295.575 271.095 296.322C270.603 297.392 269.798 297.927 268.681 297.927C267.673 297.927 266.923 297.49 266.431 296.615C266.021 295.884 265.816 294.904 265.816 293.673C265.816 292.72 265.939 291.902 266.185 291.218C266.646 289.945 267.48 289.308 268.687 289.308ZM268.675 296.966C269.222 296.966 269.658 296.724 269.982 296.24C270.306 295.755 270.468 294.853 270.468 293.532C270.468 292.579 270.351 291.796 270.117 291.183C269.882 290.566 269.427 290.257 268.751 290.257C268.13 290.257 267.675 290.55 267.386 291.136C267.101 291.718 266.958 292.577 266.958 293.714C266.958 294.57 267.05 295.257 267.234 295.777C267.515 296.57 267.996 296.966 268.675 296.966ZM275.367 289.308C276.453 289.308 277.238 289.755 277.722 290.65C278.097 291.341 278.285 292.288 278.285 293.491C278.285 294.632 278.115 295.575 277.775 296.322C277.283 297.392 276.478 297.927 275.361 297.927C274.353 297.927 273.603 297.49 273.111 296.615C272.701 295.884 272.496 294.904 272.496 293.673C272.496 292.72 272.619 291.902 272.865 291.218C273.326 289.945 274.16 289.308 275.367 289.308ZM275.355 296.966C275.902 296.966 276.337 296.724 276.662 296.24C276.986 295.755 277.148 294.853 277.148 293.532C277.148 292.579 277.031 291.796 276.796 291.183C276.562 290.566 276.107 290.257 275.431 290.257C274.81 290.257 274.355 290.55 274.066 291.136C273.781 291.718 273.638 292.577 273.638 293.714C273.638 294.57 273.73 295.257 273.914 295.777C274.195 296.57 274.675 296.966 275.355 296.966Z" fill="#00DF9A"/>
<line x1="64.4277" y1="192.433" x2="171.3" y2="192.433" stroke="#B8C2CC" stroke-dasharray="7.04 7.04"/>
<path d="M123.208 192.933L115.192 199.031L115.192 186.835L123.208 192.933Z" fill="#B8C2CC"/>
<line x1="282.181" y1="192.436" x2="389.053" y2="192.436" stroke="#B8C2CC" stroke-dasharray="7.04 7.04"/>
<path d="M330.274 192.933L338.289 186.835L338.289 199.031L330.274 192.933Z" fill="#B8C2CC"/>
<rect x="175.696" y="138.403" width="101.108" height="106.585" rx="6.89025" fill="black"/>
<rect x="177.028" y="139.806" width="101.108" height="106.585" rx="6.89025" fill="black"/>
<rect x="178.355" y="141.208" width="101.108" height="106.585" rx="6.89025" fill="black"/>
<rect x="179.686" y="142.61" width="101.108" height="106.585" rx="6.89025" fill="black"/>
<rect x="181.017" y="144.012" width="101.108" height="106.585" rx="6.89025" fill="black"/>
<rect x="182.347" y="145.415" width="101.108" height="106.585" rx="6.89025" fill="black"/>
<rect x="174.367" y="137" width="101.108" height="106.585" rx="6.89025" fill="url(#paint0_linear)"/>
<path d="M223.799 193.519C223.93 193.774 224.062 194.032 224.199 194.293C224.228 194.242 224.254 194.197 224.278 194.156C224.337 194.055 224.382 193.977 224.422 193.897C226.197 190.006 228.723 186.756 232.519 184.605C233.011 184.326 232.868 184.042 232.703 183.715C232.692 183.694 232.682 183.674 232.671 183.653C231.087 180.474 228.899 177.752 226.154 175.502C225.18 174.706 224.884 174.319 224.572 174.305C224.258 174.29 223.926 174.65 222.876 175.347C219.741 177.431 217.262 180.12 215.692 183.568C215.68 183.596 215.667 183.623 215.654 183.65C215.486 184.011 215.34 184.323 215.902 184.638C218.984 186.365 221.254 188.888 222.962 191.93C223.25 192.448 223.521 192.976 223.799 193.519Z" fill="#3FA0D9"/>
<path d="M204.018 183.644C208.842 183.724 213.299 184.672 217.196 187.483C220.388 189.785 222.357 192.912 223.413 196.643C223.48 196.874 223.49 197.091 223.432 197.327C222.548 200.855 222.438 204.444 222.6 208.053C222.624 208.614 222.481 208.831 221.924 208.911C214.589 210.005 203.68 205.793 200.231 196.761C198.685 192.714 198.752 188.611 199.755 184.465C199.85 184.064 200.065 183.941 200.45 183.889C201.584 183.745 202.718 183.698 203.772 183.654L204.018 183.644Z" fill="#3FA0D9"/>
<path d="M224.204 204.183C224.218 200.013 224.756 196.367 226.54 193.014C229.051 188.283 233.147 185.604 238.29 184.364C241.525 183.581 244.793 183.496 248.09 183.887C248.645 183.951 248.722 184.273 248.817 184.663L248.828 184.708C251.311 194.712 246.92 203.391 237.301 207.343C233.699 208.819 229.965 209.55 226.054 208.786C224.56 208.494 224.532 208.484 224.375 207.018C224.289 206.238 224.258 205.456 224.233 204.832C224.223 204.588 224.214 204.369 224.204 204.183Z" fill="#3FA0D9"/>
<rect x="210.283" y="246.39" width="9.31257" height="1.40244" rx="0.701218" fill="#0384CF"/>
<rect x="224.921" y="246.39" width="9.31257" height="1.40244" rx="0.701218" fill="#66C5FD"/>
<rect x="239.554" y="246.39" width="9.31257" height="1.40244" rx="0.701218" fill="#B6E4FF"/>
<g filter="url(#filter0_d)">
<ellipse cx="413.417" cy="190" rx="30.3556" ry="32" fill="#3FA0D9"/>
</g>
<path d="M424.711 181.174H423.496V176.116C423.496 170.537 419.135 166 413.772 166C408.41 166 404.049 170.537 404.049 176.116V181.174H402.834C400.823 181.174 399.188 182.876 399.188 184.967V202.67C399.188 204.761 400.823 206.463 402.834 206.463H424.711C426.721 206.463 428.357 204.761 428.357 202.67V184.967C428.357 182.876 426.721 181.174 424.711 181.174ZM407.289 176.116C407.289 172.398 410.197 169.371 413.772 169.371C417.348 169.371 420.255 172.398 420.255 176.116V181.174H407.289V176.116ZM415.394 194.193V198.034C415.394 198.965 414.669 199.721 413.772 199.721C412.875 199.721 412.151 198.965 412.151 198.034V194.193C411.186 193.609 410.53 192.534 410.53 191.289C410.53 189.431 411.983 187.918 413.77 187.918C415.557 187.918 417.01 189.431 417.01 191.289C417.013 192.531 416.356 193.609 415.394 194.193Z" fill="white"/>
<g clip-path="url(#clip1)" filter="url(#filter1_d)">
<ellipse cx="43.1311" cy="187.655" rx="28.1311" ry="29.655" fill="white"/>
<path d="M43.1311 158.001C27.5963 158.001 15 171.277 15 187.655C15 204.032 27.5951 217.308 43.1311 217.308C58.6683 217.308 71.2621 204.032 71.2621 187.655C71.2621 171.277 58.6683 158.001 43.1311 158.001ZM43.1311 166.868C48.2714 166.868 52.4368 171.26 52.4368 176.676C52.4368 182.094 48.2714 186.485 43.1311 186.485C37.9932 186.485 33.8278 182.094 33.8278 176.676C33.8278 171.26 37.9932 166.868 43.1311 166.868ZM43.1249 209.555C37.9981 209.555 33.3026 207.587 29.6809 204.329C28.7986 203.536 28.2895 202.373 28.2895 201.152C28.2895 195.659 32.5068 191.263 37.7189 191.263H48.5457C53.759 191.263 57.9602 195.659 57.9602 201.152C57.9602 202.374 57.4536 203.535 56.5701 204.328C52.9496 207.587 48.2529 209.555 43.1249 209.555Z" fill="#3FA0D9"/>
</g>
<defs>
<filter id="filter0_d" x="368.061" y="147" width="90.7111" height="94" filterUnits="userSpaceOnUse" color-interpolation-filters="sRGB">
<feFlood flood-opacity="0" result="BackgroundImageFix"/>
<feColorMatrix in="SourceAlpha" type="matrix" values="0 0 0 0 0 0 0 0 0 0 0 0 0 0 0 0 0 0 127 0" result="hardAlpha"/>
<feOffset dy="4"/>
<feGaussianBlur stdDeviation="7.5"/>
<feColorMatrix type="matrix" values="0 0 0 0 0.247059 0 0 0 0 0.627451 0 0 0 0 0.85098 0 0 0 0.15 0"/>
<feBlend mode="normal" in2="BackgroundImageFix" result="effect1_dropShadow"/>
<feBlend mode="normal" in="SourceGraphic" in2="effect1_dropShadow" result="shape"/>
</filter>
<filter id="filter1_d" x="0" y="147" width="86.2621" height="89.31" filterUnits="userSpaceOnUse" color-interpolation-filters="sRGB">
<feFlood flood-opacity="0" result="BackgroundImageFix"/>
<feColorMatrix in="SourceAlpha" type="matrix" values="0 0 0 0 0 0 0 0 0 0 0 0 0 0 0 0 0 0 127 0" result="hardAlpha"/>
<feOffset dy="4"/>
<feGaussianBlur stdDeviation="7.5"/>
<feColorMatrix type="matrix" values="0 0 0 0 0.247059 0 0 0 0 0.627451 0 0 0 0 0.85098 0 0 0 0.15 0"/>
<feBlend mode="normal" in2="BackgroundImageFix" result="effect1_dropShadow"/>
<feBlend mode="normal" in="SourceGraphic" in2="effect1_dropShadow" result="shape"/>
</filter>
<linearGradient id="paint0_linear" x1="268.823" y1="237.274" x2="176.465" y2="150.99" gradientUnits="userSpaceOnUse">
<stop stop-color="#111111"/>
<stop offset="1" stop-color="#1D1E1E"/>
</linearGradient>
<clipPath id="clip0">
<rect width="14.0827" height="14.0827" fill="white" transform="translate(218.122 286.657)"/>
</clipPath>
<clipPath id="clip1">
<rect width="56.2621" height="59.31" fill="white" transform="translate(15 158)"/>
</clipPath>
</defs>
</svg>
