<svg width="105" height="55" viewBox="0 0 105 55" fill="none" xmlns="http://www.w3.org/2000/svg">
<path fill-rule="evenodd" clip-rule="evenodd" d="M17.5067 33.7882C16.6771 33.7882 16.0275 34.3686 16.0275 35.2155C16.0275 36.0629 16.6804 36.64 17.5067 36.64C18.3324 36.64 18.9858 36.059 18.9858 35.2155C18.9858 34.3686 18.3357 33.7882 17.5067 33.7882ZM17.5067 36.2318C16.9151 36.2318 16.4764 35.7998 16.4764 35.2155C16.4764 34.6317 16.9118 34.1963 17.5067 34.1963C18.0943 34.1963 18.5364 34.6384 18.5364 35.2155C18.5364 35.7892 18.0904 36.2318 17.5067 36.2318ZM31.8994 28.796H24.6989L25.5173 16.2805L20.8413 28.796H14.1548L24.7641 0.507263H31.8788L31.0576 13.1945L35.8222 0.507263H42.5093L31.8994 28.796ZM32.7681 28.796L43.3768 0.507263H50.0633L39.4546 28.796H32.7681Z" fill="white"/>
<path fill-rule="evenodd" clip-rule="evenodd" d="M13.3836 19.0452C4.03988 30.018 -4.77418 44.6182 3.01123 51.3415C10.5552 57.8568 19.9848 53.9993 26.4143 51.4273C32.8438 48.8554 103.909 17.9948 103.909 17.9948C104.595 17.6519 104.466 17.2232 103.609 17.4373C103.263 17.5237 26.2431 38.3967 26.2431 38.3967C16.4695 41.1403 5.32555 35.1607 13.3836 19.0452Z" fill="white"/>
<path fill-rule="evenodd" clip-rule="evenodd" d="M17.7589 35.3157C17.9663 35.3057 18.1285 35.1987 18.1285 34.9115C18.1285 34.5413 17.8865 34.4482 17.4823 34.4482H16.9014V35.9831H17.2889V35.3297H17.3541L17.707 35.9831H18.1525L17.7589 35.3157ZM17.5102 35.0671H17.2894V34.7108H17.4756C17.5899 34.7108 17.7209 34.7242 17.7209 34.8731C17.7209 35.0325 17.6451 35.0671 17.5102 35.0671ZM84.7221 0.420776C83.8925 0.420776 83.243 1.00173 83.243 1.84806C83.243 2.69496 83.8964 3.27201 84.7221 3.27201C85.5478 3.27201 86.2012 2.69106 86.2012 1.84806C86.2018 1.00173 85.5523 0.420776 84.7221 0.420776ZM84.7221 2.86501C84.1305 2.86501 83.6918 2.43292 83.6918 1.84862C83.6918 1.26488 84.1272 0.829448 84.7221 0.829448C85.3097 0.829448 85.7524 1.27157 85.7524 1.84862C85.7524 2.42233 85.3064 2.86501 84.7221 2.86501Z" fill="white"/>
<path fill-rule="evenodd" clip-rule="evenodd" d="M84.9748 1.94849C85.1822 1.93845 85.345 1.83141 85.345 1.54428C85.345 1.17407 85.1025 1.08097 84.6988 1.08097H84.1179V2.6153H84.5048V1.96243H84.5706L84.9229 2.6153H85.369L84.9748 1.94849ZM84.7256 1.69983H84.5048V1.34356H84.6916C84.8053 1.34356 84.9369 1.3575 84.9369 1.50636C84.9369 1.66526 84.8605 1.69983 84.7256 1.69983ZM80.3166 5.22233L82.1135 0.507263H61.7111L54.7057 8.99405L57.9399 0.507263H51.1676L40.6436 28.796H47.3301L51.8232 16.9662L52.131 28.796L72.6477 28.7514L74.6007 23.3099H66.8003L69.3633 16.4522H75.7922L77.7703 11.1801H71.3414L73.5453 5.22233H80.3166ZM58.7645 26.9099L58.3358 12.1659L68.4456 1.06591L58.7645 26.9099Z" fill="white"/>
</svg>
