<svg width="136" height="48" viewBox="0 0 136 48" fill="none" xmlns="http://www.w3.org/2000/svg">
<path d="M61.4817 13.9456C64.2343 13.9765 66.5953 14.7499 68.4689 16.7291C69.8029 18.1378 70.5537 19.8522 70.882 21.7469C71.3158 24.3206 71.1158 26.8394 69.9297 29.2004C68.4759 32.0797 66.0811 33.6462 62.9101 34.0223C61.1535 34.2336 59.4278 34.0857 57.7656 33.4293C55.606 32.584 54.0184 31.0894 53.076 28.9834C51.594 25.6476 51.5729 22.271 53.1183 18.9676C54.4833 16.0671 56.8767 14.4907 60.042 14.0554C60.5193 13.9902 61.0001 13.9535 61.4817 13.9456ZM66.0234 24.2291C66.0234 22.8006 65.843 21.6356 65.2824 20.5453C64.5414 19.0958 63.3553 18.3224 61.7254 18.2689C59.9998 18.2167 58.6756 18.9042 57.8501 20.4397C57.0668 21.8793 56.9499 23.4458 57.1091 25.0447C57.1958 25.9561 57.462 26.8413 57.8923 27.6494C59.332 30.402 63.63 30.433 65.1232 27.7902C65.7142 26.6983 66.0236 25.4763 66.0234 24.2347V24.2291Z" fill="white"/>
<path d="M114.763 32.0502C114.492 32.4166 114.183 32.7537 113.842 33.056C112.455 34.183 110.883 34.3041 109.227 33.9012C107.522 33.4984 106.294 32.4404 105.564 30.8838C104.251 28.1312 104.113 25.304 105.373 22.5105C106.812 19.3015 110.01 18.6986 112.371 19.5241C113.077 19.7767 113.704 20.21 114.191 20.7806L114.488 21.1398C114.594 21.0131 114.552 20.875 114.552 20.7595C114.561 18.6098 114.573 16.4503 114.561 14.3006C114.561 14.0189 114.636 13.9301 114.932 13.9301C116.235 13.9512 117.527 13.9414 118.828 13.9301C119.093 13.9301 119.188 13.9724 119.188 14.2696C119.177 20.621 119.177 26.9761 119.188 33.3349C119.188 33.5899 119.136 33.6744 118.859 33.6744C117.6 33.6632 116.324 33.6632 115.07 33.6744C114.826 33.6744 114.742 33.6209 114.753 33.3673C114.774 32.9588 114.763 32.5461 114.763 32.0502ZM114.721 26.6972C114.732 25.8717 114.636 25.0673 114.287 24.3024C113.864 23.3599 113.16 22.7979 112.095 22.7528C110.974 22.7105 110.158 23.1871 109.649 24.1826C109.351 24.7932 109.188 25.4613 109.173 26.1407C109.131 27.2522 109.248 28.3425 109.83 29.3272C110.348 30.2062 111.143 30.595 112.148 30.5556C113.154 30.5161 113.863 30.0048 114.275 29.0835C114.625 28.3214 114.711 27.517 114.721 26.6972Z" fill="white"/>
<path d="M86.5607 33.6786H82.6163C81.843 33.6786 81.8218 33.6575 81.7373 32.8742C81.7162 32.7263 81.6951 32.577 81.6641 32.3868C80.9454 33.084 80.0589 33.5838 79.0904 33.8378C77.8996 34.1718 76.644 34.2009 75.439 33.9223C72.94 33.318 72.0398 31.4134 72.2737 29.2116C72.4639 27.3578 73.6598 26.3843 75.3221 25.8547C76.5716 25.4631 77.8578 25.3363 79.1439 25.1503C79.6834 25.0658 80.2342 25.0334 80.7639 24.8686C81.271 24.7094 81.5781 24.3924 81.6317 23.8416C81.6687 23.6014 81.6307 23.3555 81.5228 23.1377C81.4149 22.9198 81.2423 22.7406 81.0287 22.6245C80.599 22.3691 80.1147 22.2196 79.6157 22.1882C79.1168 22.1569 78.6176 22.2446 78.1592 22.4442C77.6295 22.6668 77.3225 23.1105 77.1731 23.6515C77.1097 23.8726 77.0323 23.9473 76.8026 23.9473C75.5743 23.9379 74.3463 23.9379 73.1189 23.9473C72.8372 23.9473 72.7907 23.8628 72.8217 23.6092C73.0442 21.5441 74.2304 20.2734 76.1363 19.6916C78.3851 18.988 80.7935 18.9767 83.0488 19.6592C84.9759 20.2424 85.9916 21.6497 86.0071 23.6613C86.0282 25.8955 86.0071 28.1396 86.0184 30.3738C86.031 31.4866 86.0944 32.577 86.5607 33.6786ZM81.5852 27.1197C80.8808 27.4479 80.1553 27.5324 79.4566 27.6916C78.7903 27.8325 78.0916 27.9452 77.5197 28.3579C76.9477 28.7707 76.7688 29.3215 76.8843 29.9892C76.99 30.6133 77.3929 30.9626 77.9747 31.1429C78.4975 31.2806 79.0458 31.2913 79.5736 31.1739C80.4948 31.0162 81.0766 30.4696 81.3626 29.5976C81.595 28.7974 81.6162 27.9832 81.5852 27.1197Z" fill="white"/>
<path d="M93.1026 21.4722C94.5324 19.4606 97.1681 18.7309 99.6558 19.4817C101.149 19.9367 102.028 20.9848 102.408 22.478C102.579 23.1668 102.661 23.8745 102.652 24.584C102.662 27.4958 102.652 30.4174 102.662 33.3292C102.662 33.5828 102.61 33.6673 102.334 33.6673C101.001 33.657 99.6676 33.657 98.3331 33.6673C98.0781 33.6673 98.026 33.5941 98.026 33.3504C98.0358 30.7879 98.0358 28.2269 98.026 25.6532C98.0313 25.2211 97.9778 24.7903 97.8668 24.3727C97.6231 23.5472 97.0836 23.1232 96.2369 23.0176C94.1239 22.7738 93.3364 24.2572 93.2787 25.6321C93.2265 27.2845 93.2575 28.9355 93.2575 30.5879C93.2575 31.519 93.2477 32.4615 93.2575 33.3926C93.2575 33.5941 93.204 33.6575 93.004 33.6575C91.6277 33.6462 90.2401 33.6462 88.8638 33.6575C88.599 33.6575 88.6201 33.5166 88.6201 33.3504V19.9353C88.6201 19.6705 88.6736 19.5761 88.9596 19.5761C90.219 19.5972 91.4952 19.5972 92.749 19.5761C93.0462 19.5761 93.1195 19.6606 93.1096 19.9466C93.0814 20.4777 93.1026 20.9749 93.1026 21.4722Z" fill="white"/>
<path d="M135.82 26.6281C135.809 30.4499 133.438 33.3504 129.763 33.9744C125.496 34.7056 121.854 32.2277 121.134 28.1213C120.541 24.7334 121.992 21.3976 125.052 19.9368C128.937 18.0843 134.389 19.6719 135.617 24.8179C135.744 25.4132 135.812 26.0195 135.82 26.6281ZM131.194 26.7126C131.162 25.7068 131.045 24.956 130.707 24.2671C130.219 23.2726 129.447 22.7316 128.312 22.764C127.2 22.795 126.449 23.3571 126.047 24.3516C125.435 25.8048 125.42 27.4402 126.004 28.9045C126.427 30.016 127.285 30.5767 128.399 30.5767C129.513 30.5767 130.346 29.9738 130.794 28.8933C131.062 28.1978 131.198 27.4581 131.194 26.7126Z" fill="white"/>
<path d="M22.3747 0.320679H22.7973C22.8185 0.468592 22.9382 0.461549 23.0411 0.461549C24.03 0.466931 25.0178 0.530428 25.9993 0.65172C27.543 0.828721 29.0646 1.16195 30.541 1.64627C31.5516 1.99826 32.5396 2.41227 33.4992 2.88592C34.2548 3.27814 34.977 3.73136 35.6588 4.24109C36.4321 4.78062 37.1196 5.44693 37.7972 6.10339C38.5244 6.81765 39.1845 7.59711 39.7694 8.43197C40.6371 9.62936 41.2837 10.931 41.9078 12.265C42.1303 12.7524 42.2782 13.2596 42.4712 13.7583C42.8164 14.6689 43.0946 15.6034 43.3038 16.5545C43.5052 17.4645 43.6433 18.407 43.7602 19.3381C43.9483 20.7674 44.0579 22.206 44.0884 23.6473C44.0983 24.1967 44.056 24.7475 44.0462 25.287C44.0155 26.4849 43.9162 27.68 43.7489 28.8666C43.6221 29.7977 43.4954 30.7288 43.2826 31.6501C43.0131 32.8164 42.6629 33.9626 42.2346 35.0803C42.0355 35.6478 41.7876 36.1969 41.4936 36.7215C41.4837 36.7215 41.4725 36.7102 41.4626 36.7102C41.4527 36.7102 41.4837 36.7215 41.4936 36.7215C41.493 36.8018 41.4752 36.881 41.4415 36.9539C41.1133 37.6216 40.6794 38.2344 40.3399 38.9021C39.9694 39.6318 39.3763 40.2362 38.8791 40.8743C38.1209 41.8207 37.2457 42.6671 36.2744 43.3931C35.4842 44.0219 34.6415 44.5818 33.7556 45.0666C33.2161 45.3483 32.6751 45.6582 32.1046 45.8921C31.682 46.0724 31.2143 46.1879 30.7917 46.3682C29.8056 46.781 28.7688 46.9712 27.7419 47.236C27.425 47.3146 27.103 47.3711 26.7783 47.405C26.0275 47.491 25.2753 47.5642 24.5244 47.6389C23.613 47.7121 22.703 47.7023 21.7929 47.7234C21.142 47.7489 20.49 47.7168 19.8447 47.6276C19.1784 47.522 18.4895 47.522 17.8444 47.374C16.8808 47.1515 15.906 46.9824 14.965 46.6965C13.9268 46.3894 12.9421 45.9442 11.9574 45.5103C10.9727 45.0765 10.0838 44.4524 9.19495 43.8199C8.61316 43.4071 8.10462 42.9211 7.56509 42.4549C7.4059 42.314 7.28335 42.1576 7.1298 42.0097C6.67266 41.5983 6.25135 41.1487 5.87042 40.6658C5.39428 40.0192 4.928 39.374 4.50539 38.6936C3.37979 36.8792 2.534 34.9055 1.9965 32.8391C1.73166 31.822 1.52036 30.8063 1.31892 29.7794C1.03718 28.2228 0.948428 26.6563 0.863906 25.0898C0.786883 23.9324 0.811393 22.7705 0.937158 21.6174C1.00055 21.1201 0.969558 20.6214 1.05408 20.1242C1.19495 19.2987 1.26538 18.4619 1.43443 17.6477C1.60488 16.8025 1.80492 15.9572 2.03876 15.112C2.33422 14.0389 2.70565 12.9882 3.15022 11.9678C3.36153 11.4705 3.63763 10.9944 3.87993 10.5182C4.24966 9.80468 4.66369 9.11494 5.11959 8.4531C5.59606 7.76014 6.13046 7.10887 6.71705 6.50628C7.2983 5.88274 7.91743 5.2956 8.5709 4.74822C9.21763 4.22968 9.90387 3.76245 10.6234 3.35079C11.2798 2.97044 11.9687 2.64644 12.6463 2.30271C13.1548 2.03788 13.7042 1.88997 14.2339 1.68852C15.0683 1.38955 15.9203 1.14209 16.785 0.947547C17.3203 0.832259 17.8609 0.743869 18.405 0.682711C19.3996 0.541841 20.3842 0.408017 21.3901 0.429147H22.0944C22.2156 0.45873 22.3536 0.495357 22.3747 0.320679ZM22.6184 45.2385C23.788 45.2208 24.9535 45.0973 26.1007 44.8694C27.0007 44.6801 27.8802 44.4036 28.7266 44.0439C29.7661 43.6024 30.7474 43.0346 31.6482 42.3534C32.5189 41.691 33.3144 40.9352 34.0205 40.0995C34.6272 39.394 35.1694 38.6354 35.6405 37.8329C35.8616 37.4314 36.1053 37.0286 36.3068 36.6059C36.7628 35.6277 37.1621 34.624 37.5028 33.5998C37.6507 33.1448 37.8 32.6898 37.9056 32.2348C38.2323 30.9024 38.4797 29.552 38.6466 28.1904C38.7945 26.9831 38.8269 25.7773 38.9002 24.57C38.9636 23.4431 38.8579 22.3358 38.7847 21.2145C38.7158 20.1812 38.5883 19.1526 38.4029 18.1337C38.0324 16.0798 37.4929 14.0682 36.6237 12.1622C36.1391 11.0513 35.5395 9.99415 34.8347 9.00812C34.0514 7.93892 33.2048 6.92184 32.1469 6.08648C30.95 5.11102 29.6014 4.33821 28.1546 3.79876C26.3095 3.13258 24.3571 2.81354 22.3959 2.85774C21.962 2.8676 21.538 2.88874 21.1041 2.92114C20.4075 2.96302 19.7147 3.05292 19.0305 3.1902C17.6329 3.46312 16.2842 3.94464 15.0298 4.61862C14.471 4.91101 13.9364 5.24734 13.4309 5.62443C12.6326 6.2479 11.8889 6.93831 11.208 7.68817C10.7053 8.25689 10.2453 8.86192 9.83168 9.49835C9.13952 10.5492 8.55433 11.6667 8.0849 12.8342C7.81386 13.466 7.5787 14.1127 7.38055 14.7711C6.94964 16.2675 6.62391 17.7921 6.40573 19.3339C6.21133 20.7806 6.16766 22.2133 6.093 23.653C6.03947 24.6912 6.15639 25.728 6.20992 26.7662C6.26232 27.8709 6.38939 28.9708 6.59027 30.0583C7.00302 32.2488 7.59608 34.3872 8.59203 36.3975C9.16223 37.6152 9.87129 38.7629 10.7051 39.8178C12.3212 41.8716 14.4757 43.4365 16.9287 44.3383C18.7657 44.9962 20.6604 45.1962 22.6184 45.2385Z" fill="white"/>
<path d="M22.6186 45.2384C20.6703 45.1962 18.7658 44.9962 16.933 44.3186C15.7833 43.9002 14.6939 43.3318 13.693 42.6281C12.5716 41.8283 11.5673 40.8757 10.7094 39.798C9.87906 38.7408 9.17026 37.5934 8.59636 36.3777C7.60041 34.3661 7.01862 32.2277 6.5946 30.0386C6.39152 28.9508 6.26349 27.8504 6.21144 26.745C6.1579 25.7068 6.04098 24.67 6.09451 23.6318C6.1579 22.1921 6.20017 20.7524 6.41147 19.3127C6.62965 17.771 6.95538 16.2463 7.38629 14.75C7.58445 14.0916 7.8196 13.4449 8.09064 12.813C8.56462 11.6476 9.14957 10.5306 9.83743 9.47721C10.2559 8.84422 10.7157 8.23952 11.2137 7.66703C11.8947 6.91717 12.6384 6.22675 13.4367 5.60328C13.9445 5.22965 14.4789 4.89349 15.0355 4.59747C16.2861 3.91989 17.6336 3.43905 19.0306 3.17187C19.7154 3.0364 20.4087 2.94838 21.1056 2.90844C21.5395 2.88731 21.9635 2.85491 22.3974 2.84505C24.3582 2.80644 26.3096 3.12532 28.1561 3.78606C29.6038 4.32363 30.9527 5.09661 32.1484 6.07379C33.2063 6.90915 34.053 7.92623 34.8362 8.99543C35.5363 9.98445 36.1356 11.0411 36.6252 12.1495C37.5043 14.0555 38.0339 16.0671 38.4044 18.121C38.5894 19.1404 38.7164 20.1694 38.7848 21.2032C38.858 22.3302 38.9637 23.436 38.9003 24.5587C38.827 25.766 38.7946 26.9718 38.6467 28.1791C38.4801 29.5388 38.2331 30.8874 37.9072 32.2178C37.7902 32.6728 37.6522 33.1391 37.5043 33.5829C37.1654 34.6081 36.766 35.6124 36.3083 36.5904C36.1068 37.013 35.8744 37.4159 35.642 37.8174C35.1761 38.6223 34.633 39.38 34.0206 40.0798C32.5944 41.7965 30.7796 43.1487 28.7267 44.0241C27.8803 44.3839 27.0008 44.6603 26.1009 44.8496C24.9558 45.0938 23.7893 45.2241 22.6186 45.2384ZM25.7628 38.9711C25.922 38.9711 26.091 38.9824 26.2502 38.9711C26.4094 38.9599 26.5671 38.919 26.7362 38.9077C28.2549 38.8098 29.7301 38.3603 31.0454 37.5948C32.3125 36.8886 33.4478 35.9683 34.4009 34.8746C35.132 34.0379 35.8096 33.149 36.2857 32.1544C37.212 30.2609 37.5618 28.1369 37.2916 26.0463C37.086 24.5186 36.643 23.0323 35.9787 21.6413C34.963 19.4508 33.5233 17.5336 31.8822 15.7868C30.401 14.1917 28.7218 12.7928 26.8855 11.6241C25.6581 10.8326 24.3319 10.206 22.9411 9.76035C21.4381 9.28421 19.8927 9.01938 18.2924 9.1687C17.7002 9.21502 17.1128 9.30924 16.5358 9.45044C15.0657 9.84117 13.69 10.5254 12.4914 11.4621C11.2142 12.4278 10.1206 13.6149 9.26268 14.9669C7.8976 17.0826 7.33771 19.6181 7.68493 22.1118C7.89055 23.6655 8.34429 25.1761 9.02883 26.5859C9.87114 28.3085 10.9353 29.9135 12.1942 31.3599C13.3222 32.686 14.5736 33.902 15.9315 34.9916C17.3151 36.1084 18.838 37.0408 20.4618 37.7653C22.1314 38.5146 23.9333 38.9245 25.7628 38.9711Z" fill="black"/>
<path d="M41.4937 36.727C41.4838 36.727 41.4725 36.7172 41.4627 36.7172C41.4682 36.7165 41.4739 36.7171 41.4792 36.7188C41.4846 36.7205 41.4895 36.7233 41.4937 36.727Z" fill="#636363"/>
<path d="M25.7626 38.9711C23.9273 38.9252 22.1199 38.5113 20.4475 37.754C18.8212 37.0343 17.2977 36.1015 15.9172 34.9802C14.5594 33.8895 13.3081 32.6726 12.1799 31.3458C10.9416 29.8737 9.8513 28.3171 9.01454 26.5703C8.33074 25.1627 7.87701 23.6546 7.67064 22.1033C7.33119 19.6066 7.8985 17.071 9.26951 14.957C10.1271 13.6051 11.2207 12.4184 12.4982 11.4536C13.6956 10.5158 15.0711 9.83141 16.5412 9.44194C17.1185 9.29977 17.7065 9.20553 18.2993 9.1602C19.8981 9.01229 21.4322 9.27712 22.948 9.75326C24.3364 10.205 25.6618 10.8312 26.8923 11.617C28.7316 12.7805 30.4114 14.1789 31.889 15.7769C33.54 17.5406 34.9726 19.4395 35.9897 21.6258C36.6534 23.0164 37.0959 24.5022 37.3012 26.0294C37.574 28.12 37.2241 30.2447 36.2954 32.1375C35.8094 33.1433 35.1417 34.0223 34.412 34.8591C33.4603 35.9542 32.3247 36.8747 31.0564 37.5793C29.7416 38.3459 28.2662 38.7955 26.7472 38.8922C26.5881 38.9021 26.4289 38.9443 26.2598 38.9556C26.0946 38.9712 25.9285 38.9764 25.7626 38.9711ZM24.9469 13.5962C23.9068 13.5933 22.8745 13.776 21.8985 14.1357C19.7488 14.9091 17.9386 16.222 16.3299 17.8195C15.5496 18.5775 14.8421 19.4071 14.2169 20.2974C12.8082 22.3724 11.8136 24.5629 12.0348 27.1465C12.0903 27.9257 12.2839 28.6889 12.6067 29.4004C13.2482 30.797 14.227 32.0121 15.4551 32.9362C16.6679 33.8858 18.1431 34.44 19.6812 34.5238C20.6852 34.5735 21.6895 34.43 22.6395 34.1012C24.9258 33.3588 26.8529 32.0361 28.556 30.3639C29.5635 29.3874 30.449 28.2924 31.1931 27.1028C32.3355 25.2292 33.1089 23.25 32.9286 20.9834C32.8448 19.9327 32.5302 18.9135 32.0073 17.9984C31.4584 17.0459 30.7427 16.1999 29.8943 15.5008C28.4687 14.3005 26.8318 13.6061 24.9469 13.5962Z" fill="white"/>
<path d="M24.947 13.5963C26.8431 13.6174 28.4617 14.3006 29.8915 15.5121C30.7396 16.2121 31.4552 17.0585 32.0046 18.0111C32.5269 18.9265 32.8414 19.9456 32.9258 20.9961C33.1047 23.2613 32.3328 25.2307 31.1889 27.1155C30.4514 28.309 29.5658 29.4043 28.5532 30.3753C26.8487 32.0488 24.9216 33.3716 22.6367 34.1125C21.6867 34.4414 20.6825 34.5848 19.6784 34.5352C18.1411 34.4469 16.667 33.8926 15.4523 32.9461C14.2298 32.0167 13.2526 30.803 12.6054 29.4103C12.2842 28.6983 12.0906 27.9354 12.0334 27.1564C11.8109 24.5616 12.8068 22.3668 14.2141 20.3059C14.8368 19.4141 15.5445 18.5847 16.3271 17.8294C17.9359 16.2305 19.7461 14.9176 21.8943 14.1456C22.8689 13.7746 23.9041 13.5883 24.947 13.5963ZM29.7013 24.2347C29.7323 21.8639 28.7378 20.2552 26.7571 19.3128C24.2215 18.1055 21.5816 18.0956 18.9445 18.9845C17.5358 19.4607 16.3933 20.3186 15.7369 21.6949C15.3091 22.6183 15.1481 23.643 15.272 24.6531C15.4199 26.0717 16.0017 27.2578 17.1132 28.1467C18.5219 29.2737 20.2123 29.6498 21.9521 29.7456C23.3323 29.8283 24.7149 29.6299 26.0162 29.1624C28.2405 28.3636 29.7647 26.5746 29.7013 24.2347Z" fill="black"/>
<path d="M29.7013 24.2347C29.7647 26.5746 28.2405 28.3537 26.0274 29.1652C24.7256 29.6327 23.3426 29.8311 21.9619 29.7484C20.2052 29.6526 18.5317 29.2821 17.1244 28.1495C16.0129 27.2606 15.4199 26.0857 15.2818 24.6559C15.1584 23.6456 15.3199 22.621 15.7481 21.6976C16.4046 20.3213 17.547 19.4634 18.9557 18.9873C21.5914 18.0984 24.2271 18.1083 26.7684 19.3155C28.7377 20.2551 29.7365 21.8639 29.7013 24.2347Z" fill="white"/>
</svg>
