<svg width="67" height="68" viewBox="0 0 67 68" fill="none" xmlns="http://www.w3.org/2000/svg">
<g clip-path="url(#clip0)">
<path fill-rule="evenodd" clip-rule="evenodd" d="M0.0371094 0.287903H66.7524V67.807H0.0371094V0.287903Z" fill="white"/>
<path fill-rule="evenodd" clip-rule="evenodd" d="M37.9955 13.3808H55.098V30.5178H37.9955V13.3808ZM17.3195 39.1862V40.8627H20.2672V49.732H22.2996V40.7949H25.044V39.1184L17.3195 39.1873V39.1862ZM15.8015 41.2646V39.5881C14.1709 38.8509 12.2958 38.6281 10.3758 39.5881C7.22724 40.9959 7.11471 47.9671 10.2645 49.3301C12.073 50.2465 15.8451 49.8216 16.2252 49.0166V43.498H12.4749V44.9506H14.1261V47.8557C8.70049 50.4922 7.69574 37.8232 15.8015 41.2646ZM28.3499 44.861H30.2917C31.8993 44.9288 32.3241 47.9671 30.2251 47.9441H28.3499V44.861ZM28.3499 40.594H30.2917C31.8993 40.8845 31.3194 43.2752 30.2251 43.3418H28.3499V40.594ZM26.3404 38.9634V49.6425H31.6765C34.4002 48.6595 34.5128 44.4373 31.6765 43.9895C34.2888 43.7001 34.4232 38.8957 29.9127 38.8957L26.3404 38.9634ZM35.7621 41.957V43.5428C37.1906 43.1409 40.2944 42.0236 40.0039 44.3925C37.2801 44.2134 35.4268 44.7048 35.1145 46.402C34.6012 50.0673 38.5306 50.4244 40.183 48.6147V49.4863H42.0581V43.0513C41.5896 40.9729 38.487 40.7054 35.7621 41.957ZM37.3467 46.0908C37.7716 45.5316 39.1335 45.5534 40.0486 45.8221V47.2299C38.5536 48.8375 36.1422 48.1015 37.3479 46.0897L37.3467 46.0908ZM45.9439 43.8563C46.4354 43.32 49.0477 42.3141 49.4496 43.8563V49.5311H51.5476V43.521C51.1009 41.0177 48.7113 40.571 45.8096 42.2693V41.3312H43.8231V49.5759H45.921L45.9439 43.8563ZM58.1341 41.2416L55.3886 44.9276L58.2914 49.4633L60.8142 49.3967L57.622 45.0401L60.5019 41.3082L58.1353 41.2416H58.1341ZM53.1115 38.5374H55.1876V49.4633H53.1104V38.5386L53.1115 38.5374Z" fill="#111111"/>
<path fill-rule="evenodd" clip-rule="evenodd" d="M37.9951 13.3808H55.0977V30.5178H37.9951V13.3808Z" fill="#111111"/>
</g>
<defs>
<clipPath id="clip0">
<rect width="66.7153" height="67.5191" fill="white" transform="translate(0.0371094 0.287903)"/>
</clipPath>
</defs>
</svg>
