<svg width="50" height="51" viewBox="0 0 50 51" fill="none" xmlns="http://www.w3.org/2000/svg">
<g clip-path="url(#clip0)">
<path d="M48.8908 0.533569H1.27527V50.4893H48.8908V0.533569Z" fill="white"/>
<path d="M1.99872 25.5117C1.99872 20.2942 12.3337 16.0641 25.0825 16.0641C37.8313 16.0641 48.1663 20.2952 48.1663 25.5122C48.1663 30.7291 37.8318 34.9582 25.0825 34.9582C12.3332 34.9582 1.99872 30.7286 1.99872 25.5117Z" fill="black"/>
<path d="M1.99872 25.5117C1.99872 20.2942 12.3337 16.0641 25.0825 16.0641C37.8313 16.0641 48.1663 20.2952 48.1663 25.5122C48.1663 30.7291 37.8318 34.9582 25.0825 34.9582C12.3332 34.9582 1.99872 30.7286 1.99872 25.5117Z" stroke="#111111" stroke-width="0.0682693" stroke-miterlimit="3.8636"/>
<path fill-rule="evenodd" clip-rule="evenodd" d="M10.4585 30.1036L12.8543 20.7203H16.6359V26.2391H16.6607L19.2261 20.7203H23.0674L20.6715 30.1036H18.1746L19.7105 24.0848H19.6857L16.6359 30.1036H14.6365V24.0848H14.5957L13.0599 30.1036H10.4585Z" fill="white"/>
<path fill-rule="evenodd" clip-rule="evenodd" d="M23.7441 30.2892L24.0842 28.9556H26.8401L26.4995 30.2892H23.7441Z" fill="white"/>
<path fill-rule="evenodd" clip-rule="evenodd" d="M24.1794 28.581L25.5733 23.1254H23.0682L23.6828 20.7203H31.4485L30.8344 23.1254H28.3292L26.9357 28.5794L24.1794 28.581Z" fill="white"/>
<path fill-rule="evenodd" clip-rule="evenodd" d="M29.6674 30.1036L32.0617 20.7203H34.768L35.989 25.741H36.0129L37.2946 20.7203H39.7963L37.4015 30.1036H34.8268L33.5009 24.9789H33.4771L32.1691 30.1036H29.6674Z" fill="white"/>
</g>
<defs>
<clipPath id="clip0">
<rect width="48.5872" height="50.9768" fill="white" transform="translate(0.788818 0.0232544)"/>
</clipPath>
</defs>
</svg>
