                            <svg width="120" height="49" viewBox="0 0 160 49" fill="none" xmlns="http://www.w3.org/2000/svg">
<g clip-path="url(#clip0)">
<path d="M153.708 48.7549H5.91186C2.60122 48.7549 0 46.0938 0 42.7069V6.41885C0 3.03197 2.60122 0.37085 5.91186 0.37085H153.708C157.019 0.37085 159.62 3.03197 159.62 6.41885V42.7069C159.62 46.0938 157.019 48.7549 153.708 48.7549Z" fill="black"/>
<path d="M153.708 1.33853C156.428 1.33853 158.674 3.63677 158.674 6.41885V42.7069C158.674 45.489 156.428 47.7872 153.708 47.7872H5.91186C3.1924 47.7872 0.945897 45.489 0.945897 42.7069V6.41885C0.945897 3.63677 3.1924 1.33853 5.91186 1.33853H153.708ZM153.708 0.37085H5.91186C2.60122 0.37085 0 3.15293 0 6.41885V42.7069C0 46.0938 2.60122 48.7549 5.91186 48.7549H153.708C157.019 48.7549 159.62 46.0938 159.62 42.7069V6.41885C159.62 3.15293 157.019 0.37085 153.708 0.37085Z" fill="#A6A6A6"/>
<path d="M56.0444 12.7085C56.0444 13.6762 55.8079 14.5229 55.2168 15.1277C54.5073 15.8534 53.6797 16.2163 52.6155 16.2163C51.5514 16.2163 50.7238 15.8534 50.0143 15.1277C49.3049 14.4019 48.9502 13.5552 48.9502 12.4666C48.9502 11.3779 49.3049 10.5312 50.0143 9.80544C50.7238 9.07968 51.5514 8.7168 52.6155 8.7168C53.0885 8.7168 53.5614 8.83776 54.0344 9.07968C54.5073 9.3216 54.862 9.56352 55.0985 9.9264L54.5073 10.5312C54.0344 9.9264 53.4432 9.68448 52.6155 9.68448C51.9061 9.68448 51.1967 9.9264 50.7238 10.5312C50.1326 11.015 49.8961 11.7408 49.8961 12.5875C49.8961 13.4342 50.1326 14.16 50.7238 14.6438C51.3149 15.1277 51.9061 15.4906 52.6155 15.4906C53.4432 15.4906 54.0344 15.2486 54.6256 14.6438C54.9803 14.281 55.2168 13.7971 55.2168 13.1923H52.6155V12.2246H56.0444V12.7085ZM61.4833 9.68448H58.2909V11.9827H61.2469V12.8294H58.2909V15.1277H61.4833V16.0954H57.345V8.83776H61.4833V9.68448ZM65.3852 16.0954H64.4393V9.68448H62.4292V8.83776H67.3952V9.68448H65.3852V16.0954ZM70.8241 16.0954V8.83776H71.77V16.0954H70.8241ZM75.79 16.0954H74.8441V9.68448H72.8341V8.83776H77.6818V9.68448H75.6718V16.0954H75.79ZM87.0226 15.1277C86.3131 15.8534 85.4855 16.2163 84.4213 16.2163C83.3572 16.2163 82.5295 15.8534 81.8201 15.1277C81.1107 14.4019 80.756 13.5552 80.756 12.4666C80.756 11.3779 81.1107 10.5312 81.8201 9.80544C82.5295 9.07968 83.3572 8.7168 84.4213 8.7168C85.4855 8.7168 86.3131 9.07968 87.0226 9.80544C87.732 10.5312 88.0867 11.3779 88.0867 12.4666C88.0867 13.5552 87.732 14.4019 87.0226 15.1277ZM82.5296 14.5229C83.0025 15.0067 83.7119 15.3696 84.4213 15.3696C85.1308 15.3696 85.8402 15.1277 86.3131 14.5229C86.7861 14.039 87.1408 13.3133 87.1408 12.4666C87.1408 11.6198 86.9043 10.8941 86.3131 10.4102C85.8402 9.9264 85.1308 9.56352 84.4213 9.56352C83.7119 9.56352 83.0025 9.80544 82.5296 10.4102C82.0566 10.8941 81.7019 11.6198 81.7019 12.4666C81.7019 13.3133 81.9384 14.039 82.5296 14.5229ZM89.3873 16.0954V8.83776H90.4514L93.8803 14.5229V8.83776H94.8262V16.0954H93.8803L90.215 10.1683V16.0954H89.3873Z" fill="white" stroke="white" stroke-width="0.24254" stroke-miterlimit="10"/>
<path d="M80.5192 26.7397C77.6816 26.7397 75.4351 28.917 75.4351 31.941C75.4351 34.844 77.6816 37.1423 80.5192 37.1423C83.3569 37.1423 85.6035 34.965 85.6035 31.941C85.6035 28.796 83.3569 26.7397 80.5192 26.7397ZM80.5192 34.965C78.9822 34.965 77.6816 33.6344 77.6816 31.82C77.6816 30.0056 78.9822 28.675 80.5192 28.675C82.0563 28.675 83.3569 29.8846 83.3569 31.82C83.3569 33.6344 82.0563 34.965 80.5192 34.965ZM69.5232 26.7397C66.6855 26.7397 64.439 28.917 64.439 31.941C64.439 34.844 66.6855 37.1423 69.5232 37.1423C72.3609 37.1423 74.6074 34.965 74.6074 31.941C74.6074 28.796 72.3609 26.7397 69.5232 26.7397ZM69.5232 34.965C67.9861 34.965 66.6855 33.6344 66.6855 31.82C66.6855 30.0056 67.9861 28.675 69.5232 28.675C71.0603 28.675 72.3609 29.8846 72.3609 31.82C72.3609 33.6344 71.0603 34.965 69.5232 34.965ZM56.3989 28.3122V30.4894H61.4831C61.3648 31.699 60.8919 32.6667 60.3007 33.2715C59.5913 33.9973 58.4089 34.844 56.3989 34.844C53.2065 34.844 50.8417 32.3039 50.8417 29.0379C50.8417 25.772 53.3247 23.2318 56.3989 23.2318C58.0542 23.2318 59.3548 23.9576 60.3007 24.8043L61.8378 23.2318C60.5372 22.0222 58.8818 21.0546 56.5171 21.0546C52.2606 21.0546 48.5952 24.6834 48.5952 29.0379C48.5952 33.3925 52.2606 37.0213 56.5171 37.0213C58.8818 37.0213 60.5372 36.2955 61.956 34.7231C63.3749 33.2715 63.8478 31.2152 63.8478 29.6427C63.8478 29.1589 63.8478 28.675 63.7296 28.3122H56.3989ZM110.079 30.0056C109.606 28.796 108.423 26.7397 105.822 26.7397C103.221 26.7397 101.093 28.796 101.093 31.941C101.093 34.844 103.221 37.1423 106.058 37.1423C108.305 37.1423 109.724 35.6907 110.197 34.844L108.541 33.6344C107.95 34.4811 107.241 35.0859 106.058 35.0859C104.876 35.0859 104.167 34.6021 103.575 33.5135L110.315 30.6104L110.079 30.0056ZM103.221 31.699C103.221 29.7637 104.758 28.675 105.822 28.675C106.65 28.675 107.477 29.1589 107.714 29.7637L103.221 31.699ZM97.6636 36.6584H99.9101V21.5384H97.6636V36.6584ZM94.1165 27.8283C93.5253 27.2235 92.5794 26.6187 91.3971 26.6187C88.9141 26.6187 86.5493 28.917 86.5493 31.82C86.5493 34.7231 88.7959 36.9003 91.3971 36.9003C92.5794 36.9003 93.5253 36.2955 93.9983 35.6907H94.1165V36.4165C94.1165 38.3519 93.0524 39.4405 91.3971 39.4405C90.0965 39.4405 89.1506 38.4728 88.9141 37.6261L87.0223 38.4728C87.6135 39.8034 89.0323 41.4968 91.5153 41.4968C94.1165 41.4968 96.2448 39.9243 96.2448 36.1746V26.9816H94.1165V27.8283ZM91.5153 34.965C89.9782 34.965 88.6776 33.6344 88.6776 31.82C88.6776 30.0056 89.9782 28.675 91.5153 28.675C93.0524 28.675 94.2348 30.0056 94.2348 31.82C94.2348 33.6344 93.0524 34.965 91.5153 34.965ZM120.365 21.5384H115.045V36.6584H117.291V30.9733H120.365C122.848 30.9733 125.213 29.1589 125.213 26.2558C125.213 23.3528 122.848 21.5384 120.365 21.5384V21.5384ZM120.483 28.796H117.291V23.5947H120.483C122.139 23.5947 123.085 25.0462 123.085 26.1349C122.966 27.4654 122.02 28.796 120.483 28.796ZM134.081 26.6187C132.425 26.6187 130.77 27.3445 130.179 28.917L132.189 29.7637C132.662 28.917 133.371 28.675 134.199 28.675C135.381 28.675 136.445 29.4008 136.564 30.6104V30.7314C136.209 30.4894 135.263 30.1266 134.317 30.1266C132.189 30.1266 130.061 31.3362 130.061 33.5135C130.061 35.5698 131.834 36.9003 133.726 36.9003C135.263 36.9003 135.972 36.1746 136.564 35.4488H136.682V36.6584H138.81V30.8523C138.574 28.1912 136.564 26.6187 134.081 26.6187V26.6187ZM133.844 34.965C133.135 34.965 132.071 34.6021 132.071 33.6344C132.071 32.4248 133.371 32.0619 134.435 32.0619C135.381 32.0619 135.854 32.3039 136.445 32.5458C136.209 33.9973 135.027 34.965 133.844 34.965V34.965ZM146.259 26.9816L143.776 33.5135H143.658L141.057 26.9816H138.692L142.594 36.1746L140.347 41.2549H142.594L148.624 26.9816H146.259ZM126.395 36.6584H128.642V21.5384H126.395V36.6584Z" fill="white"/>
<path d="M12.2967 9.44238C11.942 9.80526 11.8237 10.4101 11.8237 11.1358V37.868C11.8237 38.5938 12.0602 39.1986 12.4149 39.5614L12.5332 39.6824L27.1946 24.6834V24.4414L12.2967 9.44238Z" fill="url(#paint0_linear)"/>
<path d="M31.9241 29.7637L27.0764 24.8043V24.4414L31.9241 19.4821L32.0424 19.603L37.836 22.9899C39.4913 23.9576 39.4913 25.5301 37.836 26.4977L31.9241 29.7637Z" fill="url(#paint1_linear)"/>
<path d="M32.0425 29.6427L27.0765 24.5624L12.2969 39.6824C12.8881 40.2872 13.7157 40.2872 14.7799 39.8033L32.0425 29.6427Z" fill="url(#paint2_linear)"/>
<path d="M32.0425 19.482L14.7799 9.4423C13.7157 8.8375 12.8881 8.95846 12.2969 9.56326L27.0765 24.5623L32.0425 19.482Z" fill="url(#paint3_linear)"/>
<path opacity="0.2" d="M31.9242 29.5216L14.7799 39.4403C13.834 40.0451 13.0063 39.9242 12.4151 39.4403L12.2969 39.5613L12.4151 39.6823C13.0063 40.1661 13.834 40.2871 14.7799 39.6823L31.9242 29.5216Z" fill="black"/>
<path opacity="0.12" d="M12.2967 39.4405C11.942 39.0776 11.8237 38.4728 11.8237 37.747V37.868C11.8237 38.5937 12.0602 39.1985 12.4149 39.5614V39.4405H12.2967ZM37.8359 26.1349L31.9241 29.5217L32.0423 29.6427L37.8359 26.2558C38.6636 25.772 39.0183 25.1672 39.0183 24.5624C39.0183 25.1672 38.5453 25.651 37.8359 26.1349V26.1349Z" fill="black"/>
<path opacity="0.25" d="M14.7797 9.56334L37.8359 22.9899C38.5453 23.4738 39.0183 23.9576 39.0183 24.5624C39.0183 23.9576 38.6636 23.3528 37.8359 22.869L14.7797 9.44238C13.1243 8.4747 11.8237 9.20046 11.8237 11.1358V11.2568C11.8237 9.44238 13.1243 8.59566 14.7797 9.56334Z" fill="white"/>
</g>
<defs>
<linearGradient id="paint0_linear" x1="25.7757" y1="10.906" x2="5.48028" y2="30.7434" gradientUnits="userSpaceOnUse">
<stop stop-color="#00A0FF"/>
<stop offset="0.007" stop-color="#00A1FF"/>
<stop offset="0.26" stop-color="#00BEFF"/>
<stop offset="0.512" stop-color="#00D2FF"/>
<stop offset="0.76" stop-color="#00DFFF"/>
<stop offset="1" stop-color="#00E3FF"/>
</linearGradient>
<linearGradient id="paint1_linear" x1="40.0045" y1="24.5636" x2="11.3946" y2="24.5636" gradientUnits="userSpaceOnUse">
<stop stop-color="#FFE000"/>
<stop offset="0.409" stop-color="#FFBD00"/>
<stop offset="0.775" stop-color="#FFA500"/>
<stop offset="1" stop-color="#FF9C00"/>
</linearGradient>
<linearGradient id="paint2_linear" x1="29.355" y1="27.3396" x2="1.83399" y2="54.2411" gradientUnits="userSpaceOnUse">
<stop stop-color="#FF3A44"/>
<stop offset="1" stop-color="#C31162"/>
</linearGradient>
<linearGradient id="paint3_linear" x1="8.62798" y1="0.583188" x2="20.918" y2="12.5965" gradientUnits="userSpaceOnUse">
<stop stop-color="#32A071"/>
<stop offset="0.069" stop-color="#2DA771"/>
<stop offset="0.476" stop-color="#15CF74"/>
<stop offset="0.801" stop-color="#06E775"/>
<stop offset="1" stop-color="#00F076"/>
</linearGradient>
<clipPath id="clip0">
<rect width="159.62" height="48.401" fill="white" transform="translate(0 0.362061)"/>
</clipPath>
</defs>
</svg>