<svg width="112" height="39" viewBox="0 0 112 39" fill="none" xmlns="http://www.w3.org/2000/svg">
<g clip-path="url(#clip0)">
<path d="M6.74651 27.4571C7.2145 28.699 7.86243 29.7609 8.69041 30.6428C9.51839 31.5248 10.4993 32.1997 11.6331 32.6677C12.7671 33.1357 14 33.3696 15.3319 33.3696C16.6279 33.3696 17.8428 33.1266 18.9767 32.6406C20.1107 32.1546 21.1006 31.4707 21.9465 30.5888C22.7924 29.7068 23.4494 28.654 23.9174 27.43C24.3854 26.2061 24.6193 24.8383 24.6193 23.3263V0H30.2889V37.7972H24.6733V34.2875C23.4134 35.6193 21.9284 36.6452 20.2186 37.3653C18.5086 38.0852 16.6639 38.4452 14.684 38.4452C12.6681 38.4452 10.7872 38.0942 9.04132 37.3922C7.29551 36.6903 5.78352 35.6915 4.5057 34.3955C3.22789 33.0995 2.21986 31.5428 1.48196 29.7249C0.743947 27.907 0.375 25.8822 0.375 23.6503V0H6.04458V23.3263C6.04458 24.8383 6.27851 26.2151 6.74651 27.4571Z" fill="white"/>
<path d="M40.0615 0V13.769C41.3214 12.5091 42.7793 11.5102 44.4352 10.7722C46.091 10.0342 47.891 9.66527 49.8347 9.66527C51.8507 9.66527 53.7404 10.0432 55.5043 10.7991C57.2682 11.555 58.798 12.581 60.0939 13.877C61.3899 15.173 62.4159 16.7027 63.1718 18.4666C63.9277 20.2306 64.3056 22.1024 64.3056 24.0823C64.3056 26.062 63.9277 27.9249 63.1718 29.6707C62.4159 31.4167 61.3899 32.9376 60.0939 34.2333C58.798 35.5293 57.2682 36.5553 55.5043 37.3112C53.7404 38.0672 51.8506 38.4451 49.8347 38.4451C47.8908 38.4451 46.0821 38.0761 44.4082 37.3381C42.7343 36.6002 41.2674 35.6012 40.0075 34.3414V37.7971H34.6079V0H40.0615ZM40.6824 27.808C41.1683 28.96 41.8434 29.9679 42.7073 30.8318C43.5712 31.6958 44.5792 32.3798 45.731 32.8837C46.883 33.3877 48.1249 33.6397 49.4568 33.6397C50.7528 33.6397 51.9766 33.3877 53.1285 32.8837C54.2804 32.3798 55.2792 31.6959 56.1254 30.8318C56.9713 29.968 57.6462 28.96 58.1502 27.808C58.6541 26.6561 58.9061 25.4142 58.9061 24.0823C58.9061 22.7503 58.6541 21.4994 58.1502 20.3295C57.6462 19.1596 56.9713 18.1427 56.1254 17.2787C55.2793 16.4149 54.2805 15.7399 53.1285 15.254C51.9765 14.768 50.7527 14.5249 49.4568 14.5249C48.161 14.5249 46.9371 14.7679 45.7852 15.254C44.6333 15.74 43.6254 16.4149 42.7613 17.2787C41.8975 18.1427 41.2135 19.1596 40.7095 20.3295C40.2056 21.4994 39.9536 22.7503 39.9536 24.0823C39.9535 25.4142 40.1965 26.6561 40.6824 27.808Z" fill="white"/>
<path d="M67.3829 18.5208C68.1028 16.7929 69.0929 15.272 70.3527 13.9581C71.6125 12.6442 73.1065 11.6093 74.8344 10.8534C76.5623 10.0975 78.4342 9.71954 80.45 9.71954C82.4298 9.71954 84.2657 10.0795 85.9577 10.7994C87.6495 11.5194 89.1073 12.5183 90.3313 13.7962C91.5552 15.0741 92.5092 16.586 93.193 18.3319C93.877 20.0778 94.219 21.9766 94.219 24.0286V25.8104H71.8107C71.9907 26.9264 72.3507 27.9613 72.8906 28.9151C73.4307 29.869 74.1055 30.697 74.9154 31.3989C75.7254 32.1009 76.6433 32.6499 77.6693 33.0458C78.6952 33.4417 79.784 33.6398 80.936 33.6398C84.2119 33.6398 86.8577 32.2898 88.8735 29.59L92.8152 32.5057C91.4473 34.3416 89.7555 35.7816 87.7397 36.8254C85.7237 37.8693 83.4559 38.3913 80.9361 38.3913C78.8842 38.3913 76.9674 38.0312 75.1856 37.3114C73.4037 36.5915 71.8558 35.5835 70.5419 34.2875C69.228 32.9915 68.1931 31.4707 67.4372 29.7249C66.6813 27.9791 66.3032 26.0801 66.3032 24.0283C66.303 22.0845 66.6631 20.2486 67.3829 18.5208ZM74.9694 16.3878C73.4395 17.6658 72.4226 19.3667 71.9187 21.4905H88.7115C88.2435 19.3667 87.2446 17.6658 85.7146 16.3878C84.1847 15.11 82.3939 14.4711 80.3421 14.4711C78.2902 14.4711 76.4993 15.11 74.9694 16.3878Z" fill="white"/>
<path d="M104.423 17.0088C103.271 18.2687 102.695 19.9786 102.695 22.1385V37.7975H97.2417V10.2594H102.641V13.6612C103.325 12.5453 104.216 11.6633 105.314 11.0153C106.412 10.3673 107.717 10.0433 109.229 10.0433H111.119V15.1189H108.851C107.051 15.119 105.575 15.7489 104.423 17.0088Z" fill="white"/>
</g>
<defs>
<clipPath id="clip0">
<rect width="110.745" height="38.4452" fill="white" transform="translate(0.375)"/>
</clipPath>
</defs>
</svg>
