<svg width="100" height="33" viewBox="0 0 100 33" fill="none" xmlns="http://www.w3.org/2000/svg">
<path d="M43.0124 31.6468H34.9388L39.9847 0.636688H48.0591L43.0124 31.6468ZM28.1469 0.636688L20.4499 21.9657L19.5391 17.3727L19.5399 17.3744L16.8233 3.4288C16.8233 3.4288 16.4948 0.636688 12.9935 0.636688H0.26894L0.119629 1.16176C0.119629 1.16176 4.01083 1.97136 8.5648 4.70623L15.5791 31.6476H23.9911L36.8359 0.636688H28.1469ZM91.6495 31.6468H99.0627L92.5992 0.635859H86.1092C83.1122 0.635859 82.3823 2.94685 82.3823 2.94685L70.3412 31.6468H78.7573L80.4404 27.0406H90.7038L91.6495 31.6468ZM82.7655 20.6775L87.0076 9.07273L89.394 20.6775H82.7655ZM70.9724 8.09392L72.1246 1.43467C72.1246 1.43467 68.5694 0.0825806 64.8632 0.0825806C60.8567 0.0825806 51.3423 1.83366 51.3423 10.3485C51.3423 18.3598 62.509 18.4594 62.509 22.6675C62.509 26.8755 52.4928 26.1215 49.1872 23.4679L47.9869 30.4308C47.9869 30.4308 51.5919 32.1819 57.0998 32.1819C62.6094 32.1819 70.921 29.3292 70.921 21.565C70.921 13.5023 59.6539 12.7516 59.6539 9.2461C59.6547 5.73979 67.5176 6.19021 70.9724 8.09392Z" fill="white"/>
<path d="M19.54 17.3735L16.8233 3.42791C16.8233 3.42791 16.4948 0.635803 12.9935 0.635803H0.26894L0.119629 1.16088C0.119629 1.16088 6.23555 2.42836 12.1018 7.17726C17.7109 11.7163 19.54 17.3735 19.54 17.3735Z" fill="white"/>
</svg>
