<svg width="62" height="66" viewBox="0 0 62 66" fill="none" xmlns="http://www.w3.org/2000/svg">
<g clip-path="url(#clip0)">
<path fill-rule="evenodd" clip-rule="evenodd" d="M6.21719 18.6707L6.32409 18.2431L6.43099 17.7086L11.1346 0.818237L61.1642 0.925138L5.89648 45.9303L31.1251 15.4636H12.2036L11.1346 15.5705C8.8897 15.6774 6.85859 17.0672 6.21719 18.6707Z" fill="white"/>
<path fill-rule="evenodd" clip-rule="evenodd" d="M58.4914 31.7124C58.4914 31.4986 56.8879 41.2265 54.2154 51.2752L1.94092 51.5959L58.3845 5.94928L33.049 36.6298H52.0774L53.1464 36.5229C55.3913 36.416 57.7431 33.3159 58.4914 31.7124Z" fill="white"/>
<path fill-rule="evenodd" clip-rule="evenodd" d="M8.88985 65.5999H0.0170898L6.11043 57.2616H2.0482L2.36891 54.9098H10.8141L4.72072 63.248H9.21055L8.88985 65.5999ZM10.6003 65.5999L11.99 54.9098H18.0833L17.7626 57.2616H14.3418L14.128 59.0789H17.335L17.1212 61.4307H13.8073L13.5935 63.248H17.0143L16.6936 65.5999H10.6003ZM18.5109 65.5999L19.9006 54.9098H22.5731L25.6733 60.4686L25.8871 61.11L26.3147 62.2859C26.321 61.6077 26.3567 60.93 26.4216 60.2548L27.063 54.9098H29.7355L28.3458 65.5999H25.7802L22.68 60.1479L22.3593 59.3996L21.9317 58.2237C21.9262 58.9376 21.8906 59.6509 21.8248 60.3617L21.1834 65.5999H18.5109ZM30.5907 65.5999L31.9804 54.9098H34.7598L33.3701 65.5999H30.5907ZM37.0047 65.5999L38.0737 57.4754H35.8288L36.1495 54.9098H43.4188L43.0981 57.4754H40.8532L39.7842 65.5999H37.0047ZM43.3119 65.5999L44.7016 54.9098H47.481L46.9465 59.0789H50.5811L51.1156 54.9098H53.8951L52.5053 65.5999H49.7259L50.2604 61.2169H46.6258L46.0913 65.5999H43.3119Z" fill="white"/>
</g>
<defs>
<clipPath id="clip0">
<rect width="61.1472" height="64.7818" fill="white" transform="translate(0.0175781 0.818237)"/>
</clipPath>
</defs>
</svg>
